M48
; DRILL file KiCad 10.0.6 date 2026-09-15T19:47:38
; FORMAT={-:-/ absolute / metric / decimal}
; #@! TF.CreationDate,2026-09-15T19:47:38-05:00
; #@! TF.GenerationSoftware,Kicad,Pcbnew,10.0.6
; #@! TF.FileFunction,Plated,1,2,PTH
FMAT,2
METRIC
; #@! TA.AperFunction,Plated,PTH,ViaDrill
T1C0.600
; #@! TA.AperFunction,Plated,PTH,ComponentDrill
T2C0.800
; #@! TA.AperFunction,Plated,PTH,ComponentDrill
T3C1.000
%
G90
G05
T1
X106.5Y-62.85
X107.0Y-65.0
X118.5Y-98.0
X123.5Y-78.5
X124.5Y-77.5
X126.0Y-67.61
X129.0Y-60.5
X129.0Y-63.5
X132.0Y-70.5
X132.5Y-65.5
X133.5Y-60.5
X137.5Y-80.31
X143.0Y-89.0
X147.5Y-63.0
X148.05Y-89.15
X148.5Y-61.0
X149.5Y-84.0
X153.45Y-84.0
X156.5Y-89.0
T2
X111.5Y-57.0
X112.0Y-88.0
X112.01Y-65.8
X112.01Y-68.34
X112.01Y-70.88
X112.01Y-73.42
X112.01Y-75.96
X112.01Y-78.5
X112.01Y-81.04
X112.01Y-83.58
X114.0Y-57.0
X114.0Y-88.0
X119.63Y-65.8
X119.63Y-68.34
X119.63Y-70.88
X119.63Y-73.42
X119.63Y-75.96
X119.63Y-78.5
X119.63Y-81.04
X119.63Y-83.58
X120.0Y-59.0
X120.0Y-62.5
X125.0Y-59.0
X125.0Y-62.5
X127.38Y-65.76
X127.38Y-68.3
X127.38Y-70.84
X127.38Y-73.38
X127.38Y-75.92
X127.38Y-78.46
X127.38Y-81.0
X127.38Y-83.54
X127.685Y-88.15
X129.685Y-88.15
X135.0Y-59.0
X135.0Y-62.5
X135.0Y-65.76
X135.0Y-68.3
X135.0Y-70.84
X135.0Y-73.38
X135.0Y-75.92
X135.0Y-78.46
X135.0Y-81.0
X135.0Y-83.54
X140.0Y-59.0
X140.0Y-62.5
X140.0Y-79.19
X140.0Y-86.81
X143.19Y-86.5
X143.195Y-66.38
X143.195Y-68.92
X143.195Y-71.46
X143.195Y-74.0
X143.195Y-76.54
X143.195Y-79.08
X143.195Y-81.62
X150.81Y-86.5
X150.815Y-66.38
X150.815Y-68.92
X150.815Y-71.46
X150.815Y-74.0
X150.815Y-76.54
X150.815Y-79.08
X150.815Y-81.62
X151.0Y-59.0
X151.0Y-62.5
X156.0Y-59.0
X156.0Y-62.5
T3
X103.0Y-55.5
X103.0Y-58.04
X103.0Y-64.0
X103.0Y-66.54
X103.0Y-79.5
X103.0Y-82.04
X103.0Y-88.0
X103.0Y-90.54
X108.37Y-46.23
X108.37Y-48.77
X110.91Y-46.23
X110.91Y-48.77
X113.45Y-46.23
X113.45Y-48.77
X115.99Y-46.23
X115.99Y-48.77
X118.53Y-46.23
X118.53Y-48.77
X121.07Y-46.23
X121.07Y-48.77
X123.61Y-46.23
X123.61Y-48.77
X125.77Y-96.5
X126.15Y-46.23
X126.15Y-48.77
X128.31Y-96.5
X128.69Y-46.23
X128.69Y-48.77
X130.85Y-96.5
X131.23Y-46.23
X131.23Y-48.77
X133.39Y-96.5
X133.77Y-46.23
X133.77Y-48.77
X136.31Y-46.23
X136.31Y-48.77
X137.0Y-96.5
X138.85Y-46.23
X138.85Y-48.77
X139.54Y-96.5
X141.39Y-46.23
X141.39Y-48.77
X142.08Y-96.5
X143.93Y-46.23
X143.93Y-48.77
X144.62Y-96.5
X146.47Y-46.23
X146.47Y-48.77
X148.0Y-96.5
X149.01Y-46.23
X149.01Y-48.77
X150.54Y-96.5
X151.55Y-46.23
X151.55Y-48.77
X153.08Y-96.5
X154.09Y-46.23
X154.09Y-48.77
X155.62Y-96.5
X156.63Y-46.23
X156.63Y-48.77
X161.5Y-55.42
X161.5Y-57.96
X161.5Y-60.5
X161.5Y-65.42
X161.5Y-67.96
X161.5Y-70.5
X161.5Y-75.5
X161.5Y-78.04
X161.5Y-80.58
X161.5Y-85.5
X161.5Y-88.04
X161.5Y-90.58
M30
