%TF.GenerationSoftware,KiCad,Pcbnew,10.0.6*%
%TF.CreationDate,2026-09-15T19:47:32-05:00*%
%TF.ProjectId,Reelfoot Rover,5265656c-666f-46f7-9420-526f7665722e,rev?*%
%TF.SameCoordinates,Original*%
%TF.FileFunction,Copper,L1,Top*%
%TF.FilePolarity,Positive*%
%FSLAX46Y46*%
G04 Gerber Fmt 4.6, Leading zero omitted, Abs format (unit mm)*
G04 Created by KiCad (PCBNEW 10.0.6) date 2026-09-15 19:47:32*
%MOMM*%
%LPD*%
G01*
G04 APERTURE LIST*
G04 Aperture macros list*
%AMRoundRect*
0 Rectangle with rounded corners*
0 $1 Rounding radius*
0 $2 $3 $4 $5 $6 $7 $8 $9 X,Y pos of 4 corners*
0 Add a 4 corners polygon primitive as box body*
4,1,4,$2,$3,$4,$5,$6,$7,$8,$9,$2,$3,0*
0 Add four circle primitives for the rounded corners*
1,1,$1+$1,$2,$3*
1,1,$1+$1,$4,$5*
1,1,$1+$1,$6,$7*
1,1,$1+$1,$8,$9*
0 Add four rect primitives between the rounded corners*
20,1,$1+$1,$2,$3,$4,$5,0*
20,1,$1+$1,$4,$5,$6,$7,0*
20,1,$1+$1,$6,$7,$8,$9,0*
20,1,$1+$1,$8,$9,$2,$3,0*%
G04 Aperture macros list end*
%TA.AperFunction,ComponentPad*%
%ADD10R,1.700000X1.700000*%
%TD*%
%TA.AperFunction,ComponentPad*%
%ADD11C,1.700000*%
%TD*%
%TA.AperFunction,ComponentPad*%
%ADD12C,1.600000*%
%TD*%
%TA.AperFunction,ComponentPad*%
%ADD13RoundRect,0.250000X-0.550000X-0.550000X0.550000X-0.550000X0.550000X0.550000X-0.550000X0.550000X0*%
%TD*%
%TA.AperFunction,ComponentPad*%
%ADD14O,1.700000X1.700000*%
%TD*%
%TA.AperFunction,ViaPad*%
%ADD15C,0.900000*%
%TD*%
%TA.AperFunction,Conductor*%
%ADD16C,0.200000*%
%TD*%
%TA.AperFunction,Profile*%
%ADD17C,0.100000*%
%TD*%
G04 APERTURE END LIST*
D10*
X161500000Y-55420000D03*
D11*
X161500000Y-57960000D03*
X161500000Y-60500000D03*
D10*
X103000000Y-88000000D03*
D11*
X103000000Y-90540000D03*
D12*
X120000000Y-59000000D03*
X125000000Y-59000000D03*
X135000000Y-59000000D03*
X140000000Y-59000000D03*
X143190000Y-86500000D03*
X150810000Y-86500000D03*
D10*
X125770000Y-96500000D03*
D11*
X128310000Y-96500000D03*
X130850000Y-96500000D03*
X133390000Y-96500000D03*
D13*
X112000000Y-88000000D03*
D12*
X114000000Y-88000000D03*
X151000000Y-59000000D03*
X156000000Y-59000000D03*
D13*
X127685000Y-88150000D03*
D12*
X129685000Y-88150000D03*
D13*
X127380000Y-65760000D03*
D12*
X127380000Y-68300000D03*
X127380000Y-70840000D03*
X127380000Y-73380000D03*
X127380000Y-75920000D03*
X127380000Y-78460000D03*
X127380000Y-81000000D03*
X127380000Y-83540000D03*
X135000000Y-83540000D03*
X135000000Y-81000000D03*
X135000000Y-78460000D03*
X135000000Y-75920000D03*
X135000000Y-73380000D03*
X135000000Y-70840000D03*
X135000000Y-68300000D03*
X135000000Y-65760000D03*
X120000000Y-62500000D03*
X125000000Y-62500000D03*
D13*
X143195000Y-66380000D03*
D12*
X143195000Y-68920000D03*
X143195000Y-71460000D03*
X143195000Y-74000000D03*
X143195000Y-76540000D03*
X143195000Y-79080000D03*
X143195000Y-81620000D03*
X150815000Y-81620000D03*
X150815000Y-79080000D03*
X150815000Y-76540000D03*
X150815000Y-74000000D03*
X150815000Y-71460000D03*
X150815000Y-68920000D03*
X150815000Y-66380000D03*
D10*
X161500000Y-65420000D03*
D11*
X161500000Y-67960000D03*
X161500000Y-70500000D03*
D10*
X103000000Y-55500000D03*
D11*
X103000000Y-58040000D03*
D13*
X112010000Y-65800000D03*
D12*
X112010000Y-68340000D03*
X112010000Y-70880000D03*
X112010000Y-73420000D03*
X112010000Y-75960000D03*
X112010000Y-78500000D03*
X112010000Y-81040000D03*
X112010000Y-83580000D03*
X119630000Y-83580000D03*
X119630000Y-81040000D03*
X119630000Y-78500000D03*
X119630000Y-75960000D03*
X119630000Y-73420000D03*
X119630000Y-70880000D03*
X119630000Y-68340000D03*
X119630000Y-65800000D03*
D10*
X161500000Y-75500000D03*
D11*
X161500000Y-78040000D03*
X161500000Y-80580000D03*
D10*
X103000000Y-79500000D03*
D11*
X103000000Y-82040000D03*
D12*
X140000000Y-79190000D03*
X140000000Y-86810000D03*
D10*
X103000000Y-64000000D03*
D11*
X103000000Y-66540000D03*
D12*
X151000000Y-62500000D03*
X156000000Y-62500000D03*
X135000000Y-62500000D03*
X140000000Y-62500000D03*
D10*
X161500000Y-85500000D03*
D11*
X161500000Y-88040000D03*
X161500000Y-90580000D03*
D10*
X137000000Y-96500000D03*
D11*
X139540000Y-96500000D03*
X142080000Y-96500000D03*
X144620000Y-96500000D03*
D10*
X148000000Y-96500000D03*
D11*
X150540000Y-96500000D03*
X153080000Y-96500000D03*
X155620000Y-96500000D03*
D13*
X111500000Y-57000000D03*
D12*
X114000000Y-57000000D03*
D10*
X108370000Y-48770000D03*
D14*
X108370000Y-46230000D03*
X110910000Y-48770000D03*
X110910000Y-46230000D03*
X113450000Y-48770000D03*
X113450000Y-46230000D03*
X115990000Y-48770000D03*
X115990000Y-46230000D03*
X118530000Y-48770000D03*
X118530000Y-46230000D03*
X121070000Y-48770000D03*
X121070000Y-46230000D03*
X123610000Y-48770000D03*
X123610000Y-46230000D03*
X126150000Y-48770000D03*
X126150000Y-46230000D03*
X128690000Y-48770000D03*
X128690000Y-46230000D03*
X131230000Y-48770000D03*
X131230000Y-46230000D03*
X133770000Y-48770000D03*
X133770000Y-46230000D03*
X136310000Y-48770000D03*
X136310000Y-46230000D03*
X138850000Y-48770000D03*
X138850000Y-46230000D03*
X141390000Y-48770000D03*
X141390000Y-46230000D03*
X143930000Y-48770000D03*
X143930000Y-46230000D03*
X146470000Y-48770000D03*
X146470000Y-46230000D03*
X149010000Y-48770000D03*
X149010000Y-46230000D03*
X151550000Y-48770000D03*
X151550000Y-46230000D03*
X154090000Y-48770000D03*
X154090000Y-46230000D03*
X156630000Y-48770000D03*
X156630000Y-46230000D03*
D15*
X118500000Y-98000000D03*
X132500000Y-65500000D03*
X137500000Y-80310000D03*
X149500000Y-84000000D03*
X153450000Y-84000000D03*
X147500000Y-63000000D03*
X106500000Y-62850000D03*
X107000000Y-65000000D03*
X148500000Y-61000000D03*
X129000000Y-60500000D03*
X133500000Y-60500000D03*
X124500000Y-77500000D03*
X132000000Y-70500000D03*
X126000000Y-67610000D03*
X129000000Y-63500000D03*
X148050331Y-89150000D03*
X123500000Y-78500000D03*
X143000000Y-89000000D03*
X156500000Y-89000000D03*
D16*
X119630000Y-65800000D02*
X120770000Y-64660000D01*
X163425000Y-91425000D02*
X163425000Y-87425000D01*
X120000000Y-59000000D02*
X120000000Y-62500000D01*
X163000000Y-56920000D02*
X161500000Y-55420000D01*
X120000000Y-62500000D02*
X120000000Y-65430000D01*
X161500000Y-75500000D02*
X162650000Y-74350000D01*
X133900000Y-64660000D02*
X135000000Y-65760000D01*
X161500000Y-65420000D02*
X163000000Y-63920000D01*
X162650000Y-74350000D02*
X162650000Y-66570000D01*
X120000000Y-65430000D02*
X119630000Y-65800000D01*
X135000000Y-59000000D02*
X135000000Y-55080000D01*
X163000000Y-63920000D02*
X163000000Y-56920000D01*
X163425000Y-87425000D02*
X161500000Y-85500000D01*
X135000000Y-65760000D02*
X135000000Y-59000000D01*
X118500000Y-98000000D02*
X119500000Y-99000000D01*
X119500000Y-99000000D02*
X155850000Y-99000000D01*
X120770000Y-64660000D02*
X133900000Y-64660000D01*
X135000000Y-55080000D02*
X128690000Y-48770000D01*
X155850000Y-99000000D02*
X163425000Y-91425000D01*
X162650000Y-66570000D02*
X161500000Y-65420000D01*
X112010000Y-73420000D02*
X112010000Y-75960000D01*
X142540000Y-47620000D02*
X143930000Y-46230000D01*
X121500000Y-57000000D02*
X123500000Y-59000000D01*
X123610000Y-46230000D02*
X124760000Y-47380000D01*
X114000000Y-53300000D02*
X118530000Y-48770000D01*
X125000000Y-59000000D02*
X125000000Y-62500000D01*
X140000000Y-47620000D02*
X142540000Y-47620000D01*
X107220000Y-45753654D02*
X107893654Y-45080000D01*
X137460000Y-47380000D02*
X138850000Y-48770000D01*
X107893654Y-45080000D02*
X111386346Y-45080000D01*
X155240000Y-47380000D02*
X156630000Y-48770000D01*
X138850000Y-48770000D02*
X140000000Y-49920000D01*
X115000000Y-70430000D02*
X115000000Y-66171321D01*
X114600000Y-56400000D02*
X114000000Y-57000000D01*
X114000000Y-57000000D02*
X121500000Y-57000000D01*
X119760000Y-50000000D02*
X118530000Y-48770000D01*
X112010000Y-73420000D02*
X115000000Y-70430000D01*
X122460000Y-47380000D02*
X123610000Y-46230000D01*
X140000000Y-49920000D02*
X140000000Y-59000000D01*
X143930000Y-46230000D02*
X145080000Y-47380000D01*
X140000000Y-59000000D02*
X140000000Y-62500000D01*
X114000000Y-57000000D02*
X114000000Y-53300000D01*
X149010000Y-46230000D02*
X150160000Y-47380000D01*
X115000000Y-66171321D02*
X107220000Y-58391321D01*
X150160000Y-47380000D02*
X155240000Y-47380000D01*
X132380000Y-47380000D02*
X137460000Y-47380000D01*
X107220000Y-58391321D02*
X107220000Y-45753654D01*
X119630000Y-73420000D02*
X112010000Y-73420000D01*
X124760000Y-47380000D02*
X130080000Y-47380000D01*
X122460000Y-49006346D02*
X121466346Y-50000000D01*
X111386346Y-45080000D02*
X114600000Y-48293654D01*
X130080000Y-47380000D02*
X131230000Y-46230000D01*
X147860000Y-47380000D02*
X149010000Y-46230000D01*
X114600000Y-48293654D02*
X114600000Y-56400000D01*
X131230000Y-46230000D02*
X132380000Y-47380000D01*
X112010000Y-75960000D02*
X119630000Y-75960000D01*
X123500000Y-59000000D02*
X125000000Y-59000000D01*
X119630000Y-75960000D02*
X119630000Y-73420000D01*
X121466346Y-50000000D02*
X119760000Y-50000000D01*
X122460000Y-47380000D02*
X122460000Y-49006346D01*
X145080000Y-47380000D02*
X147860000Y-47380000D01*
X138850000Y-48770000D02*
X140000000Y-47620000D01*
X104150000Y-86850000D02*
X126610000Y-86850000D01*
X103000000Y-88000000D02*
X104150000Y-86850000D01*
X126610000Y-86850000D02*
X135000000Y-78460000D01*
X136100000Y-71940000D02*
X135000000Y-70840000D01*
X134884365Y-79560000D02*
X135455635Y-79560000D01*
X133900000Y-85490635D02*
X133900000Y-80544365D01*
X133900000Y-80544365D02*
X134884365Y-79560000D01*
X103000000Y-90540000D02*
X128850635Y-90540000D01*
X135455635Y-79560000D02*
X136100000Y-78915635D01*
X136100000Y-78915635D02*
X136100000Y-71940000D01*
X128850635Y-90540000D02*
X133900000Y-85490635D01*
X140000000Y-45080000D02*
X138850000Y-46230000D01*
X155240000Y-46706346D02*
X155240000Y-45753654D01*
X157106346Y-47620000D02*
X156153654Y-47620000D01*
X156153654Y-47620000D02*
X155240000Y-46706346D01*
X149715000Y-58350685D02*
X157780000Y-50285685D01*
X157780000Y-48293654D02*
X157106346Y-47620000D01*
X155240000Y-45753654D02*
X154566346Y-45080000D01*
X149715000Y-79975000D02*
X149715000Y-58350685D01*
X143190000Y-86500000D02*
X149715000Y-79975000D01*
X157780000Y-50285685D02*
X157780000Y-48293654D01*
X154566346Y-45080000D02*
X140000000Y-45080000D01*
X154230000Y-96976346D02*
X153156346Y-98050000D01*
X119174365Y-69780000D02*
X120085635Y-69780000D01*
X112060000Y-47380000D02*
X110910000Y-46230000D01*
X154230000Y-96023654D02*
X154230000Y-96976346D01*
X126920000Y-97650000D02*
X125770000Y-96500000D01*
X111500000Y-57000000D02*
X111500000Y-62105635D01*
X154500000Y-62500000D02*
X154500000Y-90000000D01*
X110910000Y-46230000D02*
X108370000Y-46230000D01*
X138550000Y-98050000D02*
X137000000Y-96500000D01*
X111500000Y-62105635D02*
X119174365Y-69780000D01*
X120085635Y-69780000D02*
X121130000Y-70824365D01*
X112060000Y-56440000D02*
X112060000Y-47380000D01*
X149150000Y-95350000D02*
X153556346Y-95350000D01*
X135850000Y-97650000D02*
X126920000Y-97650000D01*
X121130000Y-70824365D02*
X121130000Y-81095635D01*
X119174365Y-82140000D02*
X117734365Y-83580000D01*
X153556346Y-95350000D02*
X154230000Y-96023654D01*
X153156346Y-98050000D02*
X138550000Y-98050000D01*
X154500000Y-90000000D02*
X148000000Y-96500000D01*
X151000000Y-59000000D02*
X154500000Y-62500000D01*
X137000000Y-96500000D02*
X135850000Y-97650000D01*
X123574365Y-83540000D02*
X121130000Y-81095635D01*
X150815000Y-59185000D02*
X151000000Y-59000000D01*
X121130000Y-81095635D02*
X120085635Y-82140000D01*
X120085635Y-82140000D02*
X119174365Y-82140000D01*
X117734365Y-83580000D02*
X112010000Y-83580000D01*
X150815000Y-66380000D02*
X150815000Y-59185000D01*
X111500000Y-57000000D02*
X112060000Y-56440000D01*
X148000000Y-96500000D02*
X149150000Y-95350000D01*
X127380000Y-83540000D02*
X123574365Y-83540000D01*
X101450000Y-54750000D02*
X106820000Y-49380000D01*
X123900000Y-92090000D02*
X102357968Y-92090000D01*
X102357968Y-92090000D02*
X101450000Y-91182031D01*
X107727969Y-44680000D02*
X114440000Y-44680000D01*
X128310000Y-96500000D02*
X123900000Y-92090000D01*
X106820000Y-45587968D02*
X107727969Y-44680000D01*
X106820000Y-49380000D02*
X106820000Y-45587968D01*
X101450000Y-91182031D02*
X101450000Y-54750000D01*
X114440000Y-44680000D02*
X115990000Y-46230000D01*
X143195000Y-66380000D02*
X138250000Y-71325000D01*
X138250000Y-89100000D02*
X130850000Y-96500000D01*
X138250000Y-71325000D02*
X138250000Y-89100000D01*
X132240000Y-65760000D02*
X132500000Y-65500000D01*
X127380000Y-65760000D02*
X132240000Y-65760000D01*
X135455635Y-69400000D02*
X146470000Y-58385635D01*
X128480000Y-69400000D02*
X135455635Y-69400000D01*
X146470000Y-58385635D02*
X146470000Y-48770000D01*
X127380000Y-68300000D02*
X128480000Y-69400000D01*
X102523654Y-91690000D02*
X128405635Y-91690000D01*
X101850000Y-91016346D02*
X102523654Y-91690000D01*
X148500000Y-56921320D02*
X148500000Y-50000000D01*
X149010000Y-49490000D02*
X148500000Y-50000000D01*
X126444314Y-86450000D02*
X102250000Y-86450000D01*
X102250000Y-86450000D02*
X101850000Y-86850000D01*
X127380000Y-81000000D02*
X131894315Y-81000000D01*
X149010000Y-48770000D02*
X149010000Y-49490000D01*
X136500000Y-68921320D02*
X148500000Y-56921320D01*
X101850000Y-86850000D02*
X101850000Y-91016346D01*
X136500000Y-83595635D02*
X136500000Y-68921320D01*
X128405635Y-91690000D02*
X136500000Y-83595635D01*
X131894315Y-81000000D02*
X126444314Y-86450000D01*
X137500000Y-80310000D02*
X137500000Y-70000000D01*
X137500000Y-70000000D02*
X151550000Y-55950000D01*
X151550000Y-55950000D02*
X151550000Y-48770000D01*
X149500000Y-84000000D02*
X153450000Y-84000000D01*
X143195000Y-68920000D02*
X144295000Y-70020000D01*
X142080000Y-86054365D02*
X142080000Y-96500000D01*
X144295000Y-70020000D02*
X144295000Y-83839365D01*
X144295000Y-83839365D02*
X142080000Y-86054365D01*
X143195000Y-71460000D02*
X143195000Y-74000000D01*
X140930000Y-96976346D02*
X141603654Y-97650000D01*
X151930000Y-97650000D02*
X153080000Y-96500000D01*
X140930000Y-96023654D02*
X140930000Y-96976346D01*
X143195000Y-76540000D02*
X141094365Y-76540000D01*
X138900000Y-93993654D02*
X140930000Y-96023654D01*
X141094365Y-76540000D02*
X138900000Y-78734365D01*
X138900000Y-78734365D02*
X138900000Y-93993654D01*
X141603654Y-97650000D02*
X151930000Y-97650000D01*
X140000000Y-79190000D02*
X143085000Y-79190000D01*
X143085000Y-79190000D02*
X143195000Y-79080000D01*
X110910000Y-69780000D02*
X112010000Y-70880000D01*
X110910000Y-63410000D02*
X110910000Y-69780000D01*
X103000000Y-55500000D02*
X110910000Y-63410000D01*
X110510000Y-77000000D02*
X112010000Y-78500000D01*
X103000000Y-58040000D02*
X110510000Y-65550000D01*
X110510000Y-65550000D02*
X110510000Y-77000000D01*
X133500000Y-60500000D02*
X129000000Y-60500000D01*
X107000000Y-65000000D02*
X106500000Y-64500000D01*
X106500000Y-64500000D02*
X106500000Y-62850000D01*
X148500000Y-62000000D02*
X147500000Y-63000000D01*
X148500000Y-61000000D02*
X148500000Y-62000000D01*
X127680000Y-74820000D02*
X132000000Y-70500000D01*
X124500000Y-77500000D02*
X124500000Y-77244365D01*
X126924365Y-74820000D02*
X127680000Y-74820000D01*
X124500000Y-77244365D02*
X126924365Y-74820000D01*
X118530000Y-79600000D02*
X119630000Y-78500000D01*
X103100000Y-79600000D02*
X118530000Y-79600000D01*
X103000000Y-79500000D02*
X103100000Y-79600000D01*
X120730000Y-78955635D02*
X120730000Y-71980000D01*
X103100000Y-82140000D02*
X116634365Y-82140000D01*
X120730000Y-71980000D02*
X119630000Y-70880000D01*
X120085635Y-79600000D02*
X120730000Y-78955635D01*
X116634365Y-82140000D02*
X119174365Y-79600000D01*
X119174365Y-79600000D02*
X120085635Y-79600000D01*
X103000000Y-82040000D02*
X103100000Y-82140000D01*
X143930000Y-60125635D02*
X143930000Y-48770000D01*
X137195635Y-66860000D02*
X143930000Y-60125635D01*
X121110000Y-66860000D02*
X137195635Y-66860000D01*
X119630000Y-68340000D02*
X121110000Y-66860000D01*
X161500000Y-80580000D02*
X158180000Y-77260000D01*
X122460000Y-46706346D02*
X121070000Y-48096346D01*
X156306346Y-44280000D02*
X123933654Y-44280000D01*
X158180000Y-77260000D02*
X158180000Y-46153654D01*
X123933654Y-44280000D02*
X122460000Y-45753654D01*
X122460000Y-45753654D02*
X122460000Y-46706346D01*
X158180000Y-46153654D02*
X156306346Y-44280000D01*
X121070000Y-48096346D02*
X121070000Y-48770000D01*
X159920000Y-89000000D02*
X156500000Y-89000000D01*
X123500000Y-70110000D02*
X126000000Y-67610000D01*
X148050331Y-89150000D02*
X143150000Y-89150000D01*
X123500000Y-78500000D02*
X123500000Y-70110000D01*
X143150000Y-89150000D02*
X143000000Y-89000000D01*
X129000000Y-63500000D02*
X126150000Y-60650000D01*
X161500000Y-90580000D02*
X159920000Y-89000000D01*
X126150000Y-60650000D02*
X126150000Y-48770000D01*
D17*
X100000000Y-47000000D02*
X100000000Y-81000000D01*
X100000000Y-47000000D02*
G75*
G02*
X103000000Y-44000000I3000000J0D01*
G01*
X100000000Y-81000000D02*
X100000000Y-97000000D01*
X103000000Y-100000000D02*
G75*
G02*
X100000000Y-97000000I0J3000000D01*
G01*
X103000000Y-100000000D02*
X162000000Y-100000000D01*
X162000000Y-44000000D02*
X103000000Y-44000000D01*
X162000000Y-44000000D02*
G75*
G02*
X165000000Y-47000000I0J-3000000D01*
G01*
X165000000Y-97000000D02*
G75*
G02*
X162000000Y-100000000I-3000000J0D01*
G01*
X165000000Y-97000000D02*
X165000000Y-47000000D01*
M02*
