%TF.GenerationSoftware,KiCad,Pcbnew,10.0.6*%
%TF.CreationDate,2026-09-15T19:47:32-05:00*%
%TF.ProjectId,Reelfoot Rover,5265656c-666f-46f7-9420-526f7665722e,rev?*%
%TF.SameCoordinates,Original*%
%TF.FileFunction,Legend,Top*%
%TF.FilePolarity,Positive*%
%FSLAX46Y46*%
G04 Gerber Fmt 4.6, Leading zero omitted, Abs format (unit mm)*
G04 Created by KiCad (PCBNEW 10.0.6) date 2026-09-15 19:47:32*
%MOMM*%
%LPD*%
G01*
G04 APERTURE LIST*
%ADD10C,0.150000*%
%ADD11C,0.600000*%
%ADD12C,0.120000*%
%TA.AperFunction,Profile*%
%ADD13C,0.100000*%
%TD*%
G04 APERTURE END LIST*
D10*
X100336779Y-55488866D02*
X101098684Y-55488866D01*
X100717731Y-55869819D02*
X100717731Y-55107914D01*
X100336779Y-57988866D02*
X101098684Y-57988866D01*
X100336779Y-63988866D02*
X101098684Y-63988866D01*
X100717731Y-64369819D02*
X100717731Y-63607914D01*
X100336779Y-66488866D02*
X101098684Y-66488866D01*
X100336779Y-79488866D02*
X101098684Y-79488866D01*
X100717731Y-79869819D02*
X100717731Y-79107914D01*
X100336779Y-81988866D02*
X101098684Y-81988866D01*
X100336779Y-87988866D02*
X101098684Y-87988866D01*
X100717731Y-88369819D02*
X100717731Y-87607914D01*
X100336779Y-90488866D02*
X101098684Y-90488866D01*
X108836779Y-95149931D02*
X108836779Y-94149931D01*
X108836779Y-94149931D02*
X109074874Y-94149931D01*
X109074874Y-94149931D02*
X109217731Y-94197550D01*
X109217731Y-94197550D02*
X109312969Y-94292788D01*
X109312969Y-94292788D02*
X109360588Y-94388026D01*
X109360588Y-94388026D02*
X109408207Y-94578502D01*
X109408207Y-94578502D02*
X109408207Y-94721359D01*
X109408207Y-94721359D02*
X109360588Y-94911835D01*
X109360588Y-94911835D02*
X109312969Y-95007073D01*
X109312969Y-95007073D02*
X109217731Y-95102312D01*
X109217731Y-95102312D02*
X109074874Y-95149931D01*
X109074874Y-95149931D02*
X108836779Y-95149931D01*
X109836779Y-95149931D02*
X109836779Y-94483264D01*
X109836779Y-94673740D02*
X109884398Y-94578502D01*
X109884398Y-94578502D02*
X109932017Y-94530883D01*
X109932017Y-94530883D02*
X110027255Y-94483264D01*
X110027255Y-94483264D02*
X110122493Y-94483264D01*
X110455827Y-95054692D02*
X110503446Y-95102312D01*
X110503446Y-95102312D02*
X110455827Y-95149931D01*
X110455827Y-95149931D02*
X110408208Y-95102312D01*
X110408208Y-95102312D02*
X110455827Y-95054692D01*
X110455827Y-95054692D02*
X110455827Y-95149931D01*
X112265350Y-95149931D02*
X111932017Y-94673740D01*
X111693922Y-95149931D02*
X111693922Y-94149931D01*
X111693922Y-94149931D02*
X112074874Y-94149931D01*
X112074874Y-94149931D02*
X112170112Y-94197550D01*
X112170112Y-94197550D02*
X112217731Y-94245169D01*
X112217731Y-94245169D02*
X112265350Y-94340407D01*
X112265350Y-94340407D02*
X112265350Y-94483264D01*
X112265350Y-94483264D02*
X112217731Y-94578502D01*
X112217731Y-94578502D02*
X112170112Y-94626121D01*
X112170112Y-94626121D02*
X112074874Y-94673740D01*
X112074874Y-94673740D02*
X111693922Y-94673740D01*
X112836779Y-95149931D02*
X112741541Y-95102312D01*
X112741541Y-95102312D02*
X112693922Y-95054692D01*
X112693922Y-95054692D02*
X112646303Y-94959454D01*
X112646303Y-94959454D02*
X112646303Y-94673740D01*
X112646303Y-94673740D02*
X112693922Y-94578502D01*
X112693922Y-94578502D02*
X112741541Y-94530883D01*
X112741541Y-94530883D02*
X112836779Y-94483264D01*
X112836779Y-94483264D02*
X112979636Y-94483264D01*
X112979636Y-94483264D02*
X113074874Y-94530883D01*
X113074874Y-94530883D02*
X113122493Y-94578502D01*
X113122493Y-94578502D02*
X113170112Y-94673740D01*
X113170112Y-94673740D02*
X113170112Y-94959454D01*
X113170112Y-94959454D02*
X113122493Y-95054692D01*
X113122493Y-95054692D02*
X113074874Y-95102312D01*
X113074874Y-95102312D02*
X112979636Y-95149931D01*
X112979636Y-95149931D02*
X112836779Y-95149931D01*
X113598684Y-95149931D02*
X113598684Y-94149931D01*
X113598684Y-94530883D02*
X113693922Y-94483264D01*
X113693922Y-94483264D02*
X113884398Y-94483264D01*
X113884398Y-94483264D02*
X113979636Y-94530883D01*
X113979636Y-94530883D02*
X114027255Y-94578502D01*
X114027255Y-94578502D02*
X114074874Y-94673740D01*
X114074874Y-94673740D02*
X114074874Y-94959454D01*
X114074874Y-94959454D02*
X114027255Y-95054692D01*
X114027255Y-95054692D02*
X113979636Y-95102312D01*
X113979636Y-95102312D02*
X113884398Y-95149931D01*
X113884398Y-95149931D02*
X113693922Y-95149931D01*
X113693922Y-95149931D02*
X113598684Y-95102312D01*
X114884398Y-95102312D02*
X114789160Y-95149931D01*
X114789160Y-95149931D02*
X114598684Y-95149931D01*
X114598684Y-95149931D02*
X114503446Y-95102312D01*
X114503446Y-95102312D02*
X114455827Y-95007073D01*
X114455827Y-95007073D02*
X114455827Y-94626121D01*
X114455827Y-94626121D02*
X114503446Y-94530883D01*
X114503446Y-94530883D02*
X114598684Y-94483264D01*
X114598684Y-94483264D02*
X114789160Y-94483264D01*
X114789160Y-94483264D02*
X114884398Y-94530883D01*
X114884398Y-94530883D02*
X114932017Y-94626121D01*
X114932017Y-94626121D02*
X114932017Y-94721359D01*
X114932017Y-94721359D02*
X114455827Y-94816597D01*
X115360589Y-95149931D02*
X115360589Y-94483264D01*
X115360589Y-94673740D02*
X115408208Y-94578502D01*
X115408208Y-94578502D02*
X115455827Y-94530883D01*
X115455827Y-94530883D02*
X115551065Y-94483264D01*
X115551065Y-94483264D02*
X115646303Y-94483264D01*
X115836780Y-94483264D02*
X116217732Y-94483264D01*
X115979637Y-94149931D02*
X115979637Y-95007073D01*
X115979637Y-95007073D02*
X116027256Y-95102312D01*
X116027256Y-95102312D02*
X116122494Y-95149931D01*
X116122494Y-95149931D02*
X116217732Y-95149931D01*
X117789161Y-95149931D02*
X117312971Y-95149931D01*
X117312971Y-95149931D02*
X117312971Y-94149931D01*
X118265352Y-95149931D02*
X118170114Y-95102312D01*
X118170114Y-95102312D02*
X118122495Y-95054692D01*
X118122495Y-95054692D02*
X118074876Y-94959454D01*
X118074876Y-94959454D02*
X118074876Y-94673740D01*
X118074876Y-94673740D02*
X118122495Y-94578502D01*
X118122495Y-94578502D02*
X118170114Y-94530883D01*
X118170114Y-94530883D02*
X118265352Y-94483264D01*
X118265352Y-94483264D02*
X118408209Y-94483264D01*
X118408209Y-94483264D02*
X118503447Y-94530883D01*
X118503447Y-94530883D02*
X118551066Y-94578502D01*
X118551066Y-94578502D02*
X118598685Y-94673740D01*
X118598685Y-94673740D02*
X118598685Y-94959454D01*
X118598685Y-94959454D02*
X118551066Y-95054692D01*
X118551066Y-95054692D02*
X118503447Y-95102312D01*
X118503447Y-95102312D02*
X118408209Y-95149931D01*
X118408209Y-95149931D02*
X118265352Y-95149931D01*
X118932019Y-94483264D02*
X119122495Y-95149931D01*
X119122495Y-95149931D02*
X119312971Y-94673740D01*
X119312971Y-94673740D02*
X119503447Y-95149931D01*
X119503447Y-95149931D02*
X119693923Y-94483264D01*
X120455828Y-95102312D02*
X120360590Y-95149931D01*
X120360590Y-95149931D02*
X120170114Y-95149931D01*
X120170114Y-95149931D02*
X120074876Y-95102312D01*
X120074876Y-95102312D02*
X120027257Y-95007073D01*
X120027257Y-95007073D02*
X120027257Y-94626121D01*
X120027257Y-94626121D02*
X120074876Y-94530883D01*
X120074876Y-94530883D02*
X120170114Y-94483264D01*
X120170114Y-94483264D02*
X120360590Y-94483264D01*
X120360590Y-94483264D02*
X120455828Y-94530883D01*
X120455828Y-94530883D02*
X120503447Y-94626121D01*
X120503447Y-94626121D02*
X120503447Y-94721359D01*
X120503447Y-94721359D02*
X120027257Y-94816597D01*
X108836779Y-96759875D02*
X108836779Y-96093208D01*
X108836779Y-96283684D02*
X108884398Y-96188446D01*
X108884398Y-96188446D02*
X108932017Y-96140827D01*
X108932017Y-96140827D02*
X109027255Y-96093208D01*
X109027255Y-96093208D02*
X109122493Y-96093208D01*
X109598684Y-96759875D02*
X109503446Y-96712256D01*
X109503446Y-96712256D02*
X109455827Y-96617017D01*
X109455827Y-96617017D02*
X109455827Y-95759875D01*
X110122494Y-96759875D02*
X110027256Y-96712256D01*
X110027256Y-96712256D02*
X109979637Y-96664636D01*
X109979637Y-96664636D02*
X109932018Y-96569398D01*
X109932018Y-96569398D02*
X109932018Y-96283684D01*
X109932018Y-96283684D02*
X109979637Y-96188446D01*
X109979637Y-96188446D02*
X110027256Y-96140827D01*
X110027256Y-96140827D02*
X110122494Y-96093208D01*
X110122494Y-96093208D02*
X110265351Y-96093208D01*
X110265351Y-96093208D02*
X110360589Y-96140827D01*
X110360589Y-96140827D02*
X110408208Y-96188446D01*
X110408208Y-96188446D02*
X110455827Y-96283684D01*
X110455827Y-96283684D02*
X110455827Y-96569398D01*
X110455827Y-96569398D02*
X110408208Y-96664636D01*
X110408208Y-96664636D02*
X110360589Y-96712256D01*
X110360589Y-96712256D02*
X110265351Y-96759875D01*
X110265351Y-96759875D02*
X110122494Y-96759875D01*
X110789161Y-96093208D02*
X110979637Y-96759875D01*
X110979637Y-96759875D02*
X111170113Y-96283684D01*
X111170113Y-96283684D02*
X111360589Y-96759875D01*
X111360589Y-96759875D02*
X111551065Y-96093208D01*
X112312970Y-96712256D02*
X112217732Y-96759875D01*
X112217732Y-96759875D02*
X112027256Y-96759875D01*
X112027256Y-96759875D02*
X111932018Y-96712256D01*
X111932018Y-96712256D02*
X111884399Y-96617017D01*
X111884399Y-96617017D02*
X111884399Y-96236065D01*
X111884399Y-96236065D02*
X111932018Y-96140827D01*
X111932018Y-96140827D02*
X112027256Y-96093208D01*
X112027256Y-96093208D02*
X112217732Y-96093208D01*
X112217732Y-96093208D02*
X112312970Y-96140827D01*
X112312970Y-96140827D02*
X112360589Y-96236065D01*
X112360589Y-96236065D02*
X112360589Y-96331303D01*
X112360589Y-96331303D02*
X111884399Y-96426541D01*
X112932018Y-96188446D02*
X112836780Y-96140827D01*
X112836780Y-96140827D02*
X112789161Y-96093208D01*
X112789161Y-96093208D02*
X112741542Y-95997970D01*
X112741542Y-95997970D02*
X112741542Y-95950351D01*
X112741542Y-95950351D02*
X112789161Y-95855113D01*
X112789161Y-95855113D02*
X112836780Y-95807494D01*
X112836780Y-95807494D02*
X112932018Y-95759875D01*
X112932018Y-95759875D02*
X113122494Y-95759875D01*
X113122494Y-95759875D02*
X113217732Y-95807494D01*
X113217732Y-95807494D02*
X113265351Y-95855113D01*
X113265351Y-95855113D02*
X113312970Y-95950351D01*
X113312970Y-95950351D02*
X113312970Y-95997970D01*
X113312970Y-95997970D02*
X113265351Y-96093208D01*
X113265351Y-96093208D02*
X113217732Y-96140827D01*
X113217732Y-96140827D02*
X113122494Y-96188446D01*
X113122494Y-96188446D02*
X112932018Y-96188446D01*
X112932018Y-96188446D02*
X112836780Y-96236065D01*
X112836780Y-96236065D02*
X112789161Y-96283684D01*
X112789161Y-96283684D02*
X112741542Y-96378922D01*
X112741542Y-96378922D02*
X112741542Y-96569398D01*
X112741542Y-96569398D02*
X112789161Y-96664636D01*
X112789161Y-96664636D02*
X112836780Y-96712256D01*
X112836780Y-96712256D02*
X112932018Y-96759875D01*
X112932018Y-96759875D02*
X113122494Y-96759875D01*
X113122494Y-96759875D02*
X113217732Y-96712256D01*
X113217732Y-96712256D02*
X113265351Y-96664636D01*
X113265351Y-96664636D02*
X113312970Y-96569398D01*
X113312970Y-96569398D02*
X113312970Y-96378922D01*
X113312970Y-96378922D02*
X113265351Y-96283684D01*
X113265351Y-96283684D02*
X113217732Y-96236065D01*
X113217732Y-96236065D02*
X113122494Y-96188446D01*
X114360589Y-96283684D02*
X114312970Y-96236065D01*
X114312970Y-96236065D02*
X114217732Y-96188446D01*
X114217732Y-96188446D02*
X114122494Y-96188446D01*
X114122494Y-96188446D02*
X114027256Y-96236065D01*
X114027256Y-96236065D02*
X113979637Y-96283684D01*
X113979637Y-96283684D02*
X113932018Y-96378922D01*
X113932018Y-96378922D02*
X113932018Y-96474160D01*
X113932018Y-96474160D02*
X113979637Y-96569398D01*
X113979637Y-96569398D02*
X114027256Y-96617017D01*
X114027256Y-96617017D02*
X114122494Y-96664636D01*
X114122494Y-96664636D02*
X114217732Y-96664636D01*
X114217732Y-96664636D02*
X114312970Y-96617017D01*
X114312970Y-96617017D02*
X114360589Y-96569398D01*
X114360589Y-96188446D02*
X114360589Y-96569398D01*
X114360589Y-96569398D02*
X114408208Y-96617017D01*
X114408208Y-96617017D02*
X114455827Y-96617017D01*
X114455827Y-96617017D02*
X114551066Y-96569398D01*
X114551066Y-96569398D02*
X114598685Y-96474160D01*
X114598685Y-96474160D02*
X114598685Y-96236065D01*
X114598685Y-96236065D02*
X114503447Y-96093208D01*
X114503447Y-96093208D02*
X114360589Y-95997970D01*
X114360589Y-95997970D02*
X114170113Y-95950351D01*
X114170113Y-95950351D02*
X113979637Y-95997970D01*
X113979637Y-95997970D02*
X113836780Y-96093208D01*
X113836780Y-96093208D02*
X113741542Y-96236065D01*
X113741542Y-96236065D02*
X113693923Y-96426541D01*
X113693923Y-96426541D02*
X113741542Y-96617017D01*
X113741542Y-96617017D02*
X113836780Y-96759875D01*
X113836780Y-96759875D02*
X113979637Y-96855113D01*
X113979637Y-96855113D02*
X114170113Y-96902732D01*
X114170113Y-96902732D02*
X114360589Y-96855113D01*
X114360589Y-96855113D02*
X114503447Y-96759875D01*
X115455827Y-96093208D02*
X115455827Y-96759875D01*
X115027256Y-96093208D02*
X115027256Y-96617017D01*
X115027256Y-96617017D02*
X115074875Y-96712256D01*
X115074875Y-96712256D02*
X115170113Y-96759875D01*
X115170113Y-96759875D02*
X115312970Y-96759875D01*
X115312970Y-96759875D02*
X115408208Y-96712256D01*
X115408208Y-96712256D02*
X115455827Y-96664636D01*
X115789161Y-96093208D02*
X116170113Y-96093208D01*
X115932018Y-95759875D02*
X115932018Y-96617017D01*
X115932018Y-96617017D02*
X115979637Y-96712256D01*
X115979637Y-96712256D02*
X116074875Y-96759875D01*
X116074875Y-96759875D02*
X116170113Y-96759875D01*
X116503447Y-96759875D02*
X116503447Y-96093208D01*
X116503447Y-96188446D02*
X116551066Y-96140827D01*
X116551066Y-96140827D02*
X116646304Y-96093208D01*
X116646304Y-96093208D02*
X116789161Y-96093208D01*
X116789161Y-96093208D02*
X116884399Y-96140827D01*
X116884399Y-96140827D02*
X116932018Y-96236065D01*
X116932018Y-96236065D02*
X116932018Y-96759875D01*
X116932018Y-96236065D02*
X116979637Y-96140827D01*
X116979637Y-96140827D02*
X117074875Y-96093208D01*
X117074875Y-96093208D02*
X117217732Y-96093208D01*
X117217732Y-96093208D02*
X117312971Y-96140827D01*
X117312971Y-96140827D02*
X117360590Y-96236065D01*
X117360590Y-96236065D02*
X117360590Y-96759875D01*
X117836780Y-96664636D02*
X117884399Y-96712256D01*
X117884399Y-96712256D02*
X117836780Y-96759875D01*
X117836780Y-96759875D02*
X117789161Y-96712256D01*
X117789161Y-96712256D02*
X117836780Y-96664636D01*
X117836780Y-96664636D02*
X117836780Y-96759875D01*
X118693922Y-96712256D02*
X118598684Y-96759875D01*
X118598684Y-96759875D02*
X118408208Y-96759875D01*
X118408208Y-96759875D02*
X118312970Y-96712256D01*
X118312970Y-96712256D02*
X118265351Y-96617017D01*
X118265351Y-96617017D02*
X118265351Y-96236065D01*
X118265351Y-96236065D02*
X118312970Y-96140827D01*
X118312970Y-96140827D02*
X118408208Y-96093208D01*
X118408208Y-96093208D02*
X118598684Y-96093208D01*
X118598684Y-96093208D02*
X118693922Y-96140827D01*
X118693922Y-96140827D02*
X118741541Y-96236065D01*
X118741541Y-96236065D02*
X118741541Y-96331303D01*
X118741541Y-96331303D02*
X118265351Y-96426541D01*
X119598684Y-96759875D02*
X119598684Y-95759875D01*
X119598684Y-96712256D02*
X119503446Y-96759875D01*
X119503446Y-96759875D02*
X119312970Y-96759875D01*
X119312970Y-96759875D02*
X119217732Y-96712256D01*
X119217732Y-96712256D02*
X119170113Y-96664636D01*
X119170113Y-96664636D02*
X119122494Y-96569398D01*
X119122494Y-96569398D02*
X119122494Y-96283684D01*
X119122494Y-96283684D02*
X119170113Y-96188446D01*
X119170113Y-96188446D02*
X119217732Y-96140827D01*
X119217732Y-96140827D02*
X119312970Y-96093208D01*
X119312970Y-96093208D02*
X119503446Y-96093208D01*
X119503446Y-96093208D02*
X119598684Y-96140827D01*
X120503446Y-96093208D02*
X120503446Y-96759875D01*
X120074875Y-96093208D02*
X120074875Y-96617017D01*
X120074875Y-96617017D02*
X120122494Y-96712256D01*
X120122494Y-96712256D02*
X120217732Y-96759875D01*
X120217732Y-96759875D02*
X120360589Y-96759875D01*
X120360589Y-96759875D02*
X120455827Y-96712256D01*
X120455827Y-96712256D02*
X120503446Y-96664636D01*
X108836779Y-98369819D02*
X108836779Y-97369819D01*
X108836779Y-97369819D02*
X109170112Y-98084104D01*
X109170112Y-98084104D02*
X109503445Y-97369819D01*
X109503445Y-97369819D02*
X109503445Y-98369819D01*
X109979636Y-98369819D02*
X109979636Y-97369819D01*
X110312969Y-97369819D02*
X110884397Y-97369819D01*
X110598683Y-98369819D02*
X110598683Y-97369819D01*
X112455826Y-98369819D02*
X111979636Y-98369819D01*
X111979636Y-98369819D02*
X111979636Y-97369819D01*
X112789160Y-98369819D02*
X112789160Y-97703152D01*
X112789160Y-97369819D02*
X112741541Y-97417438D01*
X112741541Y-97417438D02*
X112789160Y-97465057D01*
X112789160Y-97465057D02*
X112836779Y-97417438D01*
X112836779Y-97417438D02*
X112789160Y-97369819D01*
X112789160Y-97369819D02*
X112789160Y-97465057D01*
X113693921Y-98322200D02*
X113598683Y-98369819D01*
X113598683Y-98369819D02*
X113408207Y-98369819D01*
X113408207Y-98369819D02*
X113312969Y-98322200D01*
X113312969Y-98322200D02*
X113265350Y-98274580D01*
X113265350Y-98274580D02*
X113217731Y-98179342D01*
X113217731Y-98179342D02*
X113217731Y-97893628D01*
X113217731Y-97893628D02*
X113265350Y-97798390D01*
X113265350Y-97798390D02*
X113312969Y-97750771D01*
X113312969Y-97750771D02*
X113408207Y-97703152D01*
X113408207Y-97703152D02*
X113598683Y-97703152D01*
X113598683Y-97703152D02*
X113693921Y-97750771D01*
X114503445Y-98322200D02*
X114408207Y-98369819D01*
X114408207Y-98369819D02*
X114217731Y-98369819D01*
X114217731Y-98369819D02*
X114122493Y-98322200D01*
X114122493Y-98322200D02*
X114074874Y-98226961D01*
X114074874Y-98226961D02*
X114074874Y-97846009D01*
X114074874Y-97846009D02*
X114122493Y-97750771D01*
X114122493Y-97750771D02*
X114217731Y-97703152D01*
X114217731Y-97703152D02*
X114408207Y-97703152D01*
X114408207Y-97703152D02*
X114503445Y-97750771D01*
X114503445Y-97750771D02*
X114551064Y-97846009D01*
X114551064Y-97846009D02*
X114551064Y-97941247D01*
X114551064Y-97941247D02*
X114074874Y-98036485D01*
X114979636Y-97703152D02*
X114979636Y-98369819D01*
X114979636Y-97798390D02*
X115027255Y-97750771D01*
X115027255Y-97750771D02*
X115122493Y-97703152D01*
X115122493Y-97703152D02*
X115265350Y-97703152D01*
X115265350Y-97703152D02*
X115360588Y-97750771D01*
X115360588Y-97750771D02*
X115408207Y-97846009D01*
X115408207Y-97846009D02*
X115408207Y-98369819D01*
X115836779Y-98322200D02*
X115932017Y-98369819D01*
X115932017Y-98369819D02*
X116122493Y-98369819D01*
X116122493Y-98369819D02*
X116217731Y-98322200D01*
X116217731Y-98322200D02*
X116265350Y-98226961D01*
X116265350Y-98226961D02*
X116265350Y-98179342D01*
X116265350Y-98179342D02*
X116217731Y-98084104D01*
X116217731Y-98084104D02*
X116122493Y-98036485D01*
X116122493Y-98036485D02*
X115979636Y-98036485D01*
X115979636Y-98036485D02*
X115884398Y-97988866D01*
X115884398Y-97988866D02*
X115836779Y-97893628D01*
X115836779Y-97893628D02*
X115836779Y-97846009D01*
X115836779Y-97846009D02*
X115884398Y-97750771D01*
X115884398Y-97750771D02*
X115979636Y-97703152D01*
X115979636Y-97703152D02*
X116122493Y-97703152D01*
X116122493Y-97703152D02*
X116217731Y-97750771D01*
X117074874Y-98322200D02*
X116979636Y-98369819D01*
X116979636Y-98369819D02*
X116789160Y-98369819D01*
X116789160Y-98369819D02*
X116693922Y-98322200D01*
X116693922Y-98322200D02*
X116646303Y-98226961D01*
X116646303Y-98226961D02*
X116646303Y-97846009D01*
X116646303Y-97846009D02*
X116693922Y-97750771D01*
X116693922Y-97750771D02*
X116789160Y-97703152D01*
X116789160Y-97703152D02*
X116979636Y-97703152D01*
X116979636Y-97703152D02*
X117074874Y-97750771D01*
X117074874Y-97750771D02*
X117122493Y-97846009D01*
X117122493Y-97846009D02*
X117122493Y-97941247D01*
X117122493Y-97941247D02*
X116646303Y-98036485D01*
X124513208Y-98369819D02*
X124846541Y-99369819D01*
X124846541Y-99369819D02*
X125179874Y-98369819D01*
X125941779Y-99322200D02*
X125846541Y-99369819D01*
X125846541Y-99369819D02*
X125656065Y-99369819D01*
X125656065Y-99369819D02*
X125560827Y-99322200D01*
X125560827Y-99322200D02*
X125513208Y-99274580D01*
X125513208Y-99274580D02*
X125465589Y-99179342D01*
X125465589Y-99179342D02*
X125465589Y-98893628D01*
X125465589Y-98893628D02*
X125513208Y-98798390D01*
X125513208Y-98798390D02*
X125560827Y-98750771D01*
X125560827Y-98750771D02*
X125656065Y-98703152D01*
X125656065Y-98703152D02*
X125846541Y-98703152D01*
X125846541Y-98703152D02*
X125941779Y-98750771D01*
X126798922Y-99322200D02*
X126703684Y-99369819D01*
X126703684Y-99369819D02*
X126513208Y-99369819D01*
X126513208Y-99369819D02*
X126417970Y-99322200D01*
X126417970Y-99322200D02*
X126370351Y-99274580D01*
X126370351Y-99274580D02*
X126322732Y-99179342D01*
X126322732Y-99179342D02*
X126322732Y-98893628D01*
X126322732Y-98893628D02*
X126370351Y-98798390D01*
X126370351Y-98798390D02*
X126417970Y-98750771D01*
X126417970Y-98750771D02*
X126513208Y-98703152D01*
X126513208Y-98703152D02*
X126703684Y-98703152D01*
X126703684Y-98703152D02*
X126798922Y-98750771D01*
X127289160Y-94322200D02*
X127432017Y-94369819D01*
X127432017Y-94369819D02*
X127670112Y-94369819D01*
X127670112Y-94369819D02*
X127765350Y-94322200D01*
X127765350Y-94322200D02*
X127812969Y-94274580D01*
X127812969Y-94274580D02*
X127860588Y-94179342D01*
X127860588Y-94179342D02*
X127860588Y-94084104D01*
X127860588Y-94084104D02*
X127812969Y-93988866D01*
X127812969Y-93988866D02*
X127765350Y-93941247D01*
X127765350Y-93941247D02*
X127670112Y-93893628D01*
X127670112Y-93893628D02*
X127479636Y-93846009D01*
X127479636Y-93846009D02*
X127384398Y-93798390D01*
X127384398Y-93798390D02*
X127336779Y-93750771D01*
X127336779Y-93750771D02*
X127289160Y-93655533D01*
X127289160Y-93655533D02*
X127289160Y-93560295D01*
X127289160Y-93560295D02*
X127336779Y-93465057D01*
X127336779Y-93465057D02*
X127384398Y-93417438D01*
X127384398Y-93417438D02*
X127479636Y-93369819D01*
X127479636Y-93369819D02*
X127717731Y-93369819D01*
X127717731Y-93369819D02*
X127860588Y-93417438D01*
X128432017Y-94369819D02*
X128336779Y-94322200D01*
X128336779Y-94322200D02*
X128289160Y-94274580D01*
X128289160Y-94274580D02*
X128241541Y-94179342D01*
X128241541Y-94179342D02*
X128241541Y-93893628D01*
X128241541Y-93893628D02*
X128289160Y-93798390D01*
X128289160Y-93798390D02*
X128336779Y-93750771D01*
X128336779Y-93750771D02*
X128432017Y-93703152D01*
X128432017Y-93703152D02*
X128574874Y-93703152D01*
X128574874Y-93703152D02*
X128670112Y-93750771D01*
X128670112Y-93750771D02*
X128717731Y-93798390D01*
X128717731Y-93798390D02*
X128765350Y-93893628D01*
X128765350Y-93893628D02*
X128765350Y-94179342D01*
X128765350Y-94179342D02*
X128717731Y-94274580D01*
X128717731Y-94274580D02*
X128670112Y-94322200D01*
X128670112Y-94322200D02*
X128574874Y-94369819D01*
X128574874Y-94369819D02*
X128432017Y-94369819D01*
X129193922Y-93703152D02*
X129193922Y-94369819D01*
X129193922Y-93798390D02*
X129241541Y-93750771D01*
X129241541Y-93750771D02*
X129336779Y-93703152D01*
X129336779Y-93703152D02*
X129479636Y-93703152D01*
X129479636Y-93703152D02*
X129574874Y-93750771D01*
X129574874Y-93750771D02*
X129622493Y-93846009D01*
X129622493Y-93846009D02*
X129622493Y-94369819D01*
X130527255Y-94369819D02*
X130527255Y-93846009D01*
X130527255Y-93846009D02*
X130479636Y-93750771D01*
X130479636Y-93750771D02*
X130384398Y-93703152D01*
X130384398Y-93703152D02*
X130193922Y-93703152D01*
X130193922Y-93703152D02*
X130098684Y-93750771D01*
X130527255Y-94322200D02*
X130432017Y-94369819D01*
X130432017Y-94369819D02*
X130193922Y-94369819D01*
X130193922Y-94369819D02*
X130098684Y-94322200D01*
X130098684Y-94322200D02*
X130051065Y-94226961D01*
X130051065Y-94226961D02*
X130051065Y-94131723D01*
X130051065Y-94131723D02*
X130098684Y-94036485D01*
X130098684Y-94036485D02*
X130193922Y-93988866D01*
X130193922Y-93988866D02*
X130432017Y-93988866D01*
X130432017Y-93988866D02*
X130527255Y-93941247D01*
X131003446Y-94369819D02*
X131003446Y-93703152D01*
X131003446Y-93893628D02*
X131051065Y-93798390D01*
X131051065Y-93798390D02*
X131098684Y-93750771D01*
X131098684Y-93750771D02*
X131193922Y-93703152D01*
X131193922Y-93703152D02*
X131289160Y-93703152D01*
X132908208Y-94369819D02*
X132336780Y-94369819D01*
X132622494Y-94369819D02*
X132622494Y-93369819D01*
X132622494Y-93369819D02*
X132527256Y-93512676D01*
X132527256Y-93512676D02*
X132432018Y-93607914D01*
X132432018Y-93607914D02*
X132336780Y-93655533D01*
X127957970Y-98369819D02*
X128529398Y-98369819D01*
X128243684Y-99369819D02*
X128243684Y-98369819D01*
X130569398Y-98846009D02*
X130902731Y-98846009D01*
X131045588Y-99369819D02*
X130569398Y-99369819D01*
X130569398Y-99369819D02*
X130569398Y-98369819D01*
X130569398Y-98369819D02*
X131045588Y-98369819D01*
X132680826Y-98417438D02*
X132585588Y-98369819D01*
X132585588Y-98369819D02*
X132442731Y-98369819D01*
X132442731Y-98369819D02*
X132299874Y-98417438D01*
X132299874Y-98417438D02*
X132204636Y-98512676D01*
X132204636Y-98512676D02*
X132157017Y-98607914D01*
X132157017Y-98607914D02*
X132109398Y-98798390D01*
X132109398Y-98798390D02*
X132109398Y-98941247D01*
X132109398Y-98941247D02*
X132157017Y-99131723D01*
X132157017Y-99131723D02*
X132204636Y-99226961D01*
X132204636Y-99226961D02*
X132299874Y-99322200D01*
X132299874Y-99322200D02*
X132442731Y-99369819D01*
X132442731Y-99369819D02*
X132537969Y-99369819D01*
X132537969Y-99369819D02*
X132680826Y-99322200D01*
X132680826Y-99322200D02*
X132728445Y-99274580D01*
X132728445Y-99274580D02*
X132728445Y-98941247D01*
X132728445Y-98941247D02*
X132537969Y-98941247D01*
X133157017Y-98703152D02*
X133157017Y-99369819D01*
X133157017Y-98798390D02*
X133204636Y-98750771D01*
X133204636Y-98750771D02*
X133299874Y-98703152D01*
X133299874Y-98703152D02*
X133442731Y-98703152D01*
X133442731Y-98703152D02*
X133537969Y-98750771D01*
X133537969Y-98750771D02*
X133585588Y-98846009D01*
X133585588Y-98846009D02*
X133585588Y-99369819D01*
X134490350Y-99369819D02*
X134490350Y-98369819D01*
X134490350Y-99322200D02*
X134395112Y-99369819D01*
X134395112Y-99369819D02*
X134204636Y-99369819D01*
X134204636Y-99369819D02*
X134109398Y-99322200D01*
X134109398Y-99322200D02*
X134061779Y-99274580D01*
X134061779Y-99274580D02*
X134014160Y-99179342D01*
X134014160Y-99179342D02*
X134014160Y-98893628D01*
X134014160Y-98893628D02*
X134061779Y-98798390D01*
X134061779Y-98798390D02*
X134109398Y-98750771D01*
X134109398Y-98750771D02*
X134204636Y-98703152D01*
X134204636Y-98703152D02*
X134395112Y-98703152D01*
X134395112Y-98703152D02*
X134490350Y-98750771D01*
X135829160Y-98369819D02*
X136162493Y-99369819D01*
X136162493Y-99369819D02*
X136495826Y-98369819D01*
X137257731Y-99322200D02*
X137162493Y-99369819D01*
X137162493Y-99369819D02*
X136972017Y-99369819D01*
X136972017Y-99369819D02*
X136876779Y-99322200D01*
X136876779Y-99322200D02*
X136829160Y-99274580D01*
X136829160Y-99274580D02*
X136781541Y-99179342D01*
X136781541Y-99179342D02*
X136781541Y-98893628D01*
X136781541Y-98893628D02*
X136829160Y-98798390D01*
X136829160Y-98798390D02*
X136876779Y-98750771D01*
X136876779Y-98750771D02*
X136972017Y-98703152D01*
X136972017Y-98703152D02*
X137162493Y-98703152D01*
X137162493Y-98703152D02*
X137257731Y-98750771D01*
X138114874Y-99322200D02*
X138019636Y-99369819D01*
X138019636Y-99369819D02*
X137829160Y-99369819D01*
X137829160Y-99369819D02*
X137733922Y-99322200D01*
X137733922Y-99322200D02*
X137686303Y-99274580D01*
X137686303Y-99274580D02*
X137638684Y-99179342D01*
X137638684Y-99179342D02*
X137638684Y-98893628D01*
X137638684Y-98893628D02*
X137686303Y-98798390D01*
X137686303Y-98798390D02*
X137733922Y-98750771D01*
X137733922Y-98750771D02*
X137829160Y-98703152D01*
X137829160Y-98703152D02*
X138019636Y-98703152D01*
X138019636Y-98703152D02*
X138114874Y-98750771D01*
X138289160Y-94322200D02*
X138432017Y-94369819D01*
X138432017Y-94369819D02*
X138670112Y-94369819D01*
X138670112Y-94369819D02*
X138765350Y-94322200D01*
X138765350Y-94322200D02*
X138812969Y-94274580D01*
X138812969Y-94274580D02*
X138860588Y-94179342D01*
X138860588Y-94179342D02*
X138860588Y-94084104D01*
X138860588Y-94084104D02*
X138812969Y-93988866D01*
X138812969Y-93988866D02*
X138765350Y-93941247D01*
X138765350Y-93941247D02*
X138670112Y-93893628D01*
X138670112Y-93893628D02*
X138479636Y-93846009D01*
X138479636Y-93846009D02*
X138384398Y-93798390D01*
X138384398Y-93798390D02*
X138336779Y-93750771D01*
X138336779Y-93750771D02*
X138289160Y-93655533D01*
X138289160Y-93655533D02*
X138289160Y-93560295D01*
X138289160Y-93560295D02*
X138336779Y-93465057D01*
X138336779Y-93465057D02*
X138384398Y-93417438D01*
X138384398Y-93417438D02*
X138479636Y-93369819D01*
X138479636Y-93369819D02*
X138717731Y-93369819D01*
X138717731Y-93369819D02*
X138860588Y-93417438D01*
X139432017Y-94369819D02*
X139336779Y-94322200D01*
X139336779Y-94322200D02*
X139289160Y-94274580D01*
X139289160Y-94274580D02*
X139241541Y-94179342D01*
X139241541Y-94179342D02*
X139241541Y-93893628D01*
X139241541Y-93893628D02*
X139289160Y-93798390D01*
X139289160Y-93798390D02*
X139336779Y-93750771D01*
X139336779Y-93750771D02*
X139432017Y-93703152D01*
X139432017Y-93703152D02*
X139574874Y-93703152D01*
X139574874Y-93703152D02*
X139670112Y-93750771D01*
X139670112Y-93750771D02*
X139717731Y-93798390D01*
X139717731Y-93798390D02*
X139765350Y-93893628D01*
X139765350Y-93893628D02*
X139765350Y-94179342D01*
X139765350Y-94179342D02*
X139717731Y-94274580D01*
X139717731Y-94274580D02*
X139670112Y-94322200D01*
X139670112Y-94322200D02*
X139574874Y-94369819D01*
X139574874Y-94369819D02*
X139432017Y-94369819D01*
X140193922Y-93703152D02*
X140193922Y-94369819D01*
X140193922Y-93798390D02*
X140241541Y-93750771D01*
X140241541Y-93750771D02*
X140336779Y-93703152D01*
X140336779Y-93703152D02*
X140479636Y-93703152D01*
X140479636Y-93703152D02*
X140574874Y-93750771D01*
X140574874Y-93750771D02*
X140622493Y-93846009D01*
X140622493Y-93846009D02*
X140622493Y-94369819D01*
X141527255Y-94369819D02*
X141527255Y-93846009D01*
X141527255Y-93846009D02*
X141479636Y-93750771D01*
X141479636Y-93750771D02*
X141384398Y-93703152D01*
X141384398Y-93703152D02*
X141193922Y-93703152D01*
X141193922Y-93703152D02*
X141098684Y-93750771D01*
X141527255Y-94322200D02*
X141432017Y-94369819D01*
X141432017Y-94369819D02*
X141193922Y-94369819D01*
X141193922Y-94369819D02*
X141098684Y-94322200D01*
X141098684Y-94322200D02*
X141051065Y-94226961D01*
X141051065Y-94226961D02*
X141051065Y-94131723D01*
X141051065Y-94131723D02*
X141098684Y-94036485D01*
X141098684Y-94036485D02*
X141193922Y-93988866D01*
X141193922Y-93988866D02*
X141432017Y-93988866D01*
X141432017Y-93988866D02*
X141527255Y-93941247D01*
X142003446Y-94369819D02*
X142003446Y-93703152D01*
X142003446Y-93893628D02*
X142051065Y-93798390D01*
X142051065Y-93798390D02*
X142098684Y-93750771D01*
X142098684Y-93750771D02*
X142193922Y-93703152D01*
X142193922Y-93703152D02*
X142289160Y-93703152D01*
X143336780Y-93465057D02*
X143384399Y-93417438D01*
X143384399Y-93417438D02*
X143479637Y-93369819D01*
X143479637Y-93369819D02*
X143717732Y-93369819D01*
X143717732Y-93369819D02*
X143812970Y-93417438D01*
X143812970Y-93417438D02*
X143860589Y-93465057D01*
X143860589Y-93465057D02*
X143908208Y-93560295D01*
X143908208Y-93560295D02*
X143908208Y-93655533D01*
X143908208Y-93655533D02*
X143860589Y-93798390D01*
X143860589Y-93798390D02*
X143289161Y-94369819D01*
X143289161Y-94369819D02*
X143908208Y-94369819D01*
X139273922Y-98369819D02*
X139845350Y-98369819D01*
X139559636Y-99369819D02*
X139559636Y-98369819D01*
X141885350Y-98846009D02*
X142218683Y-98846009D01*
X142361540Y-99369819D02*
X141885350Y-99369819D01*
X141885350Y-99369819D02*
X141885350Y-98369819D01*
X141885350Y-98369819D02*
X142361540Y-98369819D01*
X143996778Y-98417438D02*
X143901540Y-98369819D01*
X143901540Y-98369819D02*
X143758683Y-98369819D01*
X143758683Y-98369819D02*
X143615826Y-98417438D01*
X143615826Y-98417438D02*
X143520588Y-98512676D01*
X143520588Y-98512676D02*
X143472969Y-98607914D01*
X143472969Y-98607914D02*
X143425350Y-98798390D01*
X143425350Y-98798390D02*
X143425350Y-98941247D01*
X143425350Y-98941247D02*
X143472969Y-99131723D01*
X143472969Y-99131723D02*
X143520588Y-99226961D01*
X143520588Y-99226961D02*
X143615826Y-99322200D01*
X143615826Y-99322200D02*
X143758683Y-99369819D01*
X143758683Y-99369819D02*
X143853921Y-99369819D01*
X143853921Y-99369819D02*
X143996778Y-99322200D01*
X143996778Y-99322200D02*
X144044397Y-99274580D01*
X144044397Y-99274580D02*
X144044397Y-98941247D01*
X144044397Y-98941247D02*
X143853921Y-98941247D01*
X144472969Y-98703152D02*
X144472969Y-99369819D01*
X144472969Y-98798390D02*
X144520588Y-98750771D01*
X144520588Y-98750771D02*
X144615826Y-98703152D01*
X144615826Y-98703152D02*
X144758683Y-98703152D01*
X144758683Y-98703152D02*
X144853921Y-98750771D01*
X144853921Y-98750771D02*
X144901540Y-98846009D01*
X144901540Y-98846009D02*
X144901540Y-99369819D01*
X145806302Y-99369819D02*
X145806302Y-98369819D01*
X145806302Y-99322200D02*
X145711064Y-99369819D01*
X145711064Y-99369819D02*
X145520588Y-99369819D01*
X145520588Y-99369819D02*
X145425350Y-99322200D01*
X145425350Y-99322200D02*
X145377731Y-99274580D01*
X145377731Y-99274580D02*
X145330112Y-99179342D01*
X145330112Y-99179342D02*
X145330112Y-98893628D01*
X145330112Y-98893628D02*
X145377731Y-98798390D01*
X145377731Y-98798390D02*
X145425350Y-98750771D01*
X145425350Y-98750771D02*
X145520588Y-98703152D01*
X145520588Y-98703152D02*
X145711064Y-98703152D01*
X145711064Y-98703152D02*
X145806302Y-98750771D01*
X146772970Y-98369819D02*
X147106303Y-99369819D01*
X147106303Y-99369819D02*
X147439636Y-98369819D01*
X148201541Y-99322200D02*
X148106303Y-99369819D01*
X148106303Y-99369819D02*
X147915827Y-99369819D01*
X147915827Y-99369819D02*
X147820589Y-99322200D01*
X147820589Y-99322200D02*
X147772970Y-99274580D01*
X147772970Y-99274580D02*
X147725351Y-99179342D01*
X147725351Y-99179342D02*
X147725351Y-98893628D01*
X147725351Y-98893628D02*
X147772970Y-98798390D01*
X147772970Y-98798390D02*
X147820589Y-98750771D01*
X147820589Y-98750771D02*
X147915827Y-98703152D01*
X147915827Y-98703152D02*
X148106303Y-98703152D01*
X148106303Y-98703152D02*
X148201541Y-98750771D01*
X149058684Y-99322200D02*
X148963446Y-99369819D01*
X148963446Y-99369819D02*
X148772970Y-99369819D01*
X148772970Y-99369819D02*
X148677732Y-99322200D01*
X148677732Y-99322200D02*
X148630113Y-99274580D01*
X148630113Y-99274580D02*
X148582494Y-99179342D01*
X148582494Y-99179342D02*
X148582494Y-98893628D01*
X148582494Y-98893628D02*
X148630113Y-98798390D01*
X148630113Y-98798390D02*
X148677732Y-98750771D01*
X148677732Y-98750771D02*
X148772970Y-98703152D01*
X148772970Y-98703152D02*
X148963446Y-98703152D01*
X148963446Y-98703152D02*
X149058684Y-98750771D01*
X149789160Y-94322200D02*
X149932017Y-94369819D01*
X149932017Y-94369819D02*
X150170112Y-94369819D01*
X150170112Y-94369819D02*
X150265350Y-94322200D01*
X150265350Y-94322200D02*
X150312969Y-94274580D01*
X150312969Y-94274580D02*
X150360588Y-94179342D01*
X150360588Y-94179342D02*
X150360588Y-94084104D01*
X150360588Y-94084104D02*
X150312969Y-93988866D01*
X150312969Y-93988866D02*
X150265350Y-93941247D01*
X150265350Y-93941247D02*
X150170112Y-93893628D01*
X150170112Y-93893628D02*
X149979636Y-93846009D01*
X149979636Y-93846009D02*
X149884398Y-93798390D01*
X149884398Y-93798390D02*
X149836779Y-93750771D01*
X149836779Y-93750771D02*
X149789160Y-93655533D01*
X149789160Y-93655533D02*
X149789160Y-93560295D01*
X149789160Y-93560295D02*
X149836779Y-93465057D01*
X149836779Y-93465057D02*
X149884398Y-93417438D01*
X149884398Y-93417438D02*
X149979636Y-93369819D01*
X149979636Y-93369819D02*
X150217731Y-93369819D01*
X150217731Y-93369819D02*
X150360588Y-93417438D01*
X150932017Y-94369819D02*
X150836779Y-94322200D01*
X150836779Y-94322200D02*
X150789160Y-94274580D01*
X150789160Y-94274580D02*
X150741541Y-94179342D01*
X150741541Y-94179342D02*
X150741541Y-93893628D01*
X150741541Y-93893628D02*
X150789160Y-93798390D01*
X150789160Y-93798390D02*
X150836779Y-93750771D01*
X150836779Y-93750771D02*
X150932017Y-93703152D01*
X150932017Y-93703152D02*
X151074874Y-93703152D01*
X151074874Y-93703152D02*
X151170112Y-93750771D01*
X151170112Y-93750771D02*
X151217731Y-93798390D01*
X151217731Y-93798390D02*
X151265350Y-93893628D01*
X151265350Y-93893628D02*
X151265350Y-94179342D01*
X151265350Y-94179342D02*
X151217731Y-94274580D01*
X151217731Y-94274580D02*
X151170112Y-94322200D01*
X151170112Y-94322200D02*
X151074874Y-94369819D01*
X151074874Y-94369819D02*
X150932017Y-94369819D01*
X151693922Y-93703152D02*
X151693922Y-94369819D01*
X151693922Y-93798390D02*
X151741541Y-93750771D01*
X151741541Y-93750771D02*
X151836779Y-93703152D01*
X151836779Y-93703152D02*
X151979636Y-93703152D01*
X151979636Y-93703152D02*
X152074874Y-93750771D01*
X152074874Y-93750771D02*
X152122493Y-93846009D01*
X152122493Y-93846009D02*
X152122493Y-94369819D01*
X153027255Y-94369819D02*
X153027255Y-93846009D01*
X153027255Y-93846009D02*
X152979636Y-93750771D01*
X152979636Y-93750771D02*
X152884398Y-93703152D01*
X152884398Y-93703152D02*
X152693922Y-93703152D01*
X152693922Y-93703152D02*
X152598684Y-93750771D01*
X153027255Y-94322200D02*
X152932017Y-94369819D01*
X152932017Y-94369819D02*
X152693922Y-94369819D01*
X152693922Y-94369819D02*
X152598684Y-94322200D01*
X152598684Y-94322200D02*
X152551065Y-94226961D01*
X152551065Y-94226961D02*
X152551065Y-94131723D01*
X152551065Y-94131723D02*
X152598684Y-94036485D01*
X152598684Y-94036485D02*
X152693922Y-93988866D01*
X152693922Y-93988866D02*
X152932017Y-93988866D01*
X152932017Y-93988866D02*
X153027255Y-93941247D01*
X153503446Y-94369819D02*
X153503446Y-93703152D01*
X153503446Y-93893628D02*
X153551065Y-93798390D01*
X153551065Y-93798390D02*
X153598684Y-93750771D01*
X153598684Y-93750771D02*
X153693922Y-93703152D01*
X153693922Y-93703152D02*
X153789160Y-93703152D01*
X154789161Y-93369819D02*
X155408208Y-93369819D01*
X155408208Y-93369819D02*
X155074875Y-93750771D01*
X155074875Y-93750771D02*
X155217732Y-93750771D01*
X155217732Y-93750771D02*
X155312970Y-93798390D01*
X155312970Y-93798390D02*
X155360589Y-93846009D01*
X155360589Y-93846009D02*
X155408208Y-93941247D01*
X155408208Y-93941247D02*
X155408208Y-94179342D01*
X155408208Y-94179342D02*
X155360589Y-94274580D01*
X155360589Y-94274580D02*
X155312970Y-94322200D01*
X155312970Y-94322200D02*
X155217732Y-94369819D01*
X155217732Y-94369819D02*
X154932018Y-94369819D01*
X154932018Y-94369819D02*
X154836780Y-94322200D01*
X154836780Y-94322200D02*
X154789161Y-94274580D01*
X150217732Y-98369819D02*
X150789160Y-98369819D01*
X150503446Y-99369819D02*
X150503446Y-98369819D01*
X152829160Y-98846009D02*
X153162493Y-98846009D01*
X153305350Y-99369819D02*
X152829160Y-99369819D01*
X152829160Y-99369819D02*
X152829160Y-98369819D01*
X152829160Y-98369819D02*
X153305350Y-98369819D01*
X154908207Y-52369819D02*
X154574874Y-51893628D01*
X154336779Y-52369819D02*
X154336779Y-51369819D01*
X154336779Y-51369819D02*
X154717731Y-51369819D01*
X154717731Y-51369819D02*
X154812969Y-51417438D01*
X154812969Y-51417438D02*
X154860588Y-51465057D01*
X154860588Y-51465057D02*
X154908207Y-51560295D01*
X154908207Y-51560295D02*
X154908207Y-51703152D01*
X154908207Y-51703152D02*
X154860588Y-51798390D01*
X154860588Y-51798390D02*
X154812969Y-51846009D01*
X154812969Y-51846009D02*
X154717731Y-51893628D01*
X154717731Y-51893628D02*
X154336779Y-51893628D01*
X155717731Y-52322200D02*
X155622493Y-52369819D01*
X155622493Y-52369819D02*
X155432017Y-52369819D01*
X155432017Y-52369819D02*
X155336779Y-52322200D01*
X155336779Y-52322200D02*
X155289160Y-52226961D01*
X155289160Y-52226961D02*
X155289160Y-51846009D01*
X155289160Y-51846009D02*
X155336779Y-51750771D01*
X155336779Y-51750771D02*
X155432017Y-51703152D01*
X155432017Y-51703152D02*
X155622493Y-51703152D01*
X155622493Y-51703152D02*
X155717731Y-51750771D01*
X155717731Y-51750771D02*
X155765350Y-51846009D01*
X155765350Y-51846009D02*
X155765350Y-51941247D01*
X155765350Y-51941247D02*
X155289160Y-52036485D01*
X156098684Y-51703152D02*
X156336779Y-52369819D01*
X156336779Y-52369819D02*
X156574874Y-51703152D01*
X158241541Y-52369819D02*
X157670113Y-52369819D01*
X157955827Y-52369819D02*
X157955827Y-51369819D01*
X157955827Y-51369819D02*
X157860589Y-51512676D01*
X157860589Y-51512676D02*
X157765351Y-51607914D01*
X157765351Y-51607914D02*
X157670113Y-51655533D01*
X154940588Y-98417438D02*
X154845350Y-98369819D01*
X154845350Y-98369819D02*
X154702493Y-98369819D01*
X154702493Y-98369819D02*
X154559636Y-98417438D01*
X154559636Y-98417438D02*
X154464398Y-98512676D01*
X154464398Y-98512676D02*
X154416779Y-98607914D01*
X154416779Y-98607914D02*
X154369160Y-98798390D01*
X154369160Y-98798390D02*
X154369160Y-98941247D01*
X154369160Y-98941247D02*
X154416779Y-99131723D01*
X154416779Y-99131723D02*
X154464398Y-99226961D01*
X154464398Y-99226961D02*
X154559636Y-99322200D01*
X154559636Y-99322200D02*
X154702493Y-99369819D01*
X154702493Y-99369819D02*
X154797731Y-99369819D01*
X154797731Y-99369819D02*
X154940588Y-99322200D01*
X154940588Y-99322200D02*
X154988207Y-99274580D01*
X154988207Y-99274580D02*
X154988207Y-98941247D01*
X154988207Y-98941247D02*
X154797731Y-98941247D01*
X155416779Y-98703152D02*
X155416779Y-99369819D01*
X155416779Y-98798390D02*
X155464398Y-98750771D01*
X155464398Y-98750771D02*
X155559636Y-98703152D01*
X155559636Y-98703152D02*
X155702493Y-98703152D01*
X155702493Y-98703152D02*
X155797731Y-98750771D01*
X155797731Y-98750771D02*
X155845350Y-98846009D01*
X155845350Y-98846009D02*
X155845350Y-99369819D01*
X156750112Y-99369819D02*
X156750112Y-98369819D01*
X156750112Y-99322200D02*
X156654874Y-99369819D01*
X156654874Y-99369819D02*
X156464398Y-99369819D01*
X156464398Y-99369819D02*
X156369160Y-99322200D01*
X156369160Y-99322200D02*
X156321541Y-99274580D01*
X156321541Y-99274580D02*
X156273922Y-99179342D01*
X156273922Y-99179342D02*
X156273922Y-98893628D01*
X156273922Y-98893628D02*
X156321541Y-98798390D01*
X156321541Y-98798390D02*
X156369160Y-98750771D01*
X156369160Y-98750771D02*
X156464398Y-98703152D01*
X156464398Y-98703152D02*
X156654874Y-98703152D01*
X156654874Y-98703152D02*
X156750112Y-98750771D01*
X158846009Y-61329887D02*
X158846009Y-61663220D01*
X159369819Y-61663220D02*
X158369819Y-61663220D01*
X158369819Y-61663220D02*
X158369819Y-61187030D01*
X159369819Y-60329887D02*
X159369819Y-60806077D01*
X159369819Y-60806077D02*
X158369819Y-60806077D01*
X158846009Y-59234648D02*
X158846009Y-58901315D01*
X159369819Y-58758458D02*
X159369819Y-59234648D01*
X159369819Y-59234648D02*
X158369819Y-59234648D01*
X158369819Y-59234648D02*
X158369819Y-58758458D01*
X158703152Y-58329886D02*
X159369819Y-58329886D01*
X158798390Y-58329886D02*
X158750771Y-58282267D01*
X158750771Y-58282267D02*
X158703152Y-58187029D01*
X158703152Y-58187029D02*
X158703152Y-58044172D01*
X158703152Y-58044172D02*
X158750771Y-57948934D01*
X158750771Y-57948934D02*
X158846009Y-57901315D01*
X158846009Y-57901315D02*
X159369819Y-57901315D01*
X159322200Y-56996553D02*
X159369819Y-57091791D01*
X159369819Y-57091791D02*
X159369819Y-57282267D01*
X159369819Y-57282267D02*
X159322200Y-57377505D01*
X159322200Y-57377505D02*
X159274580Y-57425124D01*
X159274580Y-57425124D02*
X159179342Y-57472743D01*
X159179342Y-57472743D02*
X158893628Y-57472743D01*
X158893628Y-57472743D02*
X158798390Y-57425124D01*
X158798390Y-57425124D02*
X158750771Y-57377505D01*
X158750771Y-57377505D02*
X158703152Y-57282267D01*
X158703152Y-57282267D02*
X158703152Y-57091791D01*
X158703152Y-57091791D02*
X158750771Y-56996553D01*
X159369819Y-56425124D02*
X159322200Y-56520362D01*
X159322200Y-56520362D02*
X159274580Y-56567981D01*
X159274580Y-56567981D02*
X159179342Y-56615600D01*
X159179342Y-56615600D02*
X158893628Y-56615600D01*
X158893628Y-56615600D02*
X158798390Y-56567981D01*
X158798390Y-56567981D02*
X158750771Y-56520362D01*
X158750771Y-56520362D02*
X158703152Y-56425124D01*
X158703152Y-56425124D02*
X158703152Y-56282267D01*
X158703152Y-56282267D02*
X158750771Y-56187029D01*
X158750771Y-56187029D02*
X158798390Y-56139410D01*
X158798390Y-56139410D02*
X158893628Y-56091791D01*
X158893628Y-56091791D02*
X159179342Y-56091791D01*
X159179342Y-56091791D02*
X159274580Y-56139410D01*
X159274580Y-56139410D02*
X159322200Y-56187029D01*
X159322200Y-56187029D02*
X159369819Y-56282267D01*
X159369819Y-56282267D02*
X159369819Y-56425124D01*
X159369819Y-55234648D02*
X158369819Y-55234648D01*
X159322200Y-55234648D02*
X159369819Y-55329886D01*
X159369819Y-55329886D02*
X159369819Y-55520362D01*
X159369819Y-55520362D02*
X159322200Y-55615600D01*
X159322200Y-55615600D02*
X159274580Y-55663219D01*
X159274580Y-55663219D02*
X159179342Y-55710838D01*
X159179342Y-55710838D02*
X158893628Y-55710838D01*
X158893628Y-55710838D02*
X158798390Y-55663219D01*
X158798390Y-55663219D02*
X158750771Y-55615600D01*
X158750771Y-55615600D02*
X158703152Y-55520362D01*
X158703152Y-55520362D02*
X158703152Y-55329886D01*
X158703152Y-55329886D02*
X158750771Y-55234648D01*
X159322200Y-54377505D02*
X159369819Y-54472743D01*
X159369819Y-54472743D02*
X159369819Y-54663219D01*
X159369819Y-54663219D02*
X159322200Y-54758457D01*
X159322200Y-54758457D02*
X159226961Y-54806076D01*
X159226961Y-54806076D02*
X158846009Y-54806076D01*
X158846009Y-54806076D02*
X158750771Y-54758457D01*
X158750771Y-54758457D02*
X158703152Y-54663219D01*
X158703152Y-54663219D02*
X158703152Y-54472743D01*
X158703152Y-54472743D02*
X158750771Y-54377505D01*
X158750771Y-54377505D02*
X158846009Y-54329886D01*
X158846009Y-54329886D02*
X158941247Y-54329886D01*
X158941247Y-54329886D02*
X159036485Y-54806076D01*
X159369819Y-53901314D02*
X158703152Y-53901314D01*
X158893628Y-53901314D02*
X158798390Y-53853695D01*
X158798390Y-53853695D02*
X158750771Y-53806076D01*
X158750771Y-53806076D02*
X158703152Y-53710838D01*
X158703152Y-53710838D02*
X158703152Y-53615600D01*
X158846009Y-71329887D02*
X158846009Y-71663220D01*
X159369819Y-71663220D02*
X158369819Y-71663220D01*
X158369819Y-71663220D02*
X158369819Y-71187030D01*
X159369819Y-70234649D02*
X158893628Y-70567982D01*
X159369819Y-70806077D02*
X158369819Y-70806077D01*
X158369819Y-70806077D02*
X158369819Y-70425125D01*
X158369819Y-70425125D02*
X158417438Y-70329887D01*
X158417438Y-70329887D02*
X158465057Y-70282268D01*
X158465057Y-70282268D02*
X158560295Y-70234649D01*
X158560295Y-70234649D02*
X158703152Y-70234649D01*
X158703152Y-70234649D02*
X158798390Y-70282268D01*
X158798390Y-70282268D02*
X158846009Y-70329887D01*
X158846009Y-70329887D02*
X158893628Y-70425125D01*
X158893628Y-70425125D02*
X158893628Y-70806077D01*
X158846009Y-69044172D02*
X158846009Y-68710839D01*
X159369819Y-68567982D02*
X159369819Y-69044172D01*
X159369819Y-69044172D02*
X158369819Y-69044172D01*
X158369819Y-69044172D02*
X158369819Y-68567982D01*
X158703152Y-68139410D02*
X159369819Y-68139410D01*
X158798390Y-68139410D02*
X158750771Y-68091791D01*
X158750771Y-68091791D02*
X158703152Y-67996553D01*
X158703152Y-67996553D02*
X158703152Y-67853696D01*
X158703152Y-67853696D02*
X158750771Y-67758458D01*
X158750771Y-67758458D02*
X158846009Y-67710839D01*
X158846009Y-67710839D02*
X159369819Y-67710839D01*
X159322200Y-66806077D02*
X159369819Y-66901315D01*
X159369819Y-66901315D02*
X159369819Y-67091791D01*
X159369819Y-67091791D02*
X159322200Y-67187029D01*
X159322200Y-67187029D02*
X159274580Y-67234648D01*
X159274580Y-67234648D02*
X159179342Y-67282267D01*
X159179342Y-67282267D02*
X158893628Y-67282267D01*
X158893628Y-67282267D02*
X158798390Y-67234648D01*
X158798390Y-67234648D02*
X158750771Y-67187029D01*
X158750771Y-67187029D02*
X158703152Y-67091791D01*
X158703152Y-67091791D02*
X158703152Y-66901315D01*
X158703152Y-66901315D02*
X158750771Y-66806077D01*
X159369819Y-66234648D02*
X159322200Y-66329886D01*
X159322200Y-66329886D02*
X159274580Y-66377505D01*
X159274580Y-66377505D02*
X159179342Y-66425124D01*
X159179342Y-66425124D02*
X158893628Y-66425124D01*
X158893628Y-66425124D02*
X158798390Y-66377505D01*
X158798390Y-66377505D02*
X158750771Y-66329886D01*
X158750771Y-66329886D02*
X158703152Y-66234648D01*
X158703152Y-66234648D02*
X158703152Y-66091791D01*
X158703152Y-66091791D02*
X158750771Y-65996553D01*
X158750771Y-65996553D02*
X158798390Y-65948934D01*
X158798390Y-65948934D02*
X158893628Y-65901315D01*
X158893628Y-65901315D02*
X159179342Y-65901315D01*
X159179342Y-65901315D02*
X159274580Y-65948934D01*
X159274580Y-65948934D02*
X159322200Y-65996553D01*
X159322200Y-65996553D02*
X159369819Y-66091791D01*
X159369819Y-66091791D02*
X159369819Y-66234648D01*
X159369819Y-65044172D02*
X158369819Y-65044172D01*
X159322200Y-65044172D02*
X159369819Y-65139410D01*
X159369819Y-65139410D02*
X159369819Y-65329886D01*
X159369819Y-65329886D02*
X159322200Y-65425124D01*
X159322200Y-65425124D02*
X159274580Y-65472743D01*
X159274580Y-65472743D02*
X159179342Y-65520362D01*
X159179342Y-65520362D02*
X158893628Y-65520362D01*
X158893628Y-65520362D02*
X158798390Y-65472743D01*
X158798390Y-65472743D02*
X158750771Y-65425124D01*
X158750771Y-65425124D02*
X158703152Y-65329886D01*
X158703152Y-65329886D02*
X158703152Y-65139410D01*
X158703152Y-65139410D02*
X158750771Y-65044172D01*
X159322200Y-64187029D02*
X159369819Y-64282267D01*
X159369819Y-64282267D02*
X159369819Y-64472743D01*
X159369819Y-64472743D02*
X159322200Y-64567981D01*
X159322200Y-64567981D02*
X159226961Y-64615600D01*
X159226961Y-64615600D02*
X158846009Y-64615600D01*
X158846009Y-64615600D02*
X158750771Y-64567981D01*
X158750771Y-64567981D02*
X158703152Y-64472743D01*
X158703152Y-64472743D02*
X158703152Y-64282267D01*
X158703152Y-64282267D02*
X158750771Y-64187029D01*
X158750771Y-64187029D02*
X158846009Y-64139410D01*
X158846009Y-64139410D02*
X158941247Y-64139410D01*
X158941247Y-64139410D02*
X159036485Y-64615600D01*
X159369819Y-63710838D02*
X158703152Y-63710838D01*
X158893628Y-63710838D02*
X158798390Y-63663219D01*
X158798390Y-63663219D02*
X158750771Y-63615600D01*
X158750771Y-63615600D02*
X158703152Y-63520362D01*
X158703152Y-63520362D02*
X158703152Y-63425124D01*
X159369819Y-81091792D02*
X158893628Y-81425125D01*
X159369819Y-81663220D02*
X158369819Y-81663220D01*
X158369819Y-81663220D02*
X158369819Y-81282268D01*
X158369819Y-81282268D02*
X158417438Y-81187030D01*
X158417438Y-81187030D02*
X158465057Y-81139411D01*
X158465057Y-81139411D02*
X158560295Y-81091792D01*
X158560295Y-81091792D02*
X158703152Y-81091792D01*
X158703152Y-81091792D02*
X158798390Y-81139411D01*
X158798390Y-81139411D02*
X158846009Y-81187030D01*
X158846009Y-81187030D02*
X158893628Y-81282268D01*
X158893628Y-81282268D02*
X158893628Y-81663220D01*
X159369819Y-80187030D02*
X159369819Y-80663220D01*
X159369819Y-80663220D02*
X158369819Y-80663220D01*
X158846009Y-79091791D02*
X158846009Y-78758458D01*
X159369819Y-78615601D02*
X159369819Y-79091791D01*
X159369819Y-79091791D02*
X158369819Y-79091791D01*
X158369819Y-79091791D02*
X158369819Y-78615601D01*
X158703152Y-78187029D02*
X159369819Y-78187029D01*
X158798390Y-78187029D02*
X158750771Y-78139410D01*
X158750771Y-78139410D02*
X158703152Y-78044172D01*
X158703152Y-78044172D02*
X158703152Y-77901315D01*
X158703152Y-77901315D02*
X158750771Y-77806077D01*
X158750771Y-77806077D02*
X158846009Y-77758458D01*
X158846009Y-77758458D02*
X159369819Y-77758458D01*
X159322200Y-76853696D02*
X159369819Y-76948934D01*
X159369819Y-76948934D02*
X159369819Y-77139410D01*
X159369819Y-77139410D02*
X159322200Y-77234648D01*
X159322200Y-77234648D02*
X159274580Y-77282267D01*
X159274580Y-77282267D02*
X159179342Y-77329886D01*
X159179342Y-77329886D02*
X158893628Y-77329886D01*
X158893628Y-77329886D02*
X158798390Y-77282267D01*
X158798390Y-77282267D02*
X158750771Y-77234648D01*
X158750771Y-77234648D02*
X158703152Y-77139410D01*
X158703152Y-77139410D02*
X158703152Y-76948934D01*
X158703152Y-76948934D02*
X158750771Y-76853696D01*
X159369819Y-76282267D02*
X159322200Y-76377505D01*
X159322200Y-76377505D02*
X159274580Y-76425124D01*
X159274580Y-76425124D02*
X159179342Y-76472743D01*
X159179342Y-76472743D02*
X158893628Y-76472743D01*
X158893628Y-76472743D02*
X158798390Y-76425124D01*
X158798390Y-76425124D02*
X158750771Y-76377505D01*
X158750771Y-76377505D02*
X158703152Y-76282267D01*
X158703152Y-76282267D02*
X158703152Y-76139410D01*
X158703152Y-76139410D02*
X158750771Y-76044172D01*
X158750771Y-76044172D02*
X158798390Y-75996553D01*
X158798390Y-75996553D02*
X158893628Y-75948934D01*
X158893628Y-75948934D02*
X159179342Y-75948934D01*
X159179342Y-75948934D02*
X159274580Y-75996553D01*
X159274580Y-75996553D02*
X159322200Y-76044172D01*
X159322200Y-76044172D02*
X159369819Y-76139410D01*
X159369819Y-76139410D02*
X159369819Y-76282267D01*
X159369819Y-75091791D02*
X158369819Y-75091791D01*
X159322200Y-75091791D02*
X159369819Y-75187029D01*
X159369819Y-75187029D02*
X159369819Y-75377505D01*
X159369819Y-75377505D02*
X159322200Y-75472743D01*
X159322200Y-75472743D02*
X159274580Y-75520362D01*
X159274580Y-75520362D02*
X159179342Y-75567981D01*
X159179342Y-75567981D02*
X158893628Y-75567981D01*
X158893628Y-75567981D02*
X158798390Y-75520362D01*
X158798390Y-75520362D02*
X158750771Y-75472743D01*
X158750771Y-75472743D02*
X158703152Y-75377505D01*
X158703152Y-75377505D02*
X158703152Y-75187029D01*
X158703152Y-75187029D02*
X158750771Y-75091791D01*
X159322200Y-74234648D02*
X159369819Y-74329886D01*
X159369819Y-74329886D02*
X159369819Y-74520362D01*
X159369819Y-74520362D02*
X159322200Y-74615600D01*
X159322200Y-74615600D02*
X159226961Y-74663219D01*
X159226961Y-74663219D02*
X158846009Y-74663219D01*
X158846009Y-74663219D02*
X158750771Y-74615600D01*
X158750771Y-74615600D02*
X158703152Y-74520362D01*
X158703152Y-74520362D02*
X158703152Y-74329886D01*
X158703152Y-74329886D02*
X158750771Y-74234648D01*
X158750771Y-74234648D02*
X158846009Y-74187029D01*
X158846009Y-74187029D02*
X158941247Y-74187029D01*
X158941247Y-74187029D02*
X159036485Y-74663219D01*
X159369819Y-73758457D02*
X158703152Y-73758457D01*
X158893628Y-73758457D02*
X158798390Y-73710838D01*
X158798390Y-73710838D02*
X158750771Y-73663219D01*
X158750771Y-73663219D02*
X158703152Y-73567981D01*
X158703152Y-73567981D02*
X158703152Y-73472743D01*
X159369819Y-91091792D02*
X158893628Y-91425125D01*
X159369819Y-91663220D02*
X158369819Y-91663220D01*
X158369819Y-91663220D02*
X158369819Y-91282268D01*
X158369819Y-91282268D02*
X158417438Y-91187030D01*
X158417438Y-91187030D02*
X158465057Y-91139411D01*
X158465057Y-91139411D02*
X158560295Y-91091792D01*
X158560295Y-91091792D02*
X158703152Y-91091792D01*
X158703152Y-91091792D02*
X158798390Y-91139411D01*
X158798390Y-91139411D02*
X158846009Y-91187030D01*
X158846009Y-91187030D02*
X158893628Y-91282268D01*
X158893628Y-91282268D02*
X158893628Y-91663220D01*
X159369819Y-90091792D02*
X158893628Y-90425125D01*
X159369819Y-90663220D02*
X158369819Y-90663220D01*
X158369819Y-90663220D02*
X158369819Y-90282268D01*
X158369819Y-90282268D02*
X158417438Y-90187030D01*
X158417438Y-90187030D02*
X158465057Y-90139411D01*
X158465057Y-90139411D02*
X158560295Y-90091792D01*
X158560295Y-90091792D02*
X158703152Y-90091792D01*
X158703152Y-90091792D02*
X158798390Y-90139411D01*
X158798390Y-90139411D02*
X158846009Y-90187030D01*
X158846009Y-90187030D02*
X158893628Y-90282268D01*
X158893628Y-90282268D02*
X158893628Y-90663220D01*
X158846009Y-88901315D02*
X158846009Y-88567982D01*
X159369819Y-88425125D02*
X159369819Y-88901315D01*
X159369819Y-88901315D02*
X158369819Y-88901315D01*
X158369819Y-88901315D02*
X158369819Y-88425125D01*
X158703152Y-87996553D02*
X159369819Y-87996553D01*
X158798390Y-87996553D02*
X158750771Y-87948934D01*
X158750771Y-87948934D02*
X158703152Y-87853696D01*
X158703152Y-87853696D02*
X158703152Y-87710839D01*
X158703152Y-87710839D02*
X158750771Y-87615601D01*
X158750771Y-87615601D02*
X158846009Y-87567982D01*
X158846009Y-87567982D02*
X159369819Y-87567982D01*
X159322200Y-86663220D02*
X159369819Y-86758458D01*
X159369819Y-86758458D02*
X159369819Y-86948934D01*
X159369819Y-86948934D02*
X159322200Y-87044172D01*
X159322200Y-87044172D02*
X159274580Y-87091791D01*
X159274580Y-87091791D02*
X159179342Y-87139410D01*
X159179342Y-87139410D02*
X158893628Y-87139410D01*
X158893628Y-87139410D02*
X158798390Y-87091791D01*
X158798390Y-87091791D02*
X158750771Y-87044172D01*
X158750771Y-87044172D02*
X158703152Y-86948934D01*
X158703152Y-86948934D02*
X158703152Y-86758458D01*
X158703152Y-86758458D02*
X158750771Y-86663220D01*
X159369819Y-86091791D02*
X159322200Y-86187029D01*
X159322200Y-86187029D02*
X159274580Y-86234648D01*
X159274580Y-86234648D02*
X159179342Y-86282267D01*
X159179342Y-86282267D02*
X158893628Y-86282267D01*
X158893628Y-86282267D02*
X158798390Y-86234648D01*
X158798390Y-86234648D02*
X158750771Y-86187029D01*
X158750771Y-86187029D02*
X158703152Y-86091791D01*
X158703152Y-86091791D02*
X158703152Y-85948934D01*
X158703152Y-85948934D02*
X158750771Y-85853696D01*
X158750771Y-85853696D02*
X158798390Y-85806077D01*
X158798390Y-85806077D02*
X158893628Y-85758458D01*
X158893628Y-85758458D02*
X159179342Y-85758458D01*
X159179342Y-85758458D02*
X159274580Y-85806077D01*
X159274580Y-85806077D02*
X159322200Y-85853696D01*
X159322200Y-85853696D02*
X159369819Y-85948934D01*
X159369819Y-85948934D02*
X159369819Y-86091791D01*
X159369819Y-84901315D02*
X158369819Y-84901315D01*
X159322200Y-84901315D02*
X159369819Y-84996553D01*
X159369819Y-84996553D02*
X159369819Y-85187029D01*
X159369819Y-85187029D02*
X159322200Y-85282267D01*
X159322200Y-85282267D02*
X159274580Y-85329886D01*
X159274580Y-85329886D02*
X159179342Y-85377505D01*
X159179342Y-85377505D02*
X158893628Y-85377505D01*
X158893628Y-85377505D02*
X158798390Y-85329886D01*
X158798390Y-85329886D02*
X158750771Y-85282267D01*
X158750771Y-85282267D02*
X158703152Y-85187029D01*
X158703152Y-85187029D02*
X158703152Y-84996553D01*
X158703152Y-84996553D02*
X158750771Y-84901315D01*
X159322200Y-84044172D02*
X159369819Y-84139410D01*
X159369819Y-84139410D02*
X159369819Y-84329886D01*
X159369819Y-84329886D02*
X159322200Y-84425124D01*
X159322200Y-84425124D02*
X159226961Y-84472743D01*
X159226961Y-84472743D02*
X158846009Y-84472743D01*
X158846009Y-84472743D02*
X158750771Y-84425124D01*
X158750771Y-84425124D02*
X158703152Y-84329886D01*
X158703152Y-84329886D02*
X158703152Y-84139410D01*
X158703152Y-84139410D02*
X158750771Y-84044172D01*
X158750771Y-84044172D02*
X158846009Y-83996553D01*
X158846009Y-83996553D02*
X158941247Y-83996553D01*
X158941247Y-83996553D02*
X159036485Y-84472743D01*
X159369819Y-83567981D02*
X158703152Y-83567981D01*
X158893628Y-83567981D02*
X158798390Y-83520362D01*
X158798390Y-83520362D02*
X158750771Y-83472743D01*
X158750771Y-83472743D02*
X158703152Y-83377505D01*
X158703152Y-83377505D02*
X158703152Y-83282267D01*
X163369819Y-56306077D02*
X164369819Y-55972744D01*
X164369819Y-55972744D02*
X163369819Y-55639411D01*
X164322200Y-54877506D02*
X164369819Y-54972744D01*
X164369819Y-54972744D02*
X164369819Y-55163220D01*
X164369819Y-55163220D02*
X164322200Y-55258458D01*
X164322200Y-55258458D02*
X164274580Y-55306077D01*
X164274580Y-55306077D02*
X164179342Y-55353696D01*
X164179342Y-55353696D02*
X163893628Y-55353696D01*
X163893628Y-55353696D02*
X163798390Y-55306077D01*
X163798390Y-55306077D02*
X163750771Y-55258458D01*
X163750771Y-55258458D02*
X163703152Y-55163220D01*
X163703152Y-55163220D02*
X163703152Y-54972744D01*
X163703152Y-54972744D02*
X163750771Y-54877506D01*
X164322200Y-54020363D02*
X164369819Y-54115601D01*
X164369819Y-54115601D02*
X164369819Y-54306077D01*
X164369819Y-54306077D02*
X164322200Y-54401315D01*
X164322200Y-54401315D02*
X164274580Y-54448934D01*
X164274580Y-54448934D02*
X164179342Y-54496553D01*
X164179342Y-54496553D02*
X163893628Y-54496553D01*
X163893628Y-54496553D02*
X163798390Y-54448934D01*
X163798390Y-54448934D02*
X163750771Y-54401315D01*
X163750771Y-54401315D02*
X163703152Y-54306077D01*
X163703152Y-54306077D02*
X163703152Y-54115601D01*
X163703152Y-54115601D02*
X163750771Y-54020363D01*
X163417438Y-58639411D02*
X163369819Y-58734649D01*
X163369819Y-58734649D02*
X163369819Y-58877506D01*
X163369819Y-58877506D02*
X163417438Y-59020363D01*
X163417438Y-59020363D02*
X163512676Y-59115601D01*
X163512676Y-59115601D02*
X163607914Y-59163220D01*
X163607914Y-59163220D02*
X163798390Y-59210839D01*
X163798390Y-59210839D02*
X163941247Y-59210839D01*
X163941247Y-59210839D02*
X164131723Y-59163220D01*
X164131723Y-59163220D02*
X164226961Y-59115601D01*
X164226961Y-59115601D02*
X164322200Y-59020363D01*
X164322200Y-59020363D02*
X164369819Y-58877506D01*
X164369819Y-58877506D02*
X164369819Y-58782268D01*
X164369819Y-58782268D02*
X164322200Y-58639411D01*
X164322200Y-58639411D02*
X164274580Y-58591792D01*
X164274580Y-58591792D02*
X163941247Y-58591792D01*
X163941247Y-58591792D02*
X163941247Y-58782268D01*
X163703152Y-58163220D02*
X164369819Y-58163220D01*
X163798390Y-58163220D02*
X163750771Y-58115601D01*
X163750771Y-58115601D02*
X163703152Y-58020363D01*
X163703152Y-58020363D02*
X163703152Y-57877506D01*
X163703152Y-57877506D02*
X163750771Y-57782268D01*
X163750771Y-57782268D02*
X163846009Y-57734649D01*
X163846009Y-57734649D02*
X164369819Y-57734649D01*
X164369819Y-56829887D02*
X163369819Y-56829887D01*
X164322200Y-56829887D02*
X164369819Y-56925125D01*
X164369819Y-56925125D02*
X164369819Y-57115601D01*
X164369819Y-57115601D02*
X164322200Y-57210839D01*
X164322200Y-57210839D02*
X164274580Y-57258458D01*
X164274580Y-57258458D02*
X164179342Y-57306077D01*
X164179342Y-57306077D02*
X163893628Y-57306077D01*
X163893628Y-57306077D02*
X163798390Y-57258458D01*
X163798390Y-57258458D02*
X163750771Y-57210839D01*
X163750771Y-57210839D02*
X163703152Y-57115601D01*
X163703152Y-57115601D02*
X163703152Y-56925125D01*
X163703152Y-56925125D02*
X163750771Y-56829887D01*
X164369819Y-61663220D02*
X163369819Y-61663220D01*
X163369819Y-61663220D02*
X163369819Y-61425125D01*
X163369819Y-61425125D02*
X163417438Y-61282268D01*
X163417438Y-61282268D02*
X163512676Y-61187030D01*
X163512676Y-61187030D02*
X163607914Y-61139411D01*
X163607914Y-61139411D02*
X163798390Y-61091792D01*
X163798390Y-61091792D02*
X163941247Y-61091792D01*
X163941247Y-61091792D02*
X164131723Y-61139411D01*
X164131723Y-61139411D02*
X164226961Y-61187030D01*
X164226961Y-61187030D02*
X164322200Y-61282268D01*
X164322200Y-61282268D02*
X164369819Y-61425125D01*
X164369819Y-61425125D02*
X164369819Y-61663220D01*
X163369819Y-60472744D02*
X163369819Y-60282268D01*
X163369819Y-60282268D02*
X163417438Y-60187030D01*
X163417438Y-60187030D02*
X163512676Y-60091792D01*
X163512676Y-60091792D02*
X163703152Y-60044173D01*
X163703152Y-60044173D02*
X164036485Y-60044173D01*
X164036485Y-60044173D02*
X164226961Y-60091792D01*
X164226961Y-60091792D02*
X164322200Y-60187030D01*
X164322200Y-60187030D02*
X164369819Y-60282268D01*
X164369819Y-60282268D02*
X164369819Y-60472744D01*
X164369819Y-60472744D02*
X164322200Y-60567982D01*
X164322200Y-60567982D02*
X164226961Y-60663220D01*
X164226961Y-60663220D02*
X164036485Y-60710839D01*
X164036485Y-60710839D02*
X163703152Y-60710839D01*
X163703152Y-60710839D02*
X163512676Y-60663220D01*
X163512676Y-60663220D02*
X163417438Y-60567982D01*
X163417438Y-60567982D02*
X163369819Y-60472744D01*
X163369819Y-66306077D02*
X164369819Y-65972744D01*
X164369819Y-65972744D02*
X163369819Y-65639411D01*
X164322200Y-64877506D02*
X164369819Y-64972744D01*
X164369819Y-64972744D02*
X164369819Y-65163220D01*
X164369819Y-65163220D02*
X164322200Y-65258458D01*
X164322200Y-65258458D02*
X164274580Y-65306077D01*
X164274580Y-65306077D02*
X164179342Y-65353696D01*
X164179342Y-65353696D02*
X163893628Y-65353696D01*
X163893628Y-65353696D02*
X163798390Y-65306077D01*
X163798390Y-65306077D02*
X163750771Y-65258458D01*
X163750771Y-65258458D02*
X163703152Y-65163220D01*
X163703152Y-65163220D02*
X163703152Y-64972744D01*
X163703152Y-64972744D02*
X163750771Y-64877506D01*
X164322200Y-64020363D02*
X164369819Y-64115601D01*
X164369819Y-64115601D02*
X164369819Y-64306077D01*
X164369819Y-64306077D02*
X164322200Y-64401315D01*
X164322200Y-64401315D02*
X164274580Y-64448934D01*
X164274580Y-64448934D02*
X164179342Y-64496553D01*
X164179342Y-64496553D02*
X163893628Y-64496553D01*
X163893628Y-64496553D02*
X163798390Y-64448934D01*
X163798390Y-64448934D02*
X163750771Y-64401315D01*
X163750771Y-64401315D02*
X163703152Y-64306077D01*
X163703152Y-64306077D02*
X163703152Y-64115601D01*
X163703152Y-64115601D02*
X163750771Y-64020363D01*
X163417438Y-68639411D02*
X163369819Y-68734649D01*
X163369819Y-68734649D02*
X163369819Y-68877506D01*
X163369819Y-68877506D02*
X163417438Y-69020363D01*
X163417438Y-69020363D02*
X163512676Y-69115601D01*
X163512676Y-69115601D02*
X163607914Y-69163220D01*
X163607914Y-69163220D02*
X163798390Y-69210839D01*
X163798390Y-69210839D02*
X163941247Y-69210839D01*
X163941247Y-69210839D02*
X164131723Y-69163220D01*
X164131723Y-69163220D02*
X164226961Y-69115601D01*
X164226961Y-69115601D02*
X164322200Y-69020363D01*
X164322200Y-69020363D02*
X164369819Y-68877506D01*
X164369819Y-68877506D02*
X164369819Y-68782268D01*
X164369819Y-68782268D02*
X164322200Y-68639411D01*
X164322200Y-68639411D02*
X164274580Y-68591792D01*
X164274580Y-68591792D02*
X163941247Y-68591792D01*
X163941247Y-68591792D02*
X163941247Y-68782268D01*
X163703152Y-68163220D02*
X164369819Y-68163220D01*
X163798390Y-68163220D02*
X163750771Y-68115601D01*
X163750771Y-68115601D02*
X163703152Y-68020363D01*
X163703152Y-68020363D02*
X163703152Y-67877506D01*
X163703152Y-67877506D02*
X163750771Y-67782268D01*
X163750771Y-67782268D02*
X163846009Y-67734649D01*
X163846009Y-67734649D02*
X164369819Y-67734649D01*
X164369819Y-66829887D02*
X163369819Y-66829887D01*
X164322200Y-66829887D02*
X164369819Y-66925125D01*
X164369819Y-66925125D02*
X164369819Y-67115601D01*
X164369819Y-67115601D02*
X164322200Y-67210839D01*
X164322200Y-67210839D02*
X164274580Y-67258458D01*
X164274580Y-67258458D02*
X164179342Y-67306077D01*
X164179342Y-67306077D02*
X163893628Y-67306077D01*
X163893628Y-67306077D02*
X163798390Y-67258458D01*
X163798390Y-67258458D02*
X163750771Y-67210839D01*
X163750771Y-67210839D02*
X163703152Y-67115601D01*
X163703152Y-67115601D02*
X163703152Y-66925125D01*
X163703152Y-66925125D02*
X163750771Y-66829887D01*
X164369819Y-71663220D02*
X163369819Y-71663220D01*
X163369819Y-71663220D02*
X163369819Y-71425125D01*
X163369819Y-71425125D02*
X163417438Y-71282268D01*
X163417438Y-71282268D02*
X163512676Y-71187030D01*
X163512676Y-71187030D02*
X163607914Y-71139411D01*
X163607914Y-71139411D02*
X163798390Y-71091792D01*
X163798390Y-71091792D02*
X163941247Y-71091792D01*
X163941247Y-71091792D02*
X164131723Y-71139411D01*
X164131723Y-71139411D02*
X164226961Y-71187030D01*
X164226961Y-71187030D02*
X164322200Y-71282268D01*
X164322200Y-71282268D02*
X164369819Y-71425125D01*
X164369819Y-71425125D02*
X164369819Y-71663220D01*
X163369819Y-70472744D02*
X163369819Y-70282268D01*
X163369819Y-70282268D02*
X163417438Y-70187030D01*
X163417438Y-70187030D02*
X163512676Y-70091792D01*
X163512676Y-70091792D02*
X163703152Y-70044173D01*
X163703152Y-70044173D02*
X164036485Y-70044173D01*
X164036485Y-70044173D02*
X164226961Y-70091792D01*
X164226961Y-70091792D02*
X164322200Y-70187030D01*
X164322200Y-70187030D02*
X164369819Y-70282268D01*
X164369819Y-70282268D02*
X164369819Y-70472744D01*
X164369819Y-70472744D02*
X164322200Y-70567982D01*
X164322200Y-70567982D02*
X164226961Y-70663220D01*
X164226961Y-70663220D02*
X164036485Y-70710839D01*
X164036485Y-70710839D02*
X163703152Y-70710839D01*
X163703152Y-70710839D02*
X163512676Y-70663220D01*
X163512676Y-70663220D02*
X163417438Y-70567982D01*
X163417438Y-70567982D02*
X163369819Y-70472744D01*
X163369819Y-76306077D02*
X164369819Y-75972744D01*
X164369819Y-75972744D02*
X163369819Y-75639411D01*
X164322200Y-74877506D02*
X164369819Y-74972744D01*
X164369819Y-74972744D02*
X164369819Y-75163220D01*
X164369819Y-75163220D02*
X164322200Y-75258458D01*
X164322200Y-75258458D02*
X164274580Y-75306077D01*
X164274580Y-75306077D02*
X164179342Y-75353696D01*
X164179342Y-75353696D02*
X163893628Y-75353696D01*
X163893628Y-75353696D02*
X163798390Y-75306077D01*
X163798390Y-75306077D02*
X163750771Y-75258458D01*
X163750771Y-75258458D02*
X163703152Y-75163220D01*
X163703152Y-75163220D02*
X163703152Y-74972744D01*
X163703152Y-74972744D02*
X163750771Y-74877506D01*
X164322200Y-74020363D02*
X164369819Y-74115601D01*
X164369819Y-74115601D02*
X164369819Y-74306077D01*
X164369819Y-74306077D02*
X164322200Y-74401315D01*
X164322200Y-74401315D02*
X164274580Y-74448934D01*
X164274580Y-74448934D02*
X164179342Y-74496553D01*
X164179342Y-74496553D02*
X163893628Y-74496553D01*
X163893628Y-74496553D02*
X163798390Y-74448934D01*
X163798390Y-74448934D02*
X163750771Y-74401315D01*
X163750771Y-74401315D02*
X163703152Y-74306077D01*
X163703152Y-74306077D02*
X163703152Y-74115601D01*
X163703152Y-74115601D02*
X163750771Y-74020363D01*
X163417438Y-78639411D02*
X163369819Y-78734649D01*
X163369819Y-78734649D02*
X163369819Y-78877506D01*
X163369819Y-78877506D02*
X163417438Y-79020363D01*
X163417438Y-79020363D02*
X163512676Y-79115601D01*
X163512676Y-79115601D02*
X163607914Y-79163220D01*
X163607914Y-79163220D02*
X163798390Y-79210839D01*
X163798390Y-79210839D02*
X163941247Y-79210839D01*
X163941247Y-79210839D02*
X164131723Y-79163220D01*
X164131723Y-79163220D02*
X164226961Y-79115601D01*
X164226961Y-79115601D02*
X164322200Y-79020363D01*
X164322200Y-79020363D02*
X164369819Y-78877506D01*
X164369819Y-78877506D02*
X164369819Y-78782268D01*
X164369819Y-78782268D02*
X164322200Y-78639411D01*
X164322200Y-78639411D02*
X164274580Y-78591792D01*
X164274580Y-78591792D02*
X163941247Y-78591792D01*
X163941247Y-78591792D02*
X163941247Y-78782268D01*
X163703152Y-78163220D02*
X164369819Y-78163220D01*
X163798390Y-78163220D02*
X163750771Y-78115601D01*
X163750771Y-78115601D02*
X163703152Y-78020363D01*
X163703152Y-78020363D02*
X163703152Y-77877506D01*
X163703152Y-77877506D02*
X163750771Y-77782268D01*
X163750771Y-77782268D02*
X163846009Y-77734649D01*
X163846009Y-77734649D02*
X164369819Y-77734649D01*
X164369819Y-76829887D02*
X163369819Y-76829887D01*
X164322200Y-76829887D02*
X164369819Y-76925125D01*
X164369819Y-76925125D02*
X164369819Y-77115601D01*
X164369819Y-77115601D02*
X164322200Y-77210839D01*
X164322200Y-77210839D02*
X164274580Y-77258458D01*
X164274580Y-77258458D02*
X164179342Y-77306077D01*
X164179342Y-77306077D02*
X163893628Y-77306077D01*
X163893628Y-77306077D02*
X163798390Y-77258458D01*
X163798390Y-77258458D02*
X163750771Y-77210839D01*
X163750771Y-77210839D02*
X163703152Y-77115601D01*
X163703152Y-77115601D02*
X163703152Y-76925125D01*
X163703152Y-76925125D02*
X163750771Y-76829887D01*
X164369819Y-81663220D02*
X163369819Y-81663220D01*
X163369819Y-81663220D02*
X163369819Y-81425125D01*
X163369819Y-81425125D02*
X163417438Y-81282268D01*
X163417438Y-81282268D02*
X163512676Y-81187030D01*
X163512676Y-81187030D02*
X163607914Y-81139411D01*
X163607914Y-81139411D02*
X163798390Y-81091792D01*
X163798390Y-81091792D02*
X163941247Y-81091792D01*
X163941247Y-81091792D02*
X164131723Y-81139411D01*
X164131723Y-81139411D02*
X164226961Y-81187030D01*
X164226961Y-81187030D02*
X164322200Y-81282268D01*
X164322200Y-81282268D02*
X164369819Y-81425125D01*
X164369819Y-81425125D02*
X164369819Y-81663220D01*
X163369819Y-80472744D02*
X163369819Y-80282268D01*
X163369819Y-80282268D02*
X163417438Y-80187030D01*
X163417438Y-80187030D02*
X163512676Y-80091792D01*
X163512676Y-80091792D02*
X163703152Y-80044173D01*
X163703152Y-80044173D02*
X164036485Y-80044173D01*
X164036485Y-80044173D02*
X164226961Y-80091792D01*
X164226961Y-80091792D02*
X164322200Y-80187030D01*
X164322200Y-80187030D02*
X164369819Y-80282268D01*
X164369819Y-80282268D02*
X164369819Y-80472744D01*
X164369819Y-80472744D02*
X164322200Y-80567982D01*
X164322200Y-80567982D02*
X164226961Y-80663220D01*
X164226961Y-80663220D02*
X164036485Y-80710839D01*
X164036485Y-80710839D02*
X163703152Y-80710839D01*
X163703152Y-80710839D02*
X163512676Y-80663220D01*
X163512676Y-80663220D02*
X163417438Y-80567982D01*
X163417438Y-80567982D02*
X163369819Y-80472744D01*
X163369819Y-86306077D02*
X164369819Y-85972744D01*
X164369819Y-85972744D02*
X163369819Y-85639411D01*
X164322200Y-84877506D02*
X164369819Y-84972744D01*
X164369819Y-84972744D02*
X164369819Y-85163220D01*
X164369819Y-85163220D02*
X164322200Y-85258458D01*
X164322200Y-85258458D02*
X164274580Y-85306077D01*
X164274580Y-85306077D02*
X164179342Y-85353696D01*
X164179342Y-85353696D02*
X163893628Y-85353696D01*
X163893628Y-85353696D02*
X163798390Y-85306077D01*
X163798390Y-85306077D02*
X163750771Y-85258458D01*
X163750771Y-85258458D02*
X163703152Y-85163220D01*
X163703152Y-85163220D02*
X163703152Y-84972744D01*
X163703152Y-84972744D02*
X163750771Y-84877506D01*
X164322200Y-84020363D02*
X164369819Y-84115601D01*
X164369819Y-84115601D02*
X164369819Y-84306077D01*
X164369819Y-84306077D02*
X164322200Y-84401315D01*
X164322200Y-84401315D02*
X164274580Y-84448934D01*
X164274580Y-84448934D02*
X164179342Y-84496553D01*
X164179342Y-84496553D02*
X163893628Y-84496553D01*
X163893628Y-84496553D02*
X163798390Y-84448934D01*
X163798390Y-84448934D02*
X163750771Y-84401315D01*
X163750771Y-84401315D02*
X163703152Y-84306077D01*
X163703152Y-84306077D02*
X163703152Y-84115601D01*
X163703152Y-84115601D02*
X163750771Y-84020363D01*
X163417438Y-88639411D02*
X163369819Y-88734649D01*
X163369819Y-88734649D02*
X163369819Y-88877506D01*
X163369819Y-88877506D02*
X163417438Y-89020363D01*
X163417438Y-89020363D02*
X163512676Y-89115601D01*
X163512676Y-89115601D02*
X163607914Y-89163220D01*
X163607914Y-89163220D02*
X163798390Y-89210839D01*
X163798390Y-89210839D02*
X163941247Y-89210839D01*
X163941247Y-89210839D02*
X164131723Y-89163220D01*
X164131723Y-89163220D02*
X164226961Y-89115601D01*
X164226961Y-89115601D02*
X164322200Y-89020363D01*
X164322200Y-89020363D02*
X164369819Y-88877506D01*
X164369819Y-88877506D02*
X164369819Y-88782268D01*
X164369819Y-88782268D02*
X164322200Y-88639411D01*
X164322200Y-88639411D02*
X164274580Y-88591792D01*
X164274580Y-88591792D02*
X163941247Y-88591792D01*
X163941247Y-88591792D02*
X163941247Y-88782268D01*
X163703152Y-88163220D02*
X164369819Y-88163220D01*
X163798390Y-88163220D02*
X163750771Y-88115601D01*
X163750771Y-88115601D02*
X163703152Y-88020363D01*
X163703152Y-88020363D02*
X163703152Y-87877506D01*
X163703152Y-87877506D02*
X163750771Y-87782268D01*
X163750771Y-87782268D02*
X163846009Y-87734649D01*
X163846009Y-87734649D02*
X164369819Y-87734649D01*
X164369819Y-86829887D02*
X163369819Y-86829887D01*
X164322200Y-86829887D02*
X164369819Y-86925125D01*
X164369819Y-86925125D02*
X164369819Y-87115601D01*
X164369819Y-87115601D02*
X164322200Y-87210839D01*
X164322200Y-87210839D02*
X164274580Y-87258458D01*
X164274580Y-87258458D02*
X164179342Y-87306077D01*
X164179342Y-87306077D02*
X163893628Y-87306077D01*
X163893628Y-87306077D02*
X163798390Y-87258458D01*
X163798390Y-87258458D02*
X163750771Y-87210839D01*
X163750771Y-87210839D02*
X163703152Y-87115601D01*
X163703152Y-87115601D02*
X163703152Y-86925125D01*
X163703152Y-86925125D02*
X163750771Y-86829887D01*
X164369819Y-91663220D02*
X163369819Y-91663220D01*
X163369819Y-91663220D02*
X163369819Y-91425125D01*
X163369819Y-91425125D02*
X163417438Y-91282268D01*
X163417438Y-91282268D02*
X163512676Y-91187030D01*
X163512676Y-91187030D02*
X163607914Y-91139411D01*
X163607914Y-91139411D02*
X163798390Y-91091792D01*
X163798390Y-91091792D02*
X163941247Y-91091792D01*
X163941247Y-91091792D02*
X164131723Y-91139411D01*
X164131723Y-91139411D02*
X164226961Y-91187030D01*
X164226961Y-91187030D02*
X164322200Y-91282268D01*
X164322200Y-91282268D02*
X164369819Y-91425125D01*
X164369819Y-91425125D02*
X164369819Y-91663220D01*
X163369819Y-90472744D02*
X163369819Y-90282268D01*
X163369819Y-90282268D02*
X163417438Y-90187030D01*
X163417438Y-90187030D02*
X163512676Y-90091792D01*
X163512676Y-90091792D02*
X163703152Y-90044173D01*
X163703152Y-90044173D02*
X164036485Y-90044173D01*
X164036485Y-90044173D02*
X164226961Y-90091792D01*
X164226961Y-90091792D02*
X164322200Y-90187030D01*
X164322200Y-90187030D02*
X164369819Y-90282268D01*
X164369819Y-90282268D02*
X164369819Y-90472744D01*
X164369819Y-90472744D02*
X164322200Y-90567982D01*
X164322200Y-90567982D02*
X164226961Y-90663220D01*
X164226961Y-90663220D02*
X164036485Y-90710839D01*
X164036485Y-90710839D02*
X163703152Y-90710839D01*
X163703152Y-90710839D02*
X163512676Y-90663220D01*
X163512676Y-90663220D02*
X163417438Y-90567982D01*
X163417438Y-90567982D02*
X163369819Y-90472744D01*
X105653990Y-56670112D02*
X105653990Y-56336779D01*
X105130180Y-56336779D02*
X106130180Y-56336779D01*
X106130180Y-56336779D02*
X106130180Y-56812969D01*
X105130180Y-57670112D02*
X105130180Y-57193922D01*
X105130180Y-57193922D02*
X106130180Y-57193922D01*
X105653990Y-64670112D02*
X105653990Y-64336779D01*
X105130180Y-64336779D02*
X106130180Y-64336779D01*
X106130180Y-64336779D02*
X106130180Y-64812969D01*
X105130180Y-65765350D02*
X105606371Y-65432017D01*
X105130180Y-65193922D02*
X106130180Y-65193922D01*
X106130180Y-65193922D02*
X106130180Y-65574874D01*
X106130180Y-65574874D02*
X106082561Y-65670112D01*
X106082561Y-65670112D02*
X106034942Y-65717731D01*
X106034942Y-65717731D02*
X105939704Y-65765350D01*
X105939704Y-65765350D02*
X105796847Y-65765350D01*
X105796847Y-65765350D02*
X105701609Y-65717731D01*
X105701609Y-65717731D02*
X105653990Y-65670112D01*
X105653990Y-65670112D02*
X105606371Y-65574874D01*
X105606371Y-65574874D02*
X105606371Y-65193922D01*
X105130180Y-80908207D02*
X105606371Y-80574874D01*
X105130180Y-80336779D02*
X106130180Y-80336779D01*
X106130180Y-80336779D02*
X106130180Y-80717731D01*
X106130180Y-80717731D02*
X106082561Y-80812969D01*
X106082561Y-80812969D02*
X106034942Y-80860588D01*
X106034942Y-80860588D02*
X105939704Y-80908207D01*
X105939704Y-80908207D02*
X105796847Y-80908207D01*
X105796847Y-80908207D02*
X105701609Y-80860588D01*
X105701609Y-80860588D02*
X105653990Y-80812969D01*
X105653990Y-80812969D02*
X105606371Y-80717731D01*
X105606371Y-80717731D02*
X105606371Y-80336779D01*
X105130180Y-81812969D02*
X105130180Y-81336779D01*
X105130180Y-81336779D02*
X106130180Y-81336779D01*
X105130180Y-89408207D02*
X105606371Y-89074874D01*
X105130180Y-88836779D02*
X106130180Y-88836779D01*
X106130180Y-88836779D02*
X106130180Y-89217731D01*
X106130180Y-89217731D02*
X106082561Y-89312969D01*
X106082561Y-89312969D02*
X106034942Y-89360588D01*
X106034942Y-89360588D02*
X105939704Y-89408207D01*
X105939704Y-89408207D02*
X105796847Y-89408207D01*
X105796847Y-89408207D02*
X105701609Y-89360588D01*
X105701609Y-89360588D02*
X105653990Y-89312969D01*
X105653990Y-89312969D02*
X105606371Y-89217731D01*
X105606371Y-89217731D02*
X105606371Y-88836779D01*
X105130180Y-90408207D02*
X105606371Y-90074874D01*
X105130180Y-89836779D02*
X106130180Y-89836779D01*
X106130180Y-89836779D02*
X106130180Y-90217731D01*
X106130180Y-90217731D02*
X106082561Y-90312969D01*
X106082561Y-90312969D02*
X106034942Y-90360588D01*
X106034942Y-90360588D02*
X105939704Y-90408207D01*
X105939704Y-90408207D02*
X105796847Y-90408207D01*
X105796847Y-90408207D02*
X105701609Y-90360588D01*
X105701609Y-90360588D02*
X105653990Y-90312969D01*
X105653990Y-90312969D02*
X105606371Y-90217731D01*
X105606371Y-90217731D02*
X105606371Y-89836779D01*
D11*
X122323307Y-55101657D02*
X121323307Y-53673085D01*
X120609021Y-55101657D02*
X120609021Y-52101657D01*
X120609021Y-52101657D02*
X121751878Y-52101657D01*
X121751878Y-52101657D02*
X122037593Y-52244514D01*
X122037593Y-52244514D02*
X122180450Y-52387371D01*
X122180450Y-52387371D02*
X122323307Y-52673085D01*
X122323307Y-52673085D02*
X122323307Y-53101657D01*
X122323307Y-53101657D02*
X122180450Y-53387371D01*
X122180450Y-53387371D02*
X122037593Y-53530228D01*
X122037593Y-53530228D02*
X121751878Y-53673085D01*
X121751878Y-53673085D02*
X120609021Y-53673085D01*
X124751878Y-54958800D02*
X124466164Y-55101657D01*
X124466164Y-55101657D02*
X123894736Y-55101657D01*
X123894736Y-55101657D02*
X123609021Y-54958800D01*
X123609021Y-54958800D02*
X123466164Y-54673085D01*
X123466164Y-54673085D02*
X123466164Y-53530228D01*
X123466164Y-53530228D02*
X123609021Y-53244514D01*
X123609021Y-53244514D02*
X123894736Y-53101657D01*
X123894736Y-53101657D02*
X124466164Y-53101657D01*
X124466164Y-53101657D02*
X124751878Y-53244514D01*
X124751878Y-53244514D02*
X124894736Y-53530228D01*
X124894736Y-53530228D02*
X124894736Y-53815942D01*
X124894736Y-53815942D02*
X123466164Y-54101657D01*
X127323307Y-54958800D02*
X127037593Y-55101657D01*
X127037593Y-55101657D02*
X126466165Y-55101657D01*
X126466165Y-55101657D02*
X126180450Y-54958800D01*
X126180450Y-54958800D02*
X126037593Y-54673085D01*
X126037593Y-54673085D02*
X126037593Y-53530228D01*
X126037593Y-53530228D02*
X126180450Y-53244514D01*
X126180450Y-53244514D02*
X126466165Y-53101657D01*
X126466165Y-53101657D02*
X127037593Y-53101657D01*
X127037593Y-53101657D02*
X127323307Y-53244514D01*
X127323307Y-53244514D02*
X127466165Y-53530228D01*
X127466165Y-53530228D02*
X127466165Y-53815942D01*
X127466165Y-53815942D02*
X126037593Y-54101657D01*
X129180451Y-55101657D02*
X128894736Y-54958800D01*
X128894736Y-54958800D02*
X128751879Y-54673085D01*
X128751879Y-54673085D02*
X128751879Y-52101657D01*
X129894737Y-53101657D02*
X131037594Y-53101657D01*
X130323308Y-55101657D02*
X130323308Y-52530228D01*
X130323308Y-52530228D02*
X130466165Y-52244514D01*
X130466165Y-52244514D02*
X130751880Y-52101657D01*
X130751880Y-52101657D02*
X131037594Y-52101657D01*
X132466166Y-55101657D02*
X132180451Y-54958800D01*
X132180451Y-54958800D02*
X132037594Y-54815942D01*
X132037594Y-54815942D02*
X131894737Y-54530228D01*
X131894737Y-54530228D02*
X131894737Y-53673085D01*
X131894737Y-53673085D02*
X132037594Y-53387371D01*
X132037594Y-53387371D02*
X132180451Y-53244514D01*
X132180451Y-53244514D02*
X132466166Y-53101657D01*
X132466166Y-53101657D02*
X132894737Y-53101657D01*
X132894737Y-53101657D02*
X133180451Y-53244514D01*
X133180451Y-53244514D02*
X133323309Y-53387371D01*
X133323309Y-53387371D02*
X133466166Y-53673085D01*
X133466166Y-53673085D02*
X133466166Y-54530228D01*
X133466166Y-54530228D02*
X133323309Y-54815942D01*
X133323309Y-54815942D02*
X133180451Y-54958800D01*
X133180451Y-54958800D02*
X132894737Y-55101657D01*
X132894737Y-55101657D02*
X132466166Y-55101657D01*
X135180452Y-55101657D02*
X134894737Y-54958800D01*
X134894737Y-54958800D02*
X134751880Y-54815942D01*
X134751880Y-54815942D02*
X134609023Y-54530228D01*
X134609023Y-54530228D02*
X134609023Y-53673085D01*
X134609023Y-53673085D02*
X134751880Y-53387371D01*
X134751880Y-53387371D02*
X134894737Y-53244514D01*
X134894737Y-53244514D02*
X135180452Y-53101657D01*
X135180452Y-53101657D02*
X135609023Y-53101657D01*
X135609023Y-53101657D02*
X135894737Y-53244514D01*
X135894737Y-53244514D02*
X136037595Y-53387371D01*
X136037595Y-53387371D02*
X136180452Y-53673085D01*
X136180452Y-53673085D02*
X136180452Y-54530228D01*
X136180452Y-54530228D02*
X136037595Y-54815942D01*
X136037595Y-54815942D02*
X135894737Y-54958800D01*
X135894737Y-54958800D02*
X135609023Y-55101657D01*
X135609023Y-55101657D02*
X135180452Y-55101657D01*
X137037595Y-53101657D02*
X138180452Y-53101657D01*
X137466166Y-52101657D02*
X137466166Y-54673085D01*
X137466166Y-54673085D02*
X137609023Y-54958800D01*
X137609023Y-54958800D02*
X137894738Y-55101657D01*
X137894738Y-55101657D02*
X138180452Y-55101657D01*
X143180452Y-55101657D02*
X142180452Y-53673085D01*
X141466166Y-55101657D02*
X141466166Y-52101657D01*
X141466166Y-52101657D02*
X142609023Y-52101657D01*
X142609023Y-52101657D02*
X142894738Y-52244514D01*
X142894738Y-52244514D02*
X143037595Y-52387371D01*
X143037595Y-52387371D02*
X143180452Y-52673085D01*
X143180452Y-52673085D02*
X143180452Y-53101657D01*
X143180452Y-53101657D02*
X143037595Y-53387371D01*
X143037595Y-53387371D02*
X142894738Y-53530228D01*
X142894738Y-53530228D02*
X142609023Y-53673085D01*
X142609023Y-53673085D02*
X141466166Y-53673085D01*
X144894738Y-55101657D02*
X144609023Y-54958800D01*
X144609023Y-54958800D02*
X144466166Y-54815942D01*
X144466166Y-54815942D02*
X144323309Y-54530228D01*
X144323309Y-54530228D02*
X144323309Y-53673085D01*
X144323309Y-53673085D02*
X144466166Y-53387371D01*
X144466166Y-53387371D02*
X144609023Y-53244514D01*
X144609023Y-53244514D02*
X144894738Y-53101657D01*
X144894738Y-53101657D02*
X145323309Y-53101657D01*
X145323309Y-53101657D02*
X145609023Y-53244514D01*
X145609023Y-53244514D02*
X145751881Y-53387371D01*
X145751881Y-53387371D02*
X145894738Y-53673085D01*
X145894738Y-53673085D02*
X145894738Y-54530228D01*
X145894738Y-54530228D02*
X145751881Y-54815942D01*
X145751881Y-54815942D02*
X145609023Y-54958800D01*
X145609023Y-54958800D02*
X145323309Y-55101657D01*
X145323309Y-55101657D02*
X144894738Y-55101657D01*
X146894738Y-53101657D02*
X147609024Y-55101657D01*
X147609024Y-55101657D02*
X148323309Y-53101657D01*
X150609023Y-54958800D02*
X150323309Y-55101657D01*
X150323309Y-55101657D02*
X149751881Y-55101657D01*
X149751881Y-55101657D02*
X149466166Y-54958800D01*
X149466166Y-54958800D02*
X149323309Y-54673085D01*
X149323309Y-54673085D02*
X149323309Y-53530228D01*
X149323309Y-53530228D02*
X149466166Y-53244514D01*
X149466166Y-53244514D02*
X149751881Y-53101657D01*
X149751881Y-53101657D02*
X150323309Y-53101657D01*
X150323309Y-53101657D02*
X150609023Y-53244514D01*
X150609023Y-53244514D02*
X150751881Y-53530228D01*
X150751881Y-53530228D02*
X150751881Y-53815942D01*
X150751881Y-53815942D02*
X149323309Y-54101657D01*
X152037595Y-55101657D02*
X152037595Y-53101657D01*
X152037595Y-53673085D02*
X152180452Y-53387371D01*
X152180452Y-53387371D02*
X152323310Y-53244514D01*
X152323310Y-53244514D02*
X152609024Y-53101657D01*
X152609024Y-53101657D02*
X152894738Y-53101657D01*
D10*
X161166666Y-52494819D02*
X161166666Y-53209104D01*
X161166666Y-53209104D02*
X161119047Y-53351961D01*
X161119047Y-53351961D02*
X161023809Y-53447200D01*
X161023809Y-53447200D02*
X160880952Y-53494819D01*
X160880952Y-53494819D02*
X160785714Y-53494819D01*
X162119047Y-52494819D02*
X161642857Y-52494819D01*
X161642857Y-52494819D02*
X161595238Y-52971009D01*
X161595238Y-52971009D02*
X161642857Y-52923390D01*
X161642857Y-52923390D02*
X161738095Y-52875771D01*
X161738095Y-52875771D02*
X161976190Y-52875771D01*
X161976190Y-52875771D02*
X162071428Y-52923390D01*
X162071428Y-52923390D02*
X162119047Y-52971009D01*
X162119047Y-52971009D02*
X162166666Y-53066247D01*
X162166666Y-53066247D02*
X162166666Y-53304342D01*
X162166666Y-53304342D02*
X162119047Y-53399580D01*
X162119047Y-53399580D02*
X162071428Y-53447200D01*
X162071428Y-53447200D02*
X161976190Y-53494819D01*
X161976190Y-53494819D02*
X161738095Y-53494819D01*
X161738095Y-53494819D02*
X161642857Y-53447200D01*
X161642857Y-53447200D02*
X161595238Y-53399580D01*
X102190476Y-85074819D02*
X102190476Y-85789104D01*
X102190476Y-85789104D02*
X102142857Y-85931961D01*
X102142857Y-85931961D02*
X102047619Y-86027200D01*
X102047619Y-86027200D02*
X101904762Y-86074819D01*
X101904762Y-86074819D02*
X101809524Y-86074819D01*
X103190476Y-86074819D02*
X102619048Y-86074819D01*
X102904762Y-86074819D02*
X102904762Y-85074819D01*
X102904762Y-85074819D02*
X102809524Y-85217676D01*
X102809524Y-85217676D02*
X102714286Y-85312914D01*
X102714286Y-85312914D02*
X102619048Y-85360533D01*
X103571429Y-85170057D02*
X103619048Y-85122438D01*
X103619048Y-85122438D02*
X103714286Y-85074819D01*
X103714286Y-85074819D02*
X103952381Y-85074819D01*
X103952381Y-85074819D02*
X104047619Y-85122438D01*
X104047619Y-85122438D02*
X104095238Y-85170057D01*
X104095238Y-85170057D02*
X104142857Y-85265295D01*
X104142857Y-85265295D02*
X104142857Y-85360533D01*
X104142857Y-85360533D02*
X104095238Y-85503390D01*
X104095238Y-85503390D02*
X103523810Y-86074819D01*
X103523810Y-86074819D02*
X104142857Y-86074819D01*
X122333333Y-59359580D02*
X122285714Y-59407200D01*
X122285714Y-59407200D02*
X122142857Y-59454819D01*
X122142857Y-59454819D02*
X122047619Y-59454819D01*
X122047619Y-59454819D02*
X121904762Y-59407200D01*
X121904762Y-59407200D02*
X121809524Y-59311961D01*
X121809524Y-59311961D02*
X121761905Y-59216723D01*
X121761905Y-59216723D02*
X121714286Y-59026247D01*
X121714286Y-59026247D02*
X121714286Y-58883390D01*
X121714286Y-58883390D02*
X121761905Y-58692914D01*
X121761905Y-58692914D02*
X121809524Y-58597676D01*
X121809524Y-58597676D02*
X121904762Y-58502438D01*
X121904762Y-58502438D02*
X122047619Y-58454819D01*
X122047619Y-58454819D02*
X122142857Y-58454819D01*
X122142857Y-58454819D02*
X122285714Y-58502438D01*
X122285714Y-58502438D02*
X122333333Y-58550057D01*
X122666667Y-58454819D02*
X123285714Y-58454819D01*
X123285714Y-58454819D02*
X122952381Y-58835771D01*
X122952381Y-58835771D02*
X123095238Y-58835771D01*
X123095238Y-58835771D02*
X123190476Y-58883390D01*
X123190476Y-58883390D02*
X123238095Y-58931009D01*
X123238095Y-58931009D02*
X123285714Y-59026247D01*
X123285714Y-59026247D02*
X123285714Y-59264342D01*
X123285714Y-59264342D02*
X123238095Y-59359580D01*
X123238095Y-59359580D02*
X123190476Y-59407200D01*
X123190476Y-59407200D02*
X123095238Y-59454819D01*
X123095238Y-59454819D02*
X122809524Y-59454819D01*
X122809524Y-59454819D02*
X122714286Y-59407200D01*
X122714286Y-59407200D02*
X122666667Y-59359580D01*
X137333333Y-59359580D02*
X137285714Y-59407200D01*
X137285714Y-59407200D02*
X137142857Y-59454819D01*
X137142857Y-59454819D02*
X137047619Y-59454819D01*
X137047619Y-59454819D02*
X136904762Y-59407200D01*
X136904762Y-59407200D02*
X136809524Y-59311961D01*
X136809524Y-59311961D02*
X136761905Y-59216723D01*
X136761905Y-59216723D02*
X136714286Y-59026247D01*
X136714286Y-59026247D02*
X136714286Y-58883390D01*
X136714286Y-58883390D02*
X136761905Y-58692914D01*
X136761905Y-58692914D02*
X136809524Y-58597676D01*
X136809524Y-58597676D02*
X136904762Y-58502438D01*
X136904762Y-58502438D02*
X137047619Y-58454819D01*
X137047619Y-58454819D02*
X137142857Y-58454819D01*
X137142857Y-58454819D02*
X137285714Y-58502438D01*
X137285714Y-58502438D02*
X137333333Y-58550057D01*
X138190476Y-58788152D02*
X138190476Y-59454819D01*
X137952381Y-58407200D02*
X137714286Y-59121485D01*
X137714286Y-59121485D02*
X138333333Y-59121485D01*
X146518333Y-86954819D02*
X146185000Y-86478628D01*
X145946905Y-86954819D02*
X145946905Y-85954819D01*
X145946905Y-85954819D02*
X146327857Y-85954819D01*
X146327857Y-85954819D02*
X146423095Y-86002438D01*
X146423095Y-86002438D02*
X146470714Y-86050057D01*
X146470714Y-86050057D02*
X146518333Y-86145295D01*
X146518333Y-86145295D02*
X146518333Y-86288152D01*
X146518333Y-86288152D02*
X146470714Y-86383390D01*
X146470714Y-86383390D02*
X146423095Y-86431009D01*
X146423095Y-86431009D02*
X146327857Y-86478628D01*
X146327857Y-86478628D02*
X145946905Y-86478628D01*
X146899286Y-86050057D02*
X146946905Y-86002438D01*
X146946905Y-86002438D02*
X147042143Y-85954819D01*
X147042143Y-85954819D02*
X147280238Y-85954819D01*
X147280238Y-85954819D02*
X147375476Y-86002438D01*
X147375476Y-86002438D02*
X147423095Y-86050057D01*
X147423095Y-86050057D02*
X147470714Y-86145295D01*
X147470714Y-86145295D02*
X147470714Y-86240533D01*
X147470714Y-86240533D02*
X147423095Y-86383390D01*
X147423095Y-86383390D02*
X146851667Y-86954819D01*
X146851667Y-86954819D02*
X147470714Y-86954819D01*
X124666666Y-93454819D02*
X124666666Y-94169104D01*
X124666666Y-94169104D02*
X124619047Y-94311961D01*
X124619047Y-94311961D02*
X124523809Y-94407200D01*
X124523809Y-94407200D02*
X124380952Y-94454819D01*
X124380952Y-94454819D02*
X124285714Y-94454819D01*
X125095238Y-93550057D02*
X125142857Y-93502438D01*
X125142857Y-93502438D02*
X125238095Y-93454819D01*
X125238095Y-93454819D02*
X125476190Y-93454819D01*
X125476190Y-93454819D02*
X125571428Y-93502438D01*
X125571428Y-93502438D02*
X125619047Y-93550057D01*
X125619047Y-93550057D02*
X125666666Y-93645295D01*
X125666666Y-93645295D02*
X125666666Y-93740533D01*
X125666666Y-93740533D02*
X125619047Y-93883390D01*
X125619047Y-93883390D02*
X125047619Y-94454819D01*
X125047619Y-94454819D02*
X125666666Y-94454819D01*
X112788445Y-91859580D02*
X112740826Y-91907200D01*
X112740826Y-91907200D02*
X112597969Y-91954819D01*
X112597969Y-91954819D02*
X112502731Y-91954819D01*
X112502731Y-91954819D02*
X112359874Y-91907200D01*
X112359874Y-91907200D02*
X112264636Y-91811961D01*
X112264636Y-91811961D02*
X112217017Y-91716723D01*
X112217017Y-91716723D02*
X112169398Y-91526247D01*
X112169398Y-91526247D02*
X112169398Y-91383390D01*
X112169398Y-91383390D02*
X112217017Y-91192914D01*
X112217017Y-91192914D02*
X112264636Y-91097676D01*
X112264636Y-91097676D02*
X112359874Y-91002438D01*
X112359874Y-91002438D02*
X112502731Y-90954819D01*
X112502731Y-90954819D02*
X112597969Y-90954819D01*
X112597969Y-90954819D02*
X112740826Y-91002438D01*
X112740826Y-91002438D02*
X112788445Y-91050057D01*
X113359874Y-91383390D02*
X113264636Y-91335771D01*
X113264636Y-91335771D02*
X113217017Y-91288152D01*
X113217017Y-91288152D02*
X113169398Y-91192914D01*
X113169398Y-91192914D02*
X113169398Y-91145295D01*
X113169398Y-91145295D02*
X113217017Y-91050057D01*
X113217017Y-91050057D02*
X113264636Y-91002438D01*
X113264636Y-91002438D02*
X113359874Y-90954819D01*
X113359874Y-90954819D02*
X113550350Y-90954819D01*
X113550350Y-90954819D02*
X113645588Y-91002438D01*
X113645588Y-91002438D02*
X113693207Y-91050057D01*
X113693207Y-91050057D02*
X113740826Y-91145295D01*
X113740826Y-91145295D02*
X113740826Y-91192914D01*
X113740826Y-91192914D02*
X113693207Y-91288152D01*
X113693207Y-91288152D02*
X113645588Y-91335771D01*
X113645588Y-91335771D02*
X113550350Y-91383390D01*
X113550350Y-91383390D02*
X113359874Y-91383390D01*
X113359874Y-91383390D02*
X113264636Y-91431009D01*
X113264636Y-91431009D02*
X113217017Y-91478628D01*
X113217017Y-91478628D02*
X113169398Y-91573866D01*
X113169398Y-91573866D02*
X113169398Y-91764342D01*
X113169398Y-91764342D02*
X113217017Y-91859580D01*
X113217017Y-91859580D02*
X113264636Y-91907200D01*
X113264636Y-91907200D02*
X113359874Y-91954819D01*
X113359874Y-91954819D02*
X113550350Y-91954819D01*
X113550350Y-91954819D02*
X113645588Y-91907200D01*
X113645588Y-91907200D02*
X113693207Y-91859580D01*
X113693207Y-91859580D02*
X113740826Y-91764342D01*
X113740826Y-91764342D02*
X113740826Y-91573866D01*
X113740826Y-91573866D02*
X113693207Y-91478628D01*
X113693207Y-91478628D02*
X113645588Y-91431009D01*
X113645588Y-91431009D02*
X113550350Y-91383390D01*
X153333333Y-59359580D02*
X153285714Y-59407200D01*
X153285714Y-59407200D02*
X153142857Y-59454819D01*
X153142857Y-59454819D02*
X153047619Y-59454819D01*
X153047619Y-59454819D02*
X152904762Y-59407200D01*
X152904762Y-59407200D02*
X152809524Y-59311961D01*
X152809524Y-59311961D02*
X152761905Y-59216723D01*
X152761905Y-59216723D02*
X152714286Y-59026247D01*
X152714286Y-59026247D02*
X152714286Y-58883390D01*
X152714286Y-58883390D02*
X152761905Y-58692914D01*
X152761905Y-58692914D02*
X152809524Y-58597676D01*
X152809524Y-58597676D02*
X152904762Y-58502438D01*
X152904762Y-58502438D02*
X153047619Y-58454819D01*
X153047619Y-58454819D02*
X153142857Y-58454819D01*
X153142857Y-58454819D02*
X153285714Y-58502438D01*
X153285714Y-58502438D02*
X153333333Y-58550057D01*
X154190476Y-58454819D02*
X154000000Y-58454819D01*
X154000000Y-58454819D02*
X153904762Y-58502438D01*
X153904762Y-58502438D02*
X153857143Y-58550057D01*
X153857143Y-58550057D02*
X153761905Y-58692914D01*
X153761905Y-58692914D02*
X153714286Y-58883390D01*
X153714286Y-58883390D02*
X153714286Y-59264342D01*
X153714286Y-59264342D02*
X153761905Y-59359580D01*
X153761905Y-59359580D02*
X153809524Y-59407200D01*
X153809524Y-59407200D02*
X153904762Y-59454819D01*
X153904762Y-59454819D02*
X154095238Y-59454819D01*
X154095238Y-59454819D02*
X154190476Y-59407200D01*
X154190476Y-59407200D02*
X154238095Y-59359580D01*
X154238095Y-59359580D02*
X154285714Y-59264342D01*
X154285714Y-59264342D02*
X154285714Y-59026247D01*
X154285714Y-59026247D02*
X154238095Y-58931009D01*
X154238095Y-58931009D02*
X154190476Y-58883390D01*
X154190476Y-58883390D02*
X154095238Y-58835771D01*
X154095238Y-58835771D02*
X153904762Y-58835771D01*
X153904762Y-58835771D02*
X153809524Y-58883390D01*
X153809524Y-58883390D02*
X153761905Y-58931009D01*
X153761905Y-58931009D02*
X153714286Y-59026247D01*
X128518333Y-92009580D02*
X128470714Y-92057200D01*
X128470714Y-92057200D02*
X128327857Y-92104819D01*
X128327857Y-92104819D02*
X128232619Y-92104819D01*
X128232619Y-92104819D02*
X128089762Y-92057200D01*
X128089762Y-92057200D02*
X127994524Y-91961961D01*
X127994524Y-91961961D02*
X127946905Y-91866723D01*
X127946905Y-91866723D02*
X127899286Y-91676247D01*
X127899286Y-91676247D02*
X127899286Y-91533390D01*
X127899286Y-91533390D02*
X127946905Y-91342914D01*
X127946905Y-91342914D02*
X127994524Y-91247676D01*
X127994524Y-91247676D02*
X128089762Y-91152438D01*
X128089762Y-91152438D02*
X128232619Y-91104819D01*
X128232619Y-91104819D02*
X128327857Y-91104819D01*
X128327857Y-91104819D02*
X128470714Y-91152438D01*
X128470714Y-91152438D02*
X128518333Y-91200057D01*
X128994524Y-92104819D02*
X129185000Y-92104819D01*
X129185000Y-92104819D02*
X129280238Y-92057200D01*
X129280238Y-92057200D02*
X129327857Y-92009580D01*
X129327857Y-92009580D02*
X129423095Y-91866723D01*
X129423095Y-91866723D02*
X129470714Y-91676247D01*
X129470714Y-91676247D02*
X129470714Y-91295295D01*
X129470714Y-91295295D02*
X129423095Y-91200057D01*
X129423095Y-91200057D02*
X129375476Y-91152438D01*
X129375476Y-91152438D02*
X129280238Y-91104819D01*
X129280238Y-91104819D02*
X129089762Y-91104819D01*
X129089762Y-91104819D02*
X128994524Y-91152438D01*
X128994524Y-91152438D02*
X128946905Y-91200057D01*
X128946905Y-91200057D02*
X128899286Y-91295295D01*
X128899286Y-91295295D02*
X128899286Y-91533390D01*
X128899286Y-91533390D02*
X128946905Y-91628628D01*
X128946905Y-91628628D02*
X128994524Y-91676247D01*
X128994524Y-91676247D02*
X129089762Y-91723866D01*
X129089762Y-91723866D02*
X129280238Y-91723866D01*
X129280238Y-91723866D02*
X129375476Y-91676247D01*
X129375476Y-91676247D02*
X129423095Y-91628628D01*
X129423095Y-91628628D02*
X129470714Y-91533390D01*
X130428095Y-62884819D02*
X130428095Y-63694342D01*
X130428095Y-63694342D02*
X130475714Y-63789580D01*
X130475714Y-63789580D02*
X130523333Y-63837200D01*
X130523333Y-63837200D02*
X130618571Y-63884819D01*
X130618571Y-63884819D02*
X130809047Y-63884819D01*
X130809047Y-63884819D02*
X130904285Y-63837200D01*
X130904285Y-63837200D02*
X130951904Y-63789580D01*
X130951904Y-63789580D02*
X130999523Y-63694342D01*
X130999523Y-63694342D02*
X130999523Y-62884819D01*
X131428095Y-62980057D02*
X131475714Y-62932438D01*
X131475714Y-62932438D02*
X131570952Y-62884819D01*
X131570952Y-62884819D02*
X131809047Y-62884819D01*
X131809047Y-62884819D02*
X131904285Y-62932438D01*
X131904285Y-62932438D02*
X131951904Y-62980057D01*
X131951904Y-62980057D02*
X131999523Y-63075295D01*
X131999523Y-63075295D02*
X131999523Y-63170533D01*
X131999523Y-63170533D02*
X131951904Y-63313390D01*
X131951904Y-63313390D02*
X131380476Y-63884819D01*
X131380476Y-63884819D02*
X131999523Y-63884819D01*
X122333333Y-62859580D02*
X122285714Y-62907200D01*
X122285714Y-62907200D02*
X122142857Y-62954819D01*
X122142857Y-62954819D02*
X122047619Y-62954819D01*
X122047619Y-62954819D02*
X121904762Y-62907200D01*
X121904762Y-62907200D02*
X121809524Y-62811961D01*
X121809524Y-62811961D02*
X121761905Y-62716723D01*
X121761905Y-62716723D02*
X121714286Y-62526247D01*
X121714286Y-62526247D02*
X121714286Y-62383390D01*
X121714286Y-62383390D02*
X121761905Y-62192914D01*
X121761905Y-62192914D02*
X121809524Y-62097676D01*
X121809524Y-62097676D02*
X121904762Y-62002438D01*
X121904762Y-62002438D02*
X122047619Y-61954819D01*
X122047619Y-61954819D02*
X122142857Y-61954819D01*
X122142857Y-61954819D02*
X122285714Y-62002438D01*
X122285714Y-62002438D02*
X122333333Y-62050057D01*
X122714286Y-62050057D02*
X122761905Y-62002438D01*
X122761905Y-62002438D02*
X122857143Y-61954819D01*
X122857143Y-61954819D02*
X123095238Y-61954819D01*
X123095238Y-61954819D02*
X123190476Y-62002438D01*
X123190476Y-62002438D02*
X123238095Y-62050057D01*
X123238095Y-62050057D02*
X123285714Y-62145295D01*
X123285714Y-62145295D02*
X123285714Y-62240533D01*
X123285714Y-62240533D02*
X123238095Y-62383390D01*
X123238095Y-62383390D02*
X122666667Y-62954819D01*
X122666667Y-62954819D02*
X123285714Y-62954819D01*
X146243095Y-63504819D02*
X146243095Y-64314342D01*
X146243095Y-64314342D02*
X146290714Y-64409580D01*
X146290714Y-64409580D02*
X146338333Y-64457200D01*
X146338333Y-64457200D02*
X146433571Y-64504819D01*
X146433571Y-64504819D02*
X146624047Y-64504819D01*
X146624047Y-64504819D02*
X146719285Y-64457200D01*
X146719285Y-64457200D02*
X146766904Y-64409580D01*
X146766904Y-64409580D02*
X146814523Y-64314342D01*
X146814523Y-64314342D02*
X146814523Y-63504819D01*
X147195476Y-63504819D02*
X147814523Y-63504819D01*
X147814523Y-63504819D02*
X147481190Y-63885771D01*
X147481190Y-63885771D02*
X147624047Y-63885771D01*
X147624047Y-63885771D02*
X147719285Y-63933390D01*
X147719285Y-63933390D02*
X147766904Y-63981009D01*
X147766904Y-63981009D02*
X147814523Y-64076247D01*
X147814523Y-64076247D02*
X147814523Y-64314342D01*
X147814523Y-64314342D02*
X147766904Y-64409580D01*
X147766904Y-64409580D02*
X147719285Y-64457200D01*
X147719285Y-64457200D02*
X147624047Y-64504819D01*
X147624047Y-64504819D02*
X147338333Y-64504819D01*
X147338333Y-64504819D02*
X147243095Y-64457200D01*
X147243095Y-64457200D02*
X147195476Y-64409580D01*
X161166666Y-62494819D02*
X161166666Y-63209104D01*
X161166666Y-63209104D02*
X161119047Y-63351961D01*
X161119047Y-63351961D02*
X161023809Y-63447200D01*
X161023809Y-63447200D02*
X160880952Y-63494819D01*
X160880952Y-63494819D02*
X160785714Y-63494819D01*
X162071428Y-62494819D02*
X161880952Y-62494819D01*
X161880952Y-62494819D02*
X161785714Y-62542438D01*
X161785714Y-62542438D02*
X161738095Y-62590057D01*
X161738095Y-62590057D02*
X161642857Y-62732914D01*
X161642857Y-62732914D02*
X161595238Y-62923390D01*
X161595238Y-62923390D02*
X161595238Y-63304342D01*
X161595238Y-63304342D02*
X161642857Y-63399580D01*
X161642857Y-63399580D02*
X161690476Y-63447200D01*
X161690476Y-63447200D02*
X161785714Y-63494819D01*
X161785714Y-63494819D02*
X161976190Y-63494819D01*
X161976190Y-63494819D02*
X162071428Y-63447200D01*
X162071428Y-63447200D02*
X162119047Y-63399580D01*
X162119047Y-63399580D02*
X162166666Y-63304342D01*
X162166666Y-63304342D02*
X162166666Y-63066247D01*
X162166666Y-63066247D02*
X162119047Y-62971009D01*
X162119047Y-62971009D02*
X162071428Y-62923390D01*
X162071428Y-62923390D02*
X161976190Y-62875771D01*
X161976190Y-62875771D02*
X161785714Y-62875771D01*
X161785714Y-62875771D02*
X161690476Y-62923390D01*
X161690476Y-62923390D02*
X161642857Y-62971009D01*
X161642857Y-62971009D02*
X161595238Y-63066247D01*
X102666666Y-52414819D02*
X102666666Y-53129104D01*
X102666666Y-53129104D02*
X102619047Y-53271961D01*
X102619047Y-53271961D02*
X102523809Y-53367200D01*
X102523809Y-53367200D02*
X102380952Y-53414819D01*
X102380952Y-53414819D02*
X102285714Y-53414819D01*
X103190476Y-53414819D02*
X103380952Y-53414819D01*
X103380952Y-53414819D02*
X103476190Y-53367200D01*
X103476190Y-53367200D02*
X103523809Y-53319580D01*
X103523809Y-53319580D02*
X103619047Y-53176723D01*
X103619047Y-53176723D02*
X103666666Y-52986247D01*
X103666666Y-52986247D02*
X103666666Y-52605295D01*
X103666666Y-52605295D02*
X103619047Y-52510057D01*
X103619047Y-52510057D02*
X103571428Y-52462438D01*
X103571428Y-52462438D02*
X103476190Y-52414819D01*
X103476190Y-52414819D02*
X103285714Y-52414819D01*
X103285714Y-52414819D02*
X103190476Y-52462438D01*
X103190476Y-52462438D02*
X103142857Y-52510057D01*
X103142857Y-52510057D02*
X103095238Y-52605295D01*
X103095238Y-52605295D02*
X103095238Y-52843390D01*
X103095238Y-52843390D02*
X103142857Y-52938628D01*
X103142857Y-52938628D02*
X103190476Y-52986247D01*
X103190476Y-52986247D02*
X103285714Y-53033866D01*
X103285714Y-53033866D02*
X103476190Y-53033866D01*
X103476190Y-53033866D02*
X103571428Y-52986247D01*
X103571428Y-52986247D02*
X103619047Y-52938628D01*
X103619047Y-52938628D02*
X103666666Y-52843390D01*
X115058095Y-62924819D02*
X115058095Y-63734342D01*
X115058095Y-63734342D02*
X115105714Y-63829580D01*
X115105714Y-63829580D02*
X115153333Y-63877200D01*
X115153333Y-63877200D02*
X115248571Y-63924819D01*
X115248571Y-63924819D02*
X115439047Y-63924819D01*
X115439047Y-63924819D02*
X115534285Y-63877200D01*
X115534285Y-63877200D02*
X115581904Y-63829580D01*
X115581904Y-63829580D02*
X115629523Y-63734342D01*
X115629523Y-63734342D02*
X115629523Y-62924819D01*
X116629523Y-63924819D02*
X116058095Y-63924819D01*
X116343809Y-63924819D02*
X116343809Y-62924819D01*
X116343809Y-62924819D02*
X116248571Y-63067676D01*
X116248571Y-63067676D02*
X116153333Y-63162914D01*
X116153333Y-63162914D02*
X116058095Y-63210533D01*
X161166666Y-72574819D02*
X161166666Y-73289104D01*
X161166666Y-73289104D02*
X161119047Y-73431961D01*
X161119047Y-73431961D02*
X161023809Y-73527200D01*
X161023809Y-73527200D02*
X160880952Y-73574819D01*
X160880952Y-73574819D02*
X160785714Y-73574819D01*
X161547619Y-72574819D02*
X162214285Y-72574819D01*
X162214285Y-72574819D02*
X161785714Y-73574819D01*
X102190476Y-76454819D02*
X102190476Y-77169104D01*
X102190476Y-77169104D02*
X102142857Y-77311961D01*
X102142857Y-77311961D02*
X102047619Y-77407200D01*
X102047619Y-77407200D02*
X101904762Y-77454819D01*
X101904762Y-77454819D02*
X101809524Y-77454819D01*
X103190476Y-77454819D02*
X102619048Y-77454819D01*
X102904762Y-77454819D02*
X102904762Y-76454819D01*
X102904762Y-76454819D02*
X102809524Y-76597676D01*
X102809524Y-76597676D02*
X102714286Y-76692914D01*
X102714286Y-76692914D02*
X102619048Y-76740533D01*
X104142857Y-77454819D02*
X103571429Y-77454819D01*
X103857143Y-77454819D02*
X103857143Y-76454819D01*
X103857143Y-76454819D02*
X103761905Y-76597676D01*
X103761905Y-76597676D02*
X103666667Y-76692914D01*
X103666667Y-76692914D02*
X103571429Y-76740533D01*
X139833333Y-83644819D02*
X139500000Y-83168628D01*
X139261905Y-83644819D02*
X139261905Y-82644819D01*
X139261905Y-82644819D02*
X139642857Y-82644819D01*
X139642857Y-82644819D02*
X139738095Y-82692438D01*
X139738095Y-82692438D02*
X139785714Y-82740057D01*
X139785714Y-82740057D02*
X139833333Y-82835295D01*
X139833333Y-82835295D02*
X139833333Y-82978152D01*
X139833333Y-82978152D02*
X139785714Y-83073390D01*
X139785714Y-83073390D02*
X139738095Y-83121009D01*
X139738095Y-83121009D02*
X139642857Y-83168628D01*
X139642857Y-83168628D02*
X139261905Y-83168628D01*
X140785714Y-83644819D02*
X140214286Y-83644819D01*
X140500000Y-83644819D02*
X140500000Y-82644819D01*
X140500000Y-82644819D02*
X140404762Y-82787676D01*
X140404762Y-82787676D02*
X140309524Y-82882914D01*
X140309524Y-82882914D02*
X140214286Y-82930533D01*
X102190476Y-61074819D02*
X102190476Y-61789104D01*
X102190476Y-61789104D02*
X102142857Y-61931961D01*
X102142857Y-61931961D02*
X102047619Y-62027200D01*
X102047619Y-62027200D02*
X101904762Y-62074819D01*
X101904762Y-62074819D02*
X101809524Y-62074819D01*
X103190476Y-62074819D02*
X102619048Y-62074819D01*
X102904762Y-62074819D02*
X102904762Y-61074819D01*
X102904762Y-61074819D02*
X102809524Y-61217676D01*
X102809524Y-61217676D02*
X102714286Y-61312914D01*
X102714286Y-61312914D02*
X102619048Y-61360533D01*
X103809524Y-61074819D02*
X103904762Y-61074819D01*
X103904762Y-61074819D02*
X104000000Y-61122438D01*
X104000000Y-61122438D02*
X104047619Y-61170057D01*
X104047619Y-61170057D02*
X104095238Y-61265295D01*
X104095238Y-61265295D02*
X104142857Y-61455771D01*
X104142857Y-61455771D02*
X104142857Y-61693866D01*
X104142857Y-61693866D02*
X104095238Y-61884342D01*
X104095238Y-61884342D02*
X104047619Y-61979580D01*
X104047619Y-61979580D02*
X104000000Y-62027200D01*
X104000000Y-62027200D02*
X103904762Y-62074819D01*
X103904762Y-62074819D02*
X103809524Y-62074819D01*
X103809524Y-62074819D02*
X103714286Y-62027200D01*
X103714286Y-62027200D02*
X103666667Y-61979580D01*
X103666667Y-61979580D02*
X103619048Y-61884342D01*
X103619048Y-61884342D02*
X103571429Y-61693866D01*
X103571429Y-61693866D02*
X103571429Y-61455771D01*
X103571429Y-61455771D02*
X103619048Y-61265295D01*
X103619048Y-61265295D02*
X103666667Y-61170057D01*
X103666667Y-61170057D02*
X103714286Y-61122438D01*
X103714286Y-61122438D02*
X103809524Y-61074819D01*
X153333333Y-62859580D02*
X153285714Y-62907200D01*
X153285714Y-62907200D02*
X153142857Y-62954819D01*
X153142857Y-62954819D02*
X153047619Y-62954819D01*
X153047619Y-62954819D02*
X152904762Y-62907200D01*
X152904762Y-62907200D02*
X152809524Y-62811961D01*
X152809524Y-62811961D02*
X152761905Y-62716723D01*
X152761905Y-62716723D02*
X152714286Y-62526247D01*
X152714286Y-62526247D02*
X152714286Y-62383390D01*
X152714286Y-62383390D02*
X152761905Y-62192914D01*
X152761905Y-62192914D02*
X152809524Y-62097676D01*
X152809524Y-62097676D02*
X152904762Y-62002438D01*
X152904762Y-62002438D02*
X153047619Y-61954819D01*
X153047619Y-61954819D02*
X153142857Y-61954819D01*
X153142857Y-61954819D02*
X153285714Y-62002438D01*
X153285714Y-62002438D02*
X153333333Y-62050057D01*
X153666667Y-61954819D02*
X154333333Y-61954819D01*
X154333333Y-61954819D02*
X153904762Y-62954819D01*
X137333333Y-62859580D02*
X137285714Y-62907200D01*
X137285714Y-62907200D02*
X137142857Y-62954819D01*
X137142857Y-62954819D02*
X137047619Y-62954819D01*
X137047619Y-62954819D02*
X136904762Y-62907200D01*
X136904762Y-62907200D02*
X136809524Y-62811961D01*
X136809524Y-62811961D02*
X136761905Y-62716723D01*
X136761905Y-62716723D02*
X136714286Y-62526247D01*
X136714286Y-62526247D02*
X136714286Y-62383390D01*
X136714286Y-62383390D02*
X136761905Y-62192914D01*
X136761905Y-62192914D02*
X136809524Y-62097676D01*
X136809524Y-62097676D02*
X136904762Y-62002438D01*
X136904762Y-62002438D02*
X137047619Y-61954819D01*
X137047619Y-61954819D02*
X137142857Y-61954819D01*
X137142857Y-61954819D02*
X137285714Y-62002438D01*
X137285714Y-62002438D02*
X137333333Y-62050057D01*
X138238095Y-61954819D02*
X137761905Y-61954819D01*
X137761905Y-61954819D02*
X137714286Y-62431009D01*
X137714286Y-62431009D02*
X137761905Y-62383390D01*
X137761905Y-62383390D02*
X137857143Y-62335771D01*
X137857143Y-62335771D02*
X138095238Y-62335771D01*
X138095238Y-62335771D02*
X138190476Y-62383390D01*
X138190476Y-62383390D02*
X138238095Y-62431009D01*
X138238095Y-62431009D02*
X138285714Y-62526247D01*
X138285714Y-62526247D02*
X138285714Y-62764342D01*
X138285714Y-62764342D02*
X138238095Y-62859580D01*
X138238095Y-62859580D02*
X138190476Y-62907200D01*
X138190476Y-62907200D02*
X138095238Y-62954819D01*
X138095238Y-62954819D02*
X137857143Y-62954819D01*
X137857143Y-62954819D02*
X137761905Y-62907200D01*
X137761905Y-62907200D02*
X137714286Y-62859580D01*
X161166666Y-82574819D02*
X161166666Y-83289104D01*
X161166666Y-83289104D02*
X161119047Y-83431961D01*
X161119047Y-83431961D02*
X161023809Y-83527200D01*
X161023809Y-83527200D02*
X160880952Y-83574819D01*
X160880952Y-83574819D02*
X160785714Y-83574819D01*
X161785714Y-83003390D02*
X161690476Y-82955771D01*
X161690476Y-82955771D02*
X161642857Y-82908152D01*
X161642857Y-82908152D02*
X161595238Y-82812914D01*
X161595238Y-82812914D02*
X161595238Y-82765295D01*
X161595238Y-82765295D02*
X161642857Y-82670057D01*
X161642857Y-82670057D02*
X161690476Y-82622438D01*
X161690476Y-82622438D02*
X161785714Y-82574819D01*
X161785714Y-82574819D02*
X161976190Y-82574819D01*
X161976190Y-82574819D02*
X162071428Y-82622438D01*
X162071428Y-82622438D02*
X162119047Y-82670057D01*
X162119047Y-82670057D02*
X162166666Y-82765295D01*
X162166666Y-82765295D02*
X162166666Y-82812914D01*
X162166666Y-82812914D02*
X162119047Y-82908152D01*
X162119047Y-82908152D02*
X162071428Y-82955771D01*
X162071428Y-82955771D02*
X161976190Y-83003390D01*
X161976190Y-83003390D02*
X161785714Y-83003390D01*
X161785714Y-83003390D02*
X161690476Y-83051009D01*
X161690476Y-83051009D02*
X161642857Y-83098628D01*
X161642857Y-83098628D02*
X161595238Y-83193866D01*
X161595238Y-83193866D02*
X161595238Y-83384342D01*
X161595238Y-83384342D02*
X161642857Y-83479580D01*
X161642857Y-83479580D02*
X161690476Y-83527200D01*
X161690476Y-83527200D02*
X161785714Y-83574819D01*
X161785714Y-83574819D02*
X161976190Y-83574819D01*
X161976190Y-83574819D02*
X162071428Y-83527200D01*
X162071428Y-83527200D02*
X162119047Y-83479580D01*
X162119047Y-83479580D02*
X162166666Y-83384342D01*
X162166666Y-83384342D02*
X162166666Y-83193866D01*
X162166666Y-83193866D02*
X162119047Y-83098628D01*
X162119047Y-83098628D02*
X162071428Y-83051009D01*
X162071428Y-83051009D02*
X161976190Y-83003390D01*
X135666666Y-93454819D02*
X135666666Y-94169104D01*
X135666666Y-94169104D02*
X135619047Y-94311961D01*
X135619047Y-94311961D02*
X135523809Y-94407200D01*
X135523809Y-94407200D02*
X135380952Y-94454819D01*
X135380952Y-94454819D02*
X135285714Y-94454819D01*
X136047619Y-93454819D02*
X136666666Y-93454819D01*
X136666666Y-93454819D02*
X136333333Y-93835771D01*
X136333333Y-93835771D02*
X136476190Y-93835771D01*
X136476190Y-93835771D02*
X136571428Y-93883390D01*
X136571428Y-93883390D02*
X136619047Y-93931009D01*
X136619047Y-93931009D02*
X136666666Y-94026247D01*
X136666666Y-94026247D02*
X136666666Y-94264342D01*
X136666666Y-94264342D02*
X136619047Y-94359580D01*
X136619047Y-94359580D02*
X136571428Y-94407200D01*
X136571428Y-94407200D02*
X136476190Y-94454819D01*
X136476190Y-94454819D02*
X136190476Y-94454819D01*
X136190476Y-94454819D02*
X136095238Y-94407200D01*
X136095238Y-94407200D02*
X136047619Y-94359580D01*
X147166666Y-93454819D02*
X147166666Y-94169104D01*
X147166666Y-94169104D02*
X147119047Y-94311961D01*
X147119047Y-94311961D02*
X147023809Y-94407200D01*
X147023809Y-94407200D02*
X146880952Y-94454819D01*
X146880952Y-94454819D02*
X146785714Y-94454819D01*
X148071428Y-93788152D02*
X148071428Y-94454819D01*
X147833333Y-93407200D02*
X147595238Y-94121485D01*
X147595238Y-94121485D02*
X148214285Y-94121485D01*
X112583333Y-52109580D02*
X112535714Y-52157200D01*
X112535714Y-52157200D02*
X112392857Y-52204819D01*
X112392857Y-52204819D02*
X112297619Y-52204819D01*
X112297619Y-52204819D02*
X112154762Y-52157200D01*
X112154762Y-52157200D02*
X112059524Y-52061961D01*
X112059524Y-52061961D02*
X112011905Y-51966723D01*
X112011905Y-51966723D02*
X111964286Y-51776247D01*
X111964286Y-51776247D02*
X111964286Y-51633390D01*
X111964286Y-51633390D02*
X112011905Y-51442914D01*
X112011905Y-51442914D02*
X112059524Y-51347676D01*
X112059524Y-51347676D02*
X112154762Y-51252438D01*
X112154762Y-51252438D02*
X112297619Y-51204819D01*
X112297619Y-51204819D02*
X112392857Y-51204819D01*
X112392857Y-51204819D02*
X112535714Y-51252438D01*
X112535714Y-51252438D02*
X112583333Y-51300057D01*
X113535714Y-52204819D02*
X112964286Y-52204819D01*
X113250000Y-52204819D02*
X113250000Y-51204819D01*
X113250000Y-51204819D02*
X113154762Y-51347676D01*
X113154762Y-51347676D02*
X113059524Y-51442914D01*
X113059524Y-51442914D02*
X112964286Y-51490533D01*
X108036666Y-50724819D02*
X108036666Y-51439104D01*
X108036666Y-51439104D02*
X107989047Y-51581961D01*
X107989047Y-51581961D02*
X107893809Y-51677200D01*
X107893809Y-51677200D02*
X107750952Y-51724819D01*
X107750952Y-51724819D02*
X107655714Y-51724819D01*
X109036666Y-51724819D02*
X108465238Y-51724819D01*
X108750952Y-51724819D02*
X108750952Y-50724819D01*
X108750952Y-50724819D02*
X108655714Y-50867676D01*
X108655714Y-50867676D02*
X108560476Y-50962914D01*
X108560476Y-50962914D02*
X108465238Y-51010533D01*
D12*
X160120000Y-54040000D02*
X161500000Y-54040000D01*
X160120000Y-55420000D02*
X160120000Y-54040000D01*
X160120000Y-56690000D02*
X160120000Y-61880000D01*
X160120000Y-56690000D02*
X162880000Y-56690000D01*
X160120000Y-61880000D02*
X162880000Y-61880000D01*
X162880000Y-56690000D02*
X162880000Y-61880000D01*
X101620000Y-86620000D02*
X103000000Y-86620000D01*
X101620000Y-88000000D02*
X101620000Y-86620000D01*
X101620000Y-89270000D02*
X101620000Y-91920000D01*
X101620000Y-89270000D02*
X104380000Y-89270000D01*
X101620000Y-91920000D02*
X104380000Y-91920000D01*
X104380000Y-89270000D02*
X104380000Y-91920000D01*
X119880000Y-57630000D02*
X125120000Y-57630000D01*
X119880000Y-57967000D02*
X119880000Y-57630000D01*
X119880000Y-60370000D02*
X119880000Y-60033000D01*
X125120000Y-57630000D02*
X125120000Y-57967000D01*
X125120000Y-60033000D02*
X125120000Y-60370000D01*
X125120000Y-60370000D02*
X119880000Y-60370000D01*
X134880000Y-57630000D02*
X140120000Y-57630000D01*
X134880000Y-57967000D02*
X134880000Y-57630000D01*
X134880000Y-60370000D02*
X134880000Y-60033000D01*
X140120000Y-57630000D02*
X140120000Y-57967000D01*
X140120000Y-60033000D02*
X140120000Y-60370000D01*
X140120000Y-60370000D02*
X134880000Y-60370000D01*
X143730000Y-85130000D02*
X150270000Y-85130000D01*
X143730000Y-85460000D02*
X143730000Y-85130000D01*
X143730000Y-87540000D02*
X143730000Y-87870000D01*
X143730000Y-87870000D02*
X150270000Y-87870000D01*
X150270000Y-85130000D02*
X150270000Y-85460000D01*
X150270000Y-87870000D02*
X150270000Y-87540000D01*
X124390000Y-97880000D02*
X124390000Y-96500000D01*
X125770000Y-97880000D02*
X124390000Y-97880000D01*
X127040000Y-95120000D02*
X134770000Y-95120000D01*
X127040000Y-97880000D02*
X127040000Y-95120000D01*
X127040000Y-97880000D02*
X134770000Y-97880000D01*
X134770000Y-97880000D02*
X134770000Y-95120000D01*
X110195225Y-86525000D02*
X110695225Y-86525000D01*
X110445225Y-86275000D02*
X110445225Y-86775000D01*
X113000000Y-85420000D02*
X113000000Y-86960000D01*
X113000000Y-89040000D02*
X113000000Y-90580000D01*
X113040000Y-85420000D02*
X113040000Y-86960000D01*
X113040000Y-89040000D02*
X113040000Y-90580000D01*
X113080000Y-85421000D02*
X113080000Y-86960000D01*
X113080000Y-89040000D02*
X113080000Y-90579000D01*
X113120000Y-85423000D02*
X113120000Y-86960000D01*
X113120000Y-89040000D02*
X113120000Y-90577000D01*
X113160000Y-85425000D02*
X113160000Y-86960000D01*
X113160000Y-89040000D02*
X113160000Y-90575000D01*
X113200000Y-85428000D02*
X113200000Y-86960000D01*
X113200000Y-89040000D02*
X113200000Y-90572000D01*
X113240000Y-85431000D02*
X113240000Y-86960000D01*
X113240000Y-89040000D02*
X113240000Y-90569000D01*
X113280000Y-85435000D02*
X113280000Y-86960000D01*
X113280000Y-89040000D02*
X113280000Y-90565000D01*
X113320000Y-85440000D02*
X113320000Y-86960000D01*
X113320000Y-89040000D02*
X113320000Y-90560000D01*
X113360000Y-85445000D02*
X113360000Y-86960000D01*
X113360000Y-89040000D02*
X113360000Y-90555000D01*
X113400000Y-85451000D02*
X113400000Y-86960000D01*
X113400000Y-89040000D02*
X113400000Y-90549000D01*
X113440000Y-85457000D02*
X113440000Y-86960000D01*
X113440000Y-89040000D02*
X113440000Y-90543000D01*
X113480000Y-85464000D02*
X113480000Y-86960000D01*
X113480000Y-89040000D02*
X113480000Y-90536000D01*
X113520000Y-85472000D02*
X113520000Y-86960000D01*
X113520000Y-89040000D02*
X113520000Y-90528000D01*
X113560000Y-85481000D02*
X113560000Y-86960000D01*
X113560000Y-89040000D02*
X113560000Y-90519000D01*
X113600000Y-85490000D02*
X113600000Y-86960000D01*
X113600000Y-89040000D02*
X113600000Y-90510000D01*
X113640000Y-85499000D02*
X113640000Y-86960000D01*
X113640000Y-89040000D02*
X113640000Y-90501000D01*
X113680000Y-85510000D02*
X113680000Y-86960000D01*
X113680000Y-89040000D02*
X113680000Y-90490000D01*
X113720000Y-85521000D02*
X113720000Y-86960000D01*
X113720000Y-89040000D02*
X113720000Y-90479000D01*
X113760000Y-85533000D02*
X113760000Y-86960000D01*
X113760000Y-89040000D02*
X113760000Y-90467000D01*
X113800000Y-85545000D02*
X113800000Y-86960000D01*
X113800000Y-89040000D02*
X113800000Y-90455000D01*
X113840000Y-85558000D02*
X113840000Y-86960000D01*
X113840000Y-89040000D02*
X113840000Y-90442000D01*
X113880000Y-85572000D02*
X113880000Y-86960000D01*
X113880000Y-89040000D02*
X113880000Y-90428000D01*
X113920000Y-85587000D02*
X113920000Y-86960000D01*
X113920000Y-89040000D02*
X113920000Y-90413000D01*
X113960000Y-85602000D02*
X113960000Y-86960000D01*
X113960000Y-89040000D02*
X113960000Y-90398000D01*
X114000000Y-85618000D02*
X114000000Y-86960000D01*
X114000000Y-89040000D02*
X114000000Y-90382000D01*
X114040000Y-85635000D02*
X114040000Y-86960000D01*
X114040000Y-89040000D02*
X114040000Y-90365000D01*
X114080000Y-85653000D02*
X114080000Y-86960000D01*
X114080000Y-89040000D02*
X114080000Y-90347000D01*
X114120000Y-85671000D02*
X114120000Y-86960000D01*
X114120000Y-89040000D02*
X114120000Y-90329000D01*
X114160000Y-85691000D02*
X114160000Y-86960000D01*
X114160000Y-89040000D02*
X114160000Y-90309000D01*
X114200000Y-85711000D02*
X114200000Y-86960000D01*
X114200000Y-89040000D02*
X114200000Y-90289000D01*
X114240000Y-85732000D02*
X114240000Y-86960000D01*
X114240000Y-89040000D02*
X114240000Y-90268000D01*
X114280000Y-85754000D02*
X114280000Y-86960000D01*
X114280000Y-89040000D02*
X114280000Y-90246000D01*
X114320000Y-85777000D02*
X114320000Y-86960000D01*
X114320000Y-89040000D02*
X114320000Y-90223000D01*
X114360000Y-85801000D02*
X114360000Y-86960000D01*
X114360000Y-89040000D02*
X114360000Y-90199000D01*
X114400000Y-85825000D02*
X114400000Y-86960000D01*
X114400000Y-89040000D02*
X114400000Y-90175000D01*
X114440000Y-85851000D02*
X114440000Y-86960000D01*
X114440000Y-89040000D02*
X114440000Y-90149000D01*
X114480000Y-85878000D02*
X114480000Y-86960000D01*
X114480000Y-89040000D02*
X114480000Y-90122000D01*
X114520000Y-85906000D02*
X114520000Y-86960000D01*
X114520000Y-89040000D02*
X114520000Y-90094000D01*
X114560000Y-85935000D02*
X114560000Y-86960000D01*
X114560000Y-89040000D02*
X114560000Y-90065000D01*
X114600000Y-85965000D02*
X114600000Y-86960000D01*
X114600000Y-89040000D02*
X114600000Y-90035000D01*
X114640000Y-85997000D02*
X114640000Y-86960000D01*
X114640000Y-89040000D02*
X114640000Y-90003000D01*
X114680000Y-86030000D02*
X114680000Y-86960000D01*
X114680000Y-89040000D02*
X114680000Y-89970000D01*
X114720000Y-86064000D02*
X114720000Y-86960000D01*
X114720000Y-89040000D02*
X114720000Y-89936000D01*
X114760000Y-86099000D02*
X114760000Y-86960000D01*
X114760000Y-89040000D02*
X114760000Y-89901000D01*
X114800000Y-86136000D02*
X114800000Y-86960000D01*
X114800000Y-89040000D02*
X114800000Y-89864000D01*
X114840000Y-86175000D02*
X114840000Y-86960000D01*
X114840000Y-89040000D02*
X114840000Y-89825000D01*
X114880000Y-86215000D02*
X114880000Y-86960000D01*
X114880000Y-89040000D02*
X114880000Y-89785000D01*
X114920000Y-86257000D02*
X114920000Y-86960000D01*
X114920000Y-89040000D02*
X114920000Y-89743000D01*
X114960000Y-86301000D02*
X114960000Y-86960000D01*
X114960000Y-89040000D02*
X114960000Y-89699000D01*
X115000000Y-86348000D02*
X115000000Y-86960000D01*
X115000000Y-89040000D02*
X115000000Y-89652000D01*
X115040000Y-86396000D02*
X115040000Y-89604000D01*
X115080000Y-86447000D02*
X115080000Y-89553000D01*
X115120000Y-86501000D02*
X115120000Y-89499000D01*
X115160000Y-86557000D02*
X115160000Y-89443000D01*
X115200000Y-86617000D02*
X115200000Y-89383000D01*
X115240000Y-86681000D02*
X115240000Y-89319000D01*
X115280000Y-86749000D02*
X115280000Y-89251000D01*
X115320000Y-86823000D02*
X115320000Y-89177000D01*
X115360000Y-86902000D02*
X115360000Y-89098000D01*
X115400000Y-86989000D02*
X115400000Y-89011000D01*
X115440000Y-87086000D02*
X115440000Y-88914000D01*
X115480000Y-87195000D02*
X115480000Y-88805000D01*
X115520000Y-87323000D02*
X115520000Y-88677000D01*
X115560000Y-87483000D02*
X115560000Y-88517000D01*
X115600000Y-87717000D02*
X115600000Y-88283000D01*
X115620000Y-88000000D02*
G75*
G02*
X110380000Y-88000000I-2620000J0D01*
G01*
X110380000Y-88000000D02*
G75*
G02*
X115620000Y-88000000I2620000J0D01*
G01*
X150880000Y-57630000D02*
X156120000Y-57630000D01*
X150880000Y-57967000D02*
X150880000Y-57630000D01*
X150880000Y-60370000D02*
X150880000Y-60033000D01*
X156120000Y-57630000D02*
X156120000Y-57967000D01*
X156120000Y-60033000D02*
X156120000Y-60370000D01*
X156120000Y-60370000D02*
X150880000Y-60370000D01*
X125880225Y-86675000D02*
X126380225Y-86675000D01*
X126130225Y-86425000D02*
X126130225Y-86925000D01*
X128685000Y-85570000D02*
X128685000Y-87110000D01*
X128685000Y-89190000D02*
X128685000Y-90730000D01*
X128725000Y-85570000D02*
X128725000Y-87110000D01*
X128725000Y-89190000D02*
X128725000Y-90730000D01*
X128765000Y-85571000D02*
X128765000Y-87110000D01*
X128765000Y-89190000D02*
X128765000Y-90729000D01*
X128805000Y-85573000D02*
X128805000Y-87110000D01*
X128805000Y-89190000D02*
X128805000Y-90727000D01*
X128845000Y-85575000D02*
X128845000Y-87110000D01*
X128845000Y-89190000D02*
X128845000Y-90725000D01*
X128885000Y-85578000D02*
X128885000Y-87110000D01*
X128885000Y-89190000D02*
X128885000Y-90722000D01*
X128925000Y-85581000D02*
X128925000Y-87110000D01*
X128925000Y-89190000D02*
X128925000Y-90719000D01*
X128965000Y-85585000D02*
X128965000Y-87110000D01*
X128965000Y-89190000D02*
X128965000Y-90715000D01*
X129005000Y-85590000D02*
X129005000Y-87110000D01*
X129005000Y-89190000D02*
X129005000Y-90710000D01*
X129045000Y-85595000D02*
X129045000Y-87110000D01*
X129045000Y-89190000D02*
X129045000Y-90705000D01*
X129085000Y-85601000D02*
X129085000Y-87110000D01*
X129085000Y-89190000D02*
X129085000Y-90699000D01*
X129125000Y-85607000D02*
X129125000Y-87110000D01*
X129125000Y-89190000D02*
X129125000Y-90693000D01*
X129165000Y-85614000D02*
X129165000Y-87110000D01*
X129165000Y-89190000D02*
X129165000Y-90686000D01*
X129205000Y-85622000D02*
X129205000Y-87110000D01*
X129205000Y-89190000D02*
X129205000Y-90678000D01*
X129245000Y-85631000D02*
X129245000Y-87110000D01*
X129245000Y-89190000D02*
X129245000Y-90669000D01*
X129285000Y-85640000D02*
X129285000Y-87110000D01*
X129285000Y-89190000D02*
X129285000Y-90660000D01*
X129325000Y-85649000D02*
X129325000Y-87110000D01*
X129325000Y-89190000D02*
X129325000Y-90651000D01*
X129365000Y-85660000D02*
X129365000Y-87110000D01*
X129365000Y-89190000D02*
X129365000Y-90640000D01*
X129405000Y-85671000D02*
X129405000Y-87110000D01*
X129405000Y-89190000D02*
X129405000Y-90629000D01*
X129445000Y-85683000D02*
X129445000Y-87110000D01*
X129445000Y-89190000D02*
X129445000Y-90617000D01*
X129485000Y-85695000D02*
X129485000Y-87110000D01*
X129485000Y-89190000D02*
X129485000Y-90605000D01*
X129525000Y-85708000D02*
X129525000Y-87110000D01*
X129525000Y-89190000D02*
X129525000Y-90592000D01*
X129565000Y-85722000D02*
X129565000Y-87110000D01*
X129565000Y-89190000D02*
X129565000Y-90578000D01*
X129605000Y-85737000D02*
X129605000Y-87110000D01*
X129605000Y-89190000D02*
X129605000Y-90563000D01*
X129645000Y-85752000D02*
X129645000Y-87110000D01*
X129645000Y-89190000D02*
X129645000Y-90548000D01*
X129685000Y-85768000D02*
X129685000Y-87110000D01*
X129685000Y-89190000D02*
X129685000Y-90532000D01*
X129725000Y-85785000D02*
X129725000Y-87110000D01*
X129725000Y-89190000D02*
X129725000Y-90515000D01*
X129765000Y-85803000D02*
X129765000Y-87110000D01*
X129765000Y-89190000D02*
X129765000Y-90497000D01*
X129805000Y-85821000D02*
X129805000Y-87110000D01*
X129805000Y-89190000D02*
X129805000Y-90479000D01*
X129845000Y-85841000D02*
X129845000Y-87110000D01*
X129845000Y-89190000D02*
X129845000Y-90459000D01*
X129885000Y-85861000D02*
X129885000Y-87110000D01*
X129885000Y-89190000D02*
X129885000Y-90439000D01*
X129925000Y-85882000D02*
X129925000Y-87110000D01*
X129925000Y-89190000D02*
X129925000Y-90418000D01*
X129965000Y-85904000D02*
X129965000Y-87110000D01*
X129965000Y-89190000D02*
X129965000Y-90396000D01*
X130005000Y-85927000D02*
X130005000Y-87110000D01*
X130005000Y-89190000D02*
X130005000Y-90373000D01*
X130045000Y-85951000D02*
X130045000Y-87110000D01*
X130045000Y-89190000D02*
X130045000Y-90349000D01*
X130085000Y-85975000D02*
X130085000Y-87110000D01*
X130085000Y-89190000D02*
X130085000Y-90325000D01*
X130125000Y-86001000D02*
X130125000Y-87110000D01*
X130125000Y-89190000D02*
X130125000Y-90299000D01*
X130165000Y-86028000D02*
X130165000Y-87110000D01*
X130165000Y-89190000D02*
X130165000Y-90272000D01*
X130205000Y-86056000D02*
X130205000Y-87110000D01*
X130205000Y-89190000D02*
X130205000Y-90244000D01*
X130245000Y-86085000D02*
X130245000Y-87110000D01*
X130245000Y-89190000D02*
X130245000Y-90215000D01*
X130285000Y-86115000D02*
X130285000Y-87110000D01*
X130285000Y-89190000D02*
X130285000Y-90185000D01*
X130325000Y-86147000D02*
X130325000Y-87110000D01*
X130325000Y-89190000D02*
X130325000Y-90153000D01*
X130365000Y-86180000D02*
X130365000Y-87110000D01*
X130365000Y-89190000D02*
X130365000Y-90120000D01*
X130405000Y-86214000D02*
X130405000Y-87110000D01*
X130405000Y-89190000D02*
X130405000Y-90086000D01*
X130445000Y-86249000D02*
X130445000Y-87110000D01*
X130445000Y-89190000D02*
X130445000Y-90051000D01*
X130485000Y-86286000D02*
X130485000Y-87110000D01*
X130485000Y-89190000D02*
X130485000Y-90014000D01*
X130525000Y-86325000D02*
X130525000Y-87110000D01*
X130525000Y-89190000D02*
X130525000Y-89975000D01*
X130565000Y-86365000D02*
X130565000Y-87110000D01*
X130565000Y-89190000D02*
X130565000Y-89935000D01*
X130605000Y-86407000D02*
X130605000Y-87110000D01*
X130605000Y-89190000D02*
X130605000Y-89893000D01*
X130645000Y-86451000D02*
X130645000Y-87110000D01*
X130645000Y-89190000D02*
X130645000Y-89849000D01*
X130685000Y-86498000D02*
X130685000Y-87110000D01*
X130685000Y-89190000D02*
X130685000Y-89802000D01*
X130725000Y-86546000D02*
X130725000Y-89754000D01*
X130765000Y-86597000D02*
X130765000Y-89703000D01*
X130805000Y-86651000D02*
X130805000Y-89649000D01*
X130845000Y-86707000D02*
X130845000Y-89593000D01*
X130885000Y-86767000D02*
X130885000Y-89533000D01*
X130925000Y-86831000D02*
X130925000Y-89469000D01*
X130965000Y-86899000D02*
X130965000Y-89401000D01*
X131005000Y-86973000D02*
X131005000Y-89327000D01*
X131045000Y-87052000D02*
X131045000Y-89248000D01*
X131085000Y-87139000D02*
X131085000Y-89161000D01*
X131125000Y-87236000D02*
X131125000Y-89064000D01*
X131165000Y-87345000D02*
X131165000Y-88955000D01*
X131205000Y-87473000D02*
X131205000Y-88827000D01*
X131245000Y-87633000D02*
X131245000Y-88667000D01*
X131285000Y-87867000D02*
X131285000Y-88433000D01*
X131305000Y-88150000D02*
G75*
G02*
X126065000Y-88150000I-2620000J0D01*
G01*
X126065000Y-88150000D02*
G75*
G02*
X131305000Y-88150000I2620000J0D01*
G01*
X128540000Y-64430000D02*
X128540000Y-84870000D01*
X128540000Y-84870000D02*
X133840000Y-84870000D01*
X130190000Y-64430000D02*
X128540000Y-64430000D01*
X133840000Y-64430000D02*
X132190000Y-64430000D01*
X133840000Y-84870000D02*
X133840000Y-64430000D01*
X132190000Y-64430000D02*
G75*
G02*
X130190000Y-64430000I-1000000J0D01*
G01*
X119880000Y-61130000D02*
X125120000Y-61130000D01*
X119880000Y-61467000D02*
X119880000Y-61130000D01*
X119880000Y-63870000D02*
X119880000Y-63533000D01*
X125120000Y-61130000D02*
X125120000Y-61467000D01*
X125120000Y-63533000D02*
X125120000Y-63870000D01*
X125120000Y-63870000D02*
X119880000Y-63870000D01*
X144355000Y-65050000D02*
X144355000Y-82950000D01*
X144355000Y-82950000D02*
X149655000Y-82950000D01*
X146005000Y-65050000D02*
X144355000Y-65050000D01*
X149655000Y-65050000D02*
X148005000Y-65050000D01*
X149655000Y-82950000D02*
X149655000Y-65050000D01*
X148005000Y-65050000D02*
G75*
G02*
X146005000Y-65050000I-1000000J0D01*
G01*
X160120000Y-64040000D02*
X161500000Y-64040000D01*
X160120000Y-65420000D02*
X160120000Y-64040000D01*
X160120000Y-66690000D02*
X160120000Y-71880000D01*
X160120000Y-66690000D02*
X162880000Y-66690000D01*
X160120000Y-71880000D02*
X162880000Y-71880000D01*
X162880000Y-66690000D02*
X162880000Y-71880000D01*
X101620000Y-54120000D02*
X103000000Y-54120000D01*
X101620000Y-55500000D02*
X101620000Y-54120000D01*
X101620000Y-56770000D02*
X101620000Y-59420000D01*
X101620000Y-56770000D02*
X104380000Y-56770000D01*
X101620000Y-59420000D02*
X104380000Y-59420000D01*
X104380000Y-56770000D02*
X104380000Y-59420000D01*
X113170000Y-64470000D02*
X113170000Y-84910000D01*
X113170000Y-84910000D02*
X118470000Y-84910000D01*
X114820000Y-64470000D02*
X113170000Y-64470000D01*
X118470000Y-64470000D02*
X116820000Y-64470000D01*
X118470000Y-84910000D02*
X118470000Y-64470000D01*
X116820000Y-64470000D02*
G75*
G02*
X114820000Y-64470000I-1000000J0D01*
G01*
X160120000Y-74120000D02*
X161500000Y-74120000D01*
X160120000Y-75500000D02*
X160120000Y-74120000D01*
X160120000Y-76770000D02*
X160120000Y-81960000D01*
X160120000Y-76770000D02*
X162880000Y-76770000D01*
X160120000Y-81960000D02*
X162880000Y-81960000D01*
X162880000Y-76770000D02*
X162880000Y-81960000D01*
X101620000Y-78120000D02*
X103000000Y-78120000D01*
X101620000Y-79500000D02*
X101620000Y-78120000D01*
X101620000Y-80770000D02*
X101620000Y-83420000D01*
X101620000Y-80770000D02*
X104380000Y-80770000D01*
X101620000Y-83420000D02*
X104380000Y-83420000D01*
X104380000Y-80770000D02*
X104380000Y-83420000D01*
X138630000Y-79730000D02*
X138630000Y-86270000D01*
X138630000Y-86270000D02*
X138960000Y-86270000D01*
X138960000Y-79730000D02*
X138630000Y-79730000D01*
X141040000Y-79730000D02*
X141370000Y-79730000D01*
X141370000Y-79730000D02*
X141370000Y-86270000D01*
X141370000Y-86270000D02*
X141040000Y-86270000D01*
X101620000Y-62620000D02*
X103000000Y-62620000D01*
X101620000Y-64000000D02*
X101620000Y-62620000D01*
X101620000Y-65270000D02*
X101620000Y-67920000D01*
X101620000Y-65270000D02*
X104380000Y-65270000D01*
X101620000Y-67920000D02*
X104380000Y-67920000D01*
X104380000Y-65270000D02*
X104380000Y-67920000D01*
X150880000Y-61130000D02*
X156120000Y-61130000D01*
X150880000Y-61467000D02*
X150880000Y-61130000D01*
X150880000Y-63870000D02*
X150880000Y-63533000D01*
X156120000Y-61130000D02*
X156120000Y-61467000D01*
X156120000Y-63533000D02*
X156120000Y-63870000D01*
X156120000Y-63870000D02*
X150880000Y-63870000D01*
X134880000Y-61130000D02*
X140120000Y-61130000D01*
X134880000Y-61467000D02*
X134880000Y-61130000D01*
X134880000Y-63870000D02*
X134880000Y-63533000D01*
X140120000Y-61130000D02*
X140120000Y-61467000D01*
X140120000Y-63533000D02*
X140120000Y-63870000D01*
X140120000Y-63870000D02*
X134880000Y-63870000D01*
X160120000Y-84120000D02*
X161500000Y-84120000D01*
X160120000Y-85500000D02*
X160120000Y-84120000D01*
X160120000Y-86770000D02*
X160120000Y-91960000D01*
X160120000Y-86770000D02*
X162880000Y-86770000D01*
X160120000Y-91960000D02*
X162880000Y-91960000D01*
X162880000Y-86770000D02*
X162880000Y-91960000D01*
X135620000Y-97880000D02*
X135620000Y-96500000D01*
X137000000Y-97880000D02*
X135620000Y-97880000D01*
X138270000Y-95120000D02*
X146000000Y-95120000D01*
X138270000Y-97880000D02*
X138270000Y-95120000D01*
X138270000Y-97880000D02*
X146000000Y-97880000D01*
X146000000Y-97880000D02*
X146000000Y-95120000D01*
X146620000Y-97880000D02*
X146620000Y-96500000D01*
X148000000Y-97880000D02*
X146620000Y-97880000D01*
X149270000Y-95120000D02*
X157000000Y-95120000D01*
X149270000Y-97880000D02*
X149270000Y-95120000D01*
X149270000Y-97880000D02*
X157000000Y-97880000D01*
X157000000Y-97880000D02*
X157000000Y-95120000D01*
X108340302Y-54685000D02*
X109140302Y-54685000D01*
X108740302Y-54285000D02*
X108740302Y-55085000D01*
X112750000Y-52920000D02*
X112750000Y-61080000D01*
X112790000Y-52920000D02*
X112790000Y-61080000D01*
X112830000Y-52921000D02*
X112830000Y-61079000D01*
X112870000Y-52922000D02*
X112870000Y-61078000D01*
X112910000Y-52923000D02*
X112910000Y-61077000D01*
X112950000Y-52925000D02*
X112950000Y-61075000D01*
X112990000Y-52927000D02*
X112990000Y-55960000D01*
X112990000Y-58040000D02*
X112990000Y-61073000D01*
X113030000Y-52930000D02*
X113030000Y-55960000D01*
X113030000Y-58040000D02*
X113030000Y-61070000D01*
X113070000Y-52932000D02*
X113070000Y-55960000D01*
X113070000Y-58040000D02*
X113070000Y-61068000D01*
X113110000Y-52936000D02*
X113110000Y-55960000D01*
X113110000Y-58040000D02*
X113110000Y-61064000D01*
X113150000Y-52939000D02*
X113150000Y-55960000D01*
X113150000Y-58040000D02*
X113150000Y-61061000D01*
X113190000Y-52944000D02*
X113190000Y-55960000D01*
X113190000Y-58040000D02*
X113190000Y-61056000D01*
X113230000Y-52948000D02*
X113230000Y-55960000D01*
X113230000Y-58040000D02*
X113230000Y-61052000D01*
X113270000Y-52953000D02*
X113270000Y-55960000D01*
X113270000Y-58040000D02*
X113270000Y-61047000D01*
X113310000Y-52958000D02*
X113310000Y-55960000D01*
X113310000Y-58040000D02*
X113310000Y-61042000D01*
X113350000Y-52964000D02*
X113350000Y-55960000D01*
X113350000Y-58040000D02*
X113350000Y-61036000D01*
X113390000Y-52970000D02*
X113390000Y-55960000D01*
X113390000Y-58040000D02*
X113390000Y-61030000D01*
X113430000Y-52977000D02*
X113430000Y-55960000D01*
X113430000Y-58040000D02*
X113430000Y-61023000D01*
X113470000Y-52983000D02*
X113470000Y-55960000D01*
X113470000Y-58040000D02*
X113470000Y-61017000D01*
X113510000Y-52991000D02*
X113510000Y-55960000D01*
X113510000Y-58040000D02*
X113510000Y-61009000D01*
X113550000Y-52998000D02*
X113550000Y-55960000D01*
X113550000Y-58040000D02*
X113550000Y-61002000D01*
X113590000Y-53007000D02*
X113590000Y-55960000D01*
X113590000Y-58040000D02*
X113590000Y-60993000D01*
X113630000Y-53015000D02*
X113630000Y-55960000D01*
X113630000Y-58040000D02*
X113630000Y-60985000D01*
X113670000Y-53024000D02*
X113670000Y-55960000D01*
X113670000Y-58040000D02*
X113670000Y-60976000D01*
X113710000Y-53033000D02*
X113710000Y-55960000D01*
X113710000Y-58040000D02*
X113710000Y-60967000D01*
X113750000Y-53043000D02*
X113750000Y-55960000D01*
X113750000Y-58040000D02*
X113750000Y-60957000D01*
X113790000Y-53053000D02*
X113790000Y-55960000D01*
X113790000Y-58040000D02*
X113790000Y-60947000D01*
X113830000Y-53064000D02*
X113830000Y-55960000D01*
X113830000Y-58040000D02*
X113830000Y-60936000D01*
X113870000Y-53075000D02*
X113870000Y-55960000D01*
X113870000Y-58040000D02*
X113870000Y-60925000D01*
X113910000Y-53087000D02*
X113910000Y-55960000D01*
X113910000Y-58040000D02*
X113910000Y-60913000D01*
X113950000Y-53099000D02*
X113950000Y-55960000D01*
X113950000Y-58040000D02*
X113950000Y-60901000D01*
X113990000Y-53111000D02*
X113990000Y-55960000D01*
X113990000Y-58040000D02*
X113990000Y-60889000D01*
X114030000Y-53124000D02*
X114030000Y-55960000D01*
X114030000Y-58040000D02*
X114030000Y-60876000D01*
X114070000Y-53137000D02*
X114070000Y-55960000D01*
X114070000Y-58040000D02*
X114070000Y-60863000D01*
X114110000Y-53151000D02*
X114110000Y-55960000D01*
X114110000Y-58040000D02*
X114110000Y-60849000D01*
X114150000Y-53165000D02*
X114150000Y-55960000D01*
X114150000Y-58040000D02*
X114150000Y-60835000D01*
X114190000Y-53180000D02*
X114190000Y-55960000D01*
X114190000Y-58040000D02*
X114190000Y-60820000D01*
X114230000Y-53195000D02*
X114230000Y-55960000D01*
X114230000Y-58040000D02*
X114230000Y-60805000D01*
X114270000Y-53211000D02*
X114270000Y-55960000D01*
X114270000Y-58040000D02*
X114270000Y-60789000D01*
X114310000Y-53227000D02*
X114310000Y-55960000D01*
X114310000Y-58040000D02*
X114310000Y-60773000D01*
X114350000Y-53243000D02*
X114350000Y-55960000D01*
X114350000Y-58040000D02*
X114350000Y-60757000D01*
X114390000Y-53260000D02*
X114390000Y-55960000D01*
X114390000Y-58040000D02*
X114390000Y-60740000D01*
X114430000Y-53278000D02*
X114430000Y-55960000D01*
X114430000Y-58040000D02*
X114430000Y-60722000D01*
X114470000Y-53296000D02*
X114470000Y-55960000D01*
X114470000Y-58040000D02*
X114470000Y-60704000D01*
X114510000Y-53315000D02*
X114510000Y-55960000D01*
X114510000Y-58040000D02*
X114510000Y-60685000D01*
X114550000Y-53334000D02*
X114550000Y-55960000D01*
X114550000Y-58040000D02*
X114550000Y-60666000D01*
X114590000Y-53354000D02*
X114590000Y-55960000D01*
X114590000Y-58040000D02*
X114590000Y-60646000D01*
X114630000Y-53374000D02*
X114630000Y-55960000D01*
X114630000Y-58040000D02*
X114630000Y-60626000D01*
X114670000Y-53395000D02*
X114670000Y-55960000D01*
X114670000Y-58040000D02*
X114670000Y-60605000D01*
X114710000Y-53416000D02*
X114710000Y-55960000D01*
X114710000Y-58040000D02*
X114710000Y-60584000D01*
X114750000Y-53438000D02*
X114750000Y-55960000D01*
X114750000Y-58040000D02*
X114750000Y-60562000D01*
X114790000Y-53461000D02*
X114790000Y-55960000D01*
X114790000Y-58040000D02*
X114790000Y-60539000D01*
X114830000Y-53484000D02*
X114830000Y-55960000D01*
X114830000Y-58040000D02*
X114830000Y-60516000D01*
X114870000Y-53507000D02*
X114870000Y-55960000D01*
X114870000Y-58040000D02*
X114870000Y-60493000D01*
X114910000Y-53532000D02*
X114910000Y-55960000D01*
X114910000Y-58040000D02*
X114910000Y-60468000D01*
X114950000Y-53557000D02*
X114950000Y-55960000D01*
X114950000Y-58040000D02*
X114950000Y-60443000D01*
X114990000Y-53582000D02*
X114990000Y-55960000D01*
X114990000Y-58040000D02*
X114990000Y-60418000D01*
X115030000Y-53608000D02*
X115030000Y-55960000D01*
X115030000Y-58040000D02*
X115030000Y-60392000D01*
X115070000Y-53635000D02*
X115070000Y-60365000D01*
X115110000Y-53663000D02*
X115110000Y-60337000D01*
X115150000Y-53691000D02*
X115150000Y-60309000D01*
X115190000Y-53720000D02*
X115190000Y-60280000D01*
X115230000Y-53750000D02*
X115230000Y-60250000D01*
X115270000Y-53781000D02*
X115270000Y-60219000D01*
X115310000Y-53812000D02*
X115310000Y-60188000D01*
X115350000Y-53844000D02*
X115350000Y-60156000D01*
X115390000Y-53877000D02*
X115390000Y-60123000D01*
X115430000Y-53911000D02*
X115430000Y-60089000D01*
X115470000Y-53945000D02*
X115470000Y-60055000D01*
X115510000Y-53981000D02*
X115510000Y-60019000D01*
X115550000Y-54018000D02*
X115550000Y-59982000D01*
X115590000Y-54055000D02*
X115590000Y-59945000D01*
X115630000Y-54094000D02*
X115630000Y-59906000D01*
X115670000Y-54133000D02*
X115670000Y-59867000D01*
X115710000Y-54174000D02*
X115710000Y-59826000D01*
X115750000Y-54216000D02*
X115750000Y-59784000D01*
X115790000Y-54259000D02*
X115790000Y-59741000D01*
X115830000Y-54304000D02*
X115830000Y-59696000D01*
X115870000Y-54349000D02*
X115870000Y-59651000D01*
X115910000Y-54396000D02*
X115910000Y-59604000D01*
X115950000Y-54445000D02*
X115950000Y-59555000D01*
X115990000Y-54495000D02*
X115990000Y-59505000D01*
X116030000Y-54547000D02*
X116030000Y-59453000D01*
X116070000Y-54600000D02*
X116070000Y-59400000D01*
X116110000Y-54656000D02*
X116110000Y-59344000D01*
X116150000Y-54713000D02*
X116150000Y-59287000D01*
X116190000Y-54773000D02*
X116190000Y-59227000D01*
X116230000Y-54835000D02*
X116230000Y-59165000D01*
X116270000Y-54899000D02*
X116270000Y-59101000D01*
X116310000Y-54966000D02*
X116310000Y-59034000D01*
X116350000Y-55036000D02*
X116350000Y-58964000D01*
X116390000Y-55110000D02*
X116390000Y-58890000D01*
X116430000Y-55187000D02*
X116430000Y-58813000D01*
X116470000Y-55269000D02*
X116470000Y-58731000D01*
X116510000Y-55356000D02*
X116510000Y-58644000D01*
X116550000Y-55448000D02*
X116550000Y-58552000D01*
X116590000Y-55547000D02*
X116590000Y-58453000D01*
X116630000Y-55654000D02*
X116630000Y-58346000D01*
X116670000Y-55772000D02*
X116670000Y-58228000D01*
X116710000Y-55903000D02*
X116710000Y-58097000D01*
X116750000Y-56053000D02*
X116750000Y-57947000D01*
X116790000Y-56232000D02*
X116790000Y-57768000D01*
X116830000Y-56467000D02*
X116830000Y-57533000D01*
X116870000Y-57000000D02*
G75*
G02*
X108630000Y-57000000I-4120000J0D01*
G01*
X108630000Y-57000000D02*
G75*
G02*
X116870000Y-57000000I4120000J0D01*
G01*
D13*
X100000000Y-47000000D02*
X100000000Y-81000000D01*
X100000000Y-47000000D02*
G75*
G02*
X103000000Y-44000000I3000000J0D01*
G01*
X100000000Y-81000000D02*
X100000000Y-97000000D01*
X103000000Y-100000000D02*
G75*
G02*
X100000000Y-97000000I0J3000000D01*
G01*
X103000000Y-100000000D02*
X162000000Y-100000000D01*
X162000000Y-44000000D02*
X103000000Y-44000000D01*
X162000000Y-44000000D02*
G75*
G02*
X165000000Y-47000000I0J-3000000D01*
G01*
X165000000Y-97000000D02*
G75*
G02*
X162000000Y-100000000I-3000000J0D01*
G01*
X165000000Y-97000000D02*
X165000000Y-47000000D01*
M02*
