%TF.GenerationSoftware,KiCad,Pcbnew,10.0.6*%
%TF.CreationDate,2026-09-15T19:47:32-05:00*%
%TF.ProjectId,Reelfoot Rover,5265656c-666f-46f7-9420-526f7665722e,rev?*%
%TF.SameCoordinates,Original*%
%TF.FileFunction,Copper,L2,Bot*%
%TF.FilePolarity,Positive*%
%FSLAX46Y46*%
G04 Gerber Fmt 4.6, Leading zero omitted, Abs format (unit mm)*
G04 Created by KiCad (PCBNEW 10.0.6) date 2026-09-15 19:47:32*
%MOMM*%
%LPD*%
G01*
G04 APERTURE LIST*
G04 Aperture macros list*
%AMRoundRect*
0 Rectangle with rounded corners*
0 $1 Rounding radius*
0 $2 $3 $4 $5 $6 $7 $8 $9 X,Y pos of 4 corners*
0 Add a 4 corners polygon primitive as box body*
4,1,4,$2,$3,$4,$5,$6,$7,$8,$9,$2,$3,0*
0 Add four circle primitives for the rounded corners*
1,1,$1+$1,$2,$3*
1,1,$1+$1,$4,$5*
1,1,$1+$1,$6,$7*
1,1,$1+$1,$8,$9*
0 Add four rect primitives between the rounded corners*
20,1,$1+$1,$2,$3,$4,$5,0*
20,1,$1+$1,$4,$5,$6,$7,0*
20,1,$1+$1,$6,$7,$8,$9,0*
20,1,$1+$1,$8,$9,$2,$3,0*%
G04 Aperture macros list end*
%TA.AperFunction,ComponentPad*%
%ADD10R,1.700000X1.700000*%
%TD*%
%TA.AperFunction,ComponentPad*%
%ADD11C,1.700000*%
%TD*%
%TA.AperFunction,ComponentPad*%
%ADD12C,1.600000*%
%TD*%
%TA.AperFunction,ComponentPad*%
%ADD13RoundRect,0.250000X-0.550000X-0.550000X0.550000X-0.550000X0.550000X0.550000X-0.550000X0.550000X0*%
%TD*%
%TA.AperFunction,ComponentPad*%
%ADD14O,1.700000X1.700000*%
%TD*%
%TA.AperFunction,ViaPad*%
%ADD15C,0.900000*%
%TD*%
%TA.AperFunction,Conductor*%
%ADD16C,0.200000*%
%TD*%
%TA.AperFunction,Profile*%
%ADD17C,0.100000*%
%TD*%
G04 APERTURE END LIST*
D10*
X161500000Y-55420000D03*
D11*
X161500000Y-57960000D03*
X161500000Y-60500000D03*
D10*
X103000000Y-88000000D03*
D11*
X103000000Y-90540000D03*
D12*
X120000000Y-59000000D03*
X125000000Y-59000000D03*
X135000000Y-59000000D03*
X140000000Y-59000000D03*
X143190000Y-86500000D03*
X150810000Y-86500000D03*
D10*
X125770000Y-96500000D03*
D11*
X128310000Y-96500000D03*
X130850000Y-96500000D03*
X133390000Y-96500000D03*
D13*
X112000000Y-88000000D03*
D12*
X114000000Y-88000000D03*
X151000000Y-59000000D03*
X156000000Y-59000000D03*
D13*
X127685000Y-88150000D03*
D12*
X129685000Y-88150000D03*
D13*
X127380000Y-65760000D03*
D12*
X127380000Y-68300000D03*
X127380000Y-70840000D03*
X127380000Y-73380000D03*
X127380000Y-75920000D03*
X127380000Y-78460000D03*
X127380000Y-81000000D03*
X127380000Y-83540000D03*
X135000000Y-83540000D03*
X135000000Y-81000000D03*
X135000000Y-78460000D03*
X135000000Y-75920000D03*
X135000000Y-73380000D03*
X135000000Y-70840000D03*
X135000000Y-68300000D03*
X135000000Y-65760000D03*
X120000000Y-62500000D03*
X125000000Y-62500000D03*
D13*
X143195000Y-66380000D03*
D12*
X143195000Y-68920000D03*
X143195000Y-71460000D03*
X143195000Y-74000000D03*
X143195000Y-76540000D03*
X143195000Y-79080000D03*
X143195000Y-81620000D03*
X150815000Y-81620000D03*
X150815000Y-79080000D03*
X150815000Y-76540000D03*
X150815000Y-74000000D03*
X150815000Y-71460000D03*
X150815000Y-68920000D03*
X150815000Y-66380000D03*
D10*
X161500000Y-65420000D03*
D11*
X161500000Y-67960000D03*
X161500000Y-70500000D03*
D10*
X103000000Y-55500000D03*
D11*
X103000000Y-58040000D03*
D13*
X112010000Y-65800000D03*
D12*
X112010000Y-68340000D03*
X112010000Y-70880000D03*
X112010000Y-73420000D03*
X112010000Y-75960000D03*
X112010000Y-78500000D03*
X112010000Y-81040000D03*
X112010000Y-83580000D03*
X119630000Y-83580000D03*
X119630000Y-81040000D03*
X119630000Y-78500000D03*
X119630000Y-75960000D03*
X119630000Y-73420000D03*
X119630000Y-70880000D03*
X119630000Y-68340000D03*
X119630000Y-65800000D03*
D10*
X161500000Y-75500000D03*
D11*
X161500000Y-78040000D03*
X161500000Y-80580000D03*
D10*
X103000000Y-79500000D03*
D11*
X103000000Y-82040000D03*
D12*
X140000000Y-79190000D03*
X140000000Y-86810000D03*
D10*
X103000000Y-64000000D03*
D11*
X103000000Y-66540000D03*
D12*
X151000000Y-62500000D03*
X156000000Y-62500000D03*
X135000000Y-62500000D03*
X140000000Y-62500000D03*
D10*
X161500000Y-85500000D03*
D11*
X161500000Y-88040000D03*
X161500000Y-90580000D03*
D10*
X137000000Y-96500000D03*
D11*
X139540000Y-96500000D03*
X142080000Y-96500000D03*
X144620000Y-96500000D03*
D10*
X148000000Y-96500000D03*
D11*
X150540000Y-96500000D03*
X153080000Y-96500000D03*
X155620000Y-96500000D03*
D13*
X111500000Y-57000000D03*
D12*
X114000000Y-57000000D03*
D10*
X108370000Y-48770000D03*
D14*
X108370000Y-46230000D03*
X110910000Y-48770000D03*
X110910000Y-46230000D03*
X113450000Y-48770000D03*
X113450000Y-46230000D03*
X115990000Y-48770000D03*
X115990000Y-46230000D03*
X118530000Y-48770000D03*
X118530000Y-46230000D03*
X121070000Y-48770000D03*
X121070000Y-46230000D03*
X123610000Y-48770000D03*
X123610000Y-46230000D03*
X126150000Y-48770000D03*
X126150000Y-46230000D03*
X128690000Y-48770000D03*
X128690000Y-46230000D03*
X131230000Y-48770000D03*
X131230000Y-46230000D03*
X133770000Y-48770000D03*
X133770000Y-46230000D03*
X136310000Y-48770000D03*
X136310000Y-46230000D03*
X138850000Y-48770000D03*
X138850000Y-46230000D03*
X141390000Y-48770000D03*
X141390000Y-46230000D03*
X143930000Y-48770000D03*
X143930000Y-46230000D03*
X146470000Y-48770000D03*
X146470000Y-46230000D03*
X149010000Y-48770000D03*
X149010000Y-46230000D03*
X151550000Y-48770000D03*
X151550000Y-46230000D03*
X154090000Y-48770000D03*
X154090000Y-46230000D03*
X156630000Y-48770000D03*
X156630000Y-46230000D03*
D15*
X118500000Y-98000000D03*
X132500000Y-65500000D03*
X137500000Y-80310000D03*
X149500000Y-84000000D03*
X153450000Y-84000000D03*
X147500000Y-63000000D03*
X106500000Y-62850000D03*
X107000000Y-65000000D03*
X148500000Y-61000000D03*
X129000000Y-60500000D03*
X133500000Y-60500000D03*
X124500000Y-77500000D03*
X132000000Y-70500000D03*
X126000000Y-67610000D03*
X129000000Y-63500000D03*
X148050331Y-89150000D03*
X123500000Y-78500000D03*
X143000000Y-89000000D03*
X156500000Y-89000000D03*
D16*
X160350000Y-84350000D02*
X160350000Y-76650000D01*
X120000000Y-59000000D02*
X118600000Y-59000000D01*
X107430000Y-48770000D02*
X108370000Y-48770000D01*
X101450000Y-54750000D02*
X107430000Y-48770000D01*
X101450000Y-71045685D02*
X101450000Y-54750000D01*
X109000000Y-88500000D02*
X109000000Y-78595686D01*
X160350000Y-76650000D02*
X161500000Y-75500000D01*
X118500000Y-98000000D02*
X109000000Y-88500000D01*
X109000000Y-78595686D02*
X101450000Y-71045685D01*
X118600000Y-59000000D02*
X108370000Y-48770000D01*
X161500000Y-85500000D02*
X160350000Y-84350000D01*
X144620000Y-96500000D02*
X145770000Y-97650000D01*
X140000000Y-62500000D02*
X140000000Y-68380000D01*
X143195000Y-80635635D02*
X143195000Y-81620000D01*
X156000000Y-59000000D02*
X156000000Y-62500000D01*
X154470000Y-97650000D02*
X155620000Y-96500000D01*
X155620000Y-96500000D02*
X155620000Y-93920000D01*
X135939365Y-73380000D02*
X143195000Y-80635635D01*
X162650000Y-69110000D02*
X161500000Y-67960000D01*
X133390000Y-96500000D02*
X134540000Y-97650000D01*
X135000000Y-73380000D02*
X135939365Y-73380000D01*
X145770000Y-97650000D02*
X154470000Y-97650000D01*
X150810000Y-68925000D02*
X150815000Y-68920000D01*
X127380000Y-73380000D02*
X127380000Y-75920000D01*
X162650000Y-76890000D02*
X162650000Y-69110000D01*
X156630000Y-58370000D02*
X156000000Y-59000000D01*
X150810000Y-86500000D02*
X150810000Y-68925000D01*
X161500000Y-67960000D02*
X160350000Y-66810000D01*
X162650000Y-86890000D02*
X162650000Y-79190000D01*
X114000000Y-88000000D02*
X114000000Y-77950000D01*
X156630000Y-48770000D02*
X156630000Y-58370000D01*
X114000000Y-77950000D02*
X112010000Y-75960000D01*
X145930000Y-81620000D02*
X150810000Y-86500000D01*
X127380000Y-75920000D02*
X135000000Y-75920000D01*
X155620000Y-93920000D02*
X161500000Y-88040000D01*
X135000000Y-75920000D02*
X135000000Y-73380000D01*
X135000000Y-73380000D02*
X127380000Y-73380000D01*
X161500000Y-78040000D02*
X162650000Y-76890000D01*
X115250000Y-89250000D02*
X114000000Y-88000000D01*
X161500000Y-88040000D02*
X162650000Y-86890000D01*
X143195000Y-81620000D02*
X145930000Y-81620000D01*
X160350000Y-66810000D02*
X160350000Y-59110000D01*
X140000000Y-68380000D02*
X135000000Y-73380000D01*
X134540000Y-97650000D02*
X143470000Y-97650000D01*
X129685000Y-92795000D02*
X129685000Y-88150000D01*
X128585000Y-89250000D02*
X115250000Y-89250000D01*
X160350000Y-59110000D02*
X161500000Y-57960000D01*
X133390000Y-96500000D02*
X129685000Y-92795000D01*
X129685000Y-88150000D02*
X128585000Y-89250000D01*
X143470000Y-97650000D02*
X144620000Y-96500000D01*
X162650000Y-79190000D02*
X161500000Y-78040000D01*
X108600000Y-89160661D02*
X108600000Y-78761372D01*
X154996346Y-98750000D02*
X118189339Y-98750000D01*
X108600000Y-78761372D02*
X101050000Y-71211370D01*
X101050000Y-71211370D02*
X101050000Y-53790000D01*
X163050000Y-90696346D02*
X154996346Y-98750000D01*
X101050000Y-53790000D02*
X107220000Y-47620000D01*
X114840000Y-47620000D02*
X115990000Y-48770000D01*
X118189339Y-98750000D02*
X108600000Y-89160661D01*
X163050000Y-62050000D02*
X163050000Y-90696346D01*
X107220000Y-47620000D02*
X114840000Y-47620000D01*
X161500000Y-60500000D02*
X163050000Y-62050000D01*
X142880000Y-86810000D02*
X143190000Y-86500000D01*
X140000000Y-86810000D02*
X142880000Y-86810000D01*
X125770000Y-96500000D02*
X120500000Y-96500000D01*
X127685000Y-88150000D02*
X127685000Y-83845000D01*
X127685000Y-83845000D02*
X127380000Y-83540000D01*
X112000000Y-83590000D02*
X112010000Y-83580000D01*
X120500000Y-96500000D02*
X112000000Y-88000000D01*
X112000000Y-88000000D02*
X112000000Y-83590000D01*
X132500000Y-59526346D02*
X142780000Y-49246346D01*
X155480000Y-45080000D02*
X156630000Y-46230000D01*
X142780000Y-49246346D02*
X142780000Y-48293654D01*
X144406346Y-47620000D02*
X145320000Y-46706346D01*
X132500000Y-65500000D02*
X132500000Y-59526346D01*
X145320000Y-45753654D02*
X145993654Y-45080000D01*
X142780000Y-48293654D02*
X143453654Y-47620000D01*
X145320000Y-46706346D02*
X145320000Y-45753654D01*
X143453654Y-47620000D02*
X144406346Y-47620000D01*
X145993654Y-45080000D02*
X155480000Y-45080000D01*
X120540000Y-64000000D02*
X127380000Y-70840000D01*
X103000000Y-64000000D02*
X120540000Y-64000000D01*
X108460000Y-72000000D02*
X120920000Y-72000000D01*
X103000000Y-66540000D02*
X108460000Y-72000000D01*
X120920000Y-72000000D02*
X127380000Y-78460000D01*
X152700000Y-86731321D02*
X152700000Y-47620000D01*
X151431321Y-88000000D02*
X152700000Y-86731321D01*
X135000000Y-83540000D02*
X139460000Y-88000000D01*
X152700000Y-47620000D02*
X154090000Y-46230000D01*
X139460000Y-88000000D02*
X151431321Y-88000000D01*
X136810000Y-81000000D02*
X137500000Y-80310000D01*
X135000000Y-81000000D02*
X136810000Y-81000000D01*
X138900000Y-62044365D02*
X139544365Y-61400000D01*
X139544365Y-61400000D02*
X140455635Y-61400000D01*
X140455635Y-61400000D02*
X149500000Y-70444365D01*
X153450000Y-83550000D02*
X154090000Y-82910000D01*
X135000000Y-68300000D02*
X138900000Y-64400000D01*
X154090000Y-82910000D02*
X154090000Y-48770000D01*
X138900000Y-64400000D02*
X138900000Y-62044365D01*
X153450000Y-84000000D02*
X153450000Y-83550000D01*
X149500000Y-70444365D02*
X149500000Y-84000000D01*
X163450000Y-90862032D02*
X155162031Y-99150000D01*
X114600000Y-46706346D02*
X115513654Y-47620000D01*
X117140000Y-49246346D02*
X117813654Y-49920000D01*
X118023653Y-99150000D02*
X100650000Y-81776347D01*
X155162031Y-99150000D02*
X118023653Y-99150000D01*
X100650000Y-53276346D02*
X107220000Y-46706346D01*
X107220000Y-46706346D02*
X107220000Y-45753654D01*
X116466346Y-47620000D02*
X117140000Y-48293654D01*
X107893654Y-45080000D02*
X113926346Y-45080000D01*
X100650000Y-81776347D02*
X100650000Y-53276346D01*
X161023654Y-56810000D02*
X161976346Y-56810000D01*
X122460000Y-49920000D02*
X123610000Y-48770000D01*
X113926346Y-45080000D02*
X114600000Y-45753654D01*
X114600000Y-45753654D02*
X114600000Y-46706346D01*
X117813654Y-49920000D02*
X122460000Y-49920000D01*
X163450000Y-58283654D02*
X163450000Y-90862032D01*
X161500000Y-70500000D02*
X158580000Y-67580000D01*
X161976346Y-56810000D02*
X163450000Y-58283654D01*
X158580000Y-59253654D02*
X161023654Y-56810000D01*
X107220000Y-45753654D02*
X107893654Y-45080000D01*
X115513654Y-47620000D02*
X116466346Y-47620000D01*
X158580000Y-67580000D02*
X158580000Y-59253654D01*
X117140000Y-48293654D02*
X117140000Y-49246346D01*
X151550000Y-46230000D02*
X150160000Y-47620000D01*
X150000000Y-56500000D02*
X148500000Y-58000000D01*
X118350000Y-62850000D02*
X106500000Y-62850000D01*
X150160000Y-47620000D02*
X150160000Y-49246346D01*
X147500000Y-63000000D02*
X145000000Y-60500000D01*
X129000000Y-60500000D02*
X119500000Y-60500000D01*
X119500000Y-60500000D02*
X118350000Y-61650000D01*
X145000000Y-60500000D02*
X133500000Y-60500000D01*
X150000000Y-49406346D02*
X150000000Y-56500000D01*
X107800000Y-65800000D02*
X107000000Y-65000000D01*
X118350000Y-61650000D02*
X118350000Y-62850000D01*
X150160000Y-49246346D02*
X150000000Y-49406346D01*
X148500000Y-58000000D02*
X148500000Y-61000000D01*
X112010000Y-65800000D02*
X107800000Y-65800000D01*
X126280000Y-70384365D02*
X126280000Y-71295635D01*
X127835635Y-71940000D02*
X131230000Y-68545635D01*
X126924365Y-71940000D02*
X127835635Y-71940000D01*
X126280000Y-71295635D02*
X126924365Y-71940000D01*
X131230000Y-68545635D02*
X131230000Y-48770000D01*
X120295635Y-64400000D02*
X126280000Y-70384365D01*
X112010000Y-68340000D02*
X115950000Y-64400000D01*
X115950000Y-64400000D02*
X120295635Y-64400000D01*
X132620000Y-47620000D02*
X133770000Y-48770000D01*
X130080000Y-45753654D02*
X130753654Y-45080000D01*
X112010000Y-81040000D02*
X101850000Y-70880000D01*
X130080000Y-61120000D02*
X130080000Y-45753654D01*
X131946346Y-45080000D02*
X132620000Y-45753654D01*
X127600000Y-63600000D02*
X130080000Y-61120000D01*
X101850000Y-70880000D02*
X101850000Y-62850000D01*
X132620000Y-45753654D02*
X132620000Y-47620000D01*
X104150000Y-62850000D02*
X104900000Y-63600000D01*
X104900000Y-63600000D02*
X127600000Y-63600000D01*
X101850000Y-62850000D02*
X104150000Y-62850000D01*
X130753654Y-45080000D02*
X131946346Y-45080000D01*
X137995635Y-79560000D02*
X146035635Y-87600000D01*
X145080000Y-59080000D02*
X145080000Y-47620000D01*
X119630000Y-83580000D02*
X123650000Y-79560000D01*
X146035635Y-87600000D02*
X151265635Y-87600000D01*
X151915000Y-86950635D02*
X151915000Y-65915000D01*
X123650000Y-79560000D02*
X137995635Y-79560000D01*
X145080000Y-47620000D02*
X146470000Y-46230000D01*
X151265635Y-87600000D02*
X151915000Y-86950635D01*
X151915000Y-65915000D02*
X145080000Y-59080000D01*
X131750000Y-70250000D02*
X131750000Y-53330000D01*
X131750000Y-53330000D02*
X136310000Y-48770000D01*
X132000000Y-70500000D02*
X131750000Y-70250000D01*
X119630000Y-81040000D02*
X123170000Y-77500000D01*
X123170000Y-77500000D02*
X124500000Y-77500000D01*
X156500000Y-89000000D02*
X148200331Y-89000000D01*
X118530000Y-84035635D02*
X118530000Y-83124365D01*
X134395635Y-89000000D02*
X127835635Y-82440000D01*
X123500000Y-78725635D02*
X123500000Y-78500000D01*
X122325635Y-82440000D02*
X120085635Y-84680000D01*
X119174365Y-82480000D02*
X119745635Y-82480000D01*
X130000000Y-64500000D02*
X129000000Y-63500000D01*
X119745635Y-82480000D02*
X123500000Y-78725635D01*
X120085635Y-84680000D02*
X119174365Y-84680000D01*
X126000000Y-67610000D02*
X126410000Y-67200000D01*
X143000000Y-89000000D02*
X134395635Y-89000000D01*
X127835635Y-82440000D02*
X122325635Y-82440000D01*
X130000000Y-67500000D02*
X130000000Y-64500000D01*
X129700000Y-67200000D02*
X130000000Y-67500000D01*
X126410000Y-67200000D02*
X129700000Y-67200000D01*
X118530000Y-83124365D02*
X119174365Y-82480000D01*
X119174365Y-84680000D02*
X118530000Y-84035635D01*
X148200331Y-89000000D02*
X148050331Y-89150000D01*
X147640000Y-88400000D02*
X151597007Y-88400000D01*
X157780000Y-45753654D02*
X156706346Y-44680000D01*
X151597007Y-88400000D02*
X157780000Y-82217007D01*
X157780000Y-82217007D02*
X157780000Y-45753654D01*
X139540000Y-96500000D02*
X147640000Y-88400000D01*
X156706346Y-44680000D02*
X120080000Y-44680000D01*
X120080000Y-44680000D02*
X118530000Y-46230000D01*
X158180000Y-45587968D02*
X156872031Y-44280000D01*
X156872031Y-44280000D02*
X118853654Y-44280000D01*
X118853654Y-44280000D02*
X117380000Y-45753654D01*
X117380000Y-45753654D02*
X117380000Y-46706346D01*
X119920000Y-47380000D02*
X121070000Y-46230000D01*
X117380000Y-46706346D02*
X118053654Y-47380000D01*
X150540000Y-96500000D02*
X158180000Y-88860000D01*
X158180000Y-88860000D02*
X158180000Y-45587968D01*
X118053654Y-47380000D02*
X119920000Y-47380000D01*
D17*
X100000000Y-47000000D02*
X100000000Y-81000000D01*
X100000000Y-47000000D02*
G75*
G02*
X103000000Y-44000000I3000000J0D01*
G01*
X100000000Y-81000000D02*
X100000000Y-97000000D01*
X103000000Y-100000000D02*
G75*
G02*
X100000000Y-97000000I0J3000000D01*
G01*
X103000000Y-100000000D02*
X162000000Y-100000000D01*
X162000000Y-44000000D02*
X103000000Y-44000000D01*
X162000000Y-44000000D02*
G75*
G02*
X165000000Y-47000000I0J-3000000D01*
G01*
X165000000Y-97000000D02*
G75*
G02*
X162000000Y-100000000I-3000000J0D01*
G01*
X165000000Y-97000000D02*
X165000000Y-47000000D01*
M02*
